<svg width="20" height="20" viewBox="0 0 20 20" fill="none" xmlns="http://www.w3.org/2000/svg">
<path d="M10.3539 5.14697C10.3077 5.10065 10.2523 5.06396 10.1909 5.03857C10.1329 5.01465 10.0715 5.00317 10.0097 5.00195C10.0063 5.00189 10.0034 5 10 5C9.99762 5 9.99561 5.00128 9.99323 5.00134C9.93048 5.0022 9.86786 5.01422 9.80896 5.03857C9.74756 5.06396 9.69232 5.10065 9.64612 5.14697L5.14655 9.64655C4.95935 9.84027 4.95935 10.1475 5.14655 10.3412C5.33838 10.5399 5.65491 10.5453 5.85352 10.3535L9.5 6.70697V14.5005C9.50018 14.7766 9.724 15.0002 10 15H10.0006C10.2766 14.9998 10.5002 14.776 10.5 14.5V6.70697L14.1465 10.3535C14.2401 10.4474 14.3674 10.5002 14.5 10.5C14.6325 10.5 14.7596 10.4473 14.8534 10.3536C15.0486 10.1584 15.0488 9.8418 14.8535 9.64655L10.3539 5.14697ZM10 0C4.47717 0 0 4.47717 0 10C0 15.5228 4.47717 20 10 20C15.5201 19.9935 19.9935 15.5201 20 10C20 4.47717 15.5228 0 10 0ZM10 19C5.02942 19 1 14.9706 1 10C1 5.02942 5.02942 1 10 1C14.9683 1.00562 18.9944 5.03174 19 10C19 14.9706 14.9706 19 10 19Z" fill="#37D279"/>
</svg>
