<svg width="20" height="20" viewBox="0 0 20 20" fill="none" xmlns="http://www.w3.org/2000/svg">
<path d="M14.1465 9.64648L10.5 13.293V5.5C10.5 5.22388 10.2761 5 10 5C9.72388 5 9.5 5.22388 9.5 5.5V13.293L5.85345 9.64655C5.65973 9.45941 5.35254 9.45941 5.15875 9.64655C4.96014 9.83838 4.95465 10.1549 5.14648 10.3535L9.64606 14.8531C9.69196 14.899 9.74664 14.9359 9.80743 14.9613C9.86786 14.9865 9.93323 15.0001 10 15H10.0006C10.0112 15 10.0201 14.9946 10.0306 14.994C10.0864 14.9905 10.1418 14.9824 10.1927 14.9611C10.2538 14.9356 10.3087 14.8986 10.3546 14.8524L14.8535 10.3535C15.0406 10.1597 15.0406 9.85254 14.8535 9.65875C14.6616 9.46014 14.3451 9.45465 14.1465 9.64648ZM10 0C4.47717 0 0 4.47717 0 10C0 15.5228 4.47717 20 10 20C15.5201 19.9935 19.9935 15.5201 20 10C20 4.47717 15.5228 0 10 0ZM10 19C5.02942 19 1 14.9706 1 10C1 5.02942 5.02942 1 10 1C14.9683 1.00562 18.9944 5.03174 19 10C19 14.9706 14.9706 19 10 19Z" fill="#EB5757"/>
</svg>
