<svg width="40" height="16" viewBox="0 0 40 16" fill="none" xmlns="http://www.w3.org/2000/svg">
<g clip-path="url(#clip0_578_9029)">
<path fill-rule="evenodd" clip-rule="evenodd" d="M6.63272 0.949463C6.61946 0.949463 6.60638 0.949463 6.59331 0.949463C4.83677 0.949463 3.14599 1.35925 1.50789 2.18577C0.843422 3.77236 0.468501 5.38542 0.448701 7.0317C0.422362 8.66447 0.757866 10.337 1.50135 12.0428C3.21175 12.7897 4.92214 13.1733 6.63272 13.1931C8.34312 13.1733 10.0537 12.7897 11.7641 12.0428C12.5076 10.337 12.8431 8.66447 12.8167 7.0317C12.7969 5.38542 12.422 3.77236 11.7576 2.18577C10.1195 1.35925 8.42868 0.949463 6.67214 0.949463C6.65906 0.949463 6.64598 0.949463 6.63272 0.949463Z" fill="#FEFEFE"/>
<path d="M1.23128 1.82228C2.95494 0.936258 4.74435 0.5 6.59298 0.5C6.60606 0.5 6.61914 0.5 6.6324 0.5C6.64566 0.5 6.65874 0.5 6.67182 0.5C8.52045 0.5 10.3099 0.936258 12.0335 1.82228L12.1389 1.93454C12.8428 3.60053 13.244 5.29956 13.2638 7.02506C13.2638 7.0581 13.2638 7.08457 13.2638 7.11761V7.23662C13.2573 8.89604 12.902 10.5885 12.1389 12.3074L12.0204 12.4197C10.2245 13.2197 8.42836 13.623 6.6324 13.6429C4.83645 13.623 3.04031 13.2197 1.24436 12.4197L1.12592 12.3074C0.36282 10.5885 0.00751589 8.89604 0.000976562 7.23662V7.11761C0.000976562 7.08457 0.000976562 7.0581 0.000976562 7.02506C0.0207762 5.29956 0.422037 3.60053 1.12592 1.93454L1.23128 1.82228ZM6.6324 0.949583C6.61914 0.949583 6.60606 0.949583 6.59298 0.949583C4.83645 0.949583 3.14567 1.35937 1.50757 2.18589C0.843097 3.77248 0.468175 5.38554 0.448376 7.03182C0.422037 8.66459 0.757541 10.3372 1.50103 12.0429C3.21142 12.7899 4.92182 13.1734 6.6324 13.1933C8.3428 13.1734 10.0534 12.7899 11.7638 12.0429C12.5073 10.3372 12.8428 8.66459 12.8164 7.03182C12.7966 5.38554 12.4217 3.77248 11.7572 2.18589C10.1191 1.35937 8.42836 0.949583 6.67182 0.949583C6.65874 0.949583 6.64566 0.949583 6.6324 0.949583Z" fill="#003399"/>
<path fill-rule="evenodd" clip-rule="evenodd" d="M6.75052 10.7406C6.65842 9.47778 6.71764 8.16225 6.34254 6.95899C5.99396 5.83512 4.67156 5.19388 4.64522 3.95757C4.61888 2.99233 5.34929 1.87503 6.71764 1.87503C8.00044 1.86846 8.79642 2.80724 8.88851 3.85188C9.00041 5.06172 7.53996 5.87473 7.15832 7.02506C6.7636 8.20186 6.87549 9.50425 6.75052 10.7406Z" fill="#003399"/>
<path fill-rule="evenodd" clip-rule="evenodd" d="M7.2579 10.4365C7.20522 9.33906 7.20522 8.28785 7.50784 7.35564C7.84335 6.29785 8.54069 5.40544 9.60642 5.11448C10.3366 4.91625 11.4091 5.77562 11.238 6.65489C11.0932 7.36221 10.3893 8.1953 9.25784 8.28785C8.73142 8.33421 8.50782 8.75714 8.17885 9.00192C9.65256 8.85644 10.6064 8.27452 11.2709 7.66632C11.3695 8.18198 11.4353 9.0481 11.034 9.34564C10.2446 9.90748 9.51433 9.45132 8.58665 9.71582C8.06696 9.86787 7.74471 10.1984 7.2579 10.4365Z" fill="#003399"/>
<path fill-rule="evenodd" clip-rule="evenodd" d="M6.25117 10.4365C6.31039 9.33906 6.30385 8.28785 6.00776 7.35564C5.67226 6.29785 4.97491 5.40544 3.90919 5.11448C3.17896 4.91625 2.09997 5.77562 2.27763 6.65489C2.4224 7.36221 3.12628 8.1953 4.25795 8.28785C4.77764 8.33421 5.00779 8.75714 5.33676 9.00192C3.85651 8.85644 2.90921 8.27452 2.24475 7.66632C2.14611 8.18198 2.08036 9.0481 2.48162 9.34564C3.27106 9.90748 4.00128 9.45132 4.92896 9.71582C5.44865 9.86787 5.76435 10.1984 6.25117 10.4365Z" fill="#003399"/>
<path fill-rule="evenodd" clip-rule="evenodd" d="M9.75774 12.0695V11.891L9.88925 11.8579L9.75774 11.6595V11.3289L10.3499 12.1554L10.1394 12.2082L9.99461 12.0032L9.75774 12.0695ZM9.75774 11.3289V11.6595L9.66564 11.5273L9.62623 11.924L9.75774 11.891V12.0695L9.60643 12.1025L9.58009 12.3471L9.36956 12.4L9.50779 11.3224L9.71832 11.2694L9.75774 11.3289ZM7.79721 12.6446V12.4727H7.84335C7.91565 12.4661 7.96179 12.4596 7.9814 12.4528C8.00774 12.4462 8.03408 12.4263 8.04734 12.4066C8.06696 12.3801 8.07368 12.3537 8.07368 12.3206C8.06696 12.2876 8.06042 12.2611 8.04062 12.2412C8.02754 12.2215 8.0012 12.2082 7.97487 12.2016C7.94853 12.1951 7.88931 12.1951 7.79721 12.2016V12.0297C7.84989 12.0297 7.88277 12.0231 7.89603 12.0231C7.92891 12.0165 7.95525 11.9966 7.97487 11.9769C7.99467 11.957 8.0012 11.9306 7.99467 11.8975C7.99467 11.8645 7.98141 11.838 7.96179 11.8249C7.94853 11.805 7.92219 11.7918 7.88277 11.7918C7.86969 11.7918 7.84335 11.7918 7.79721 11.7984V11.6265C7.86969 11.6199 7.92219 11.6199 7.95525 11.6265C7.99467 11.6265 8.03408 11.6398 8.06696 11.6595C8.09984 11.6728 8.12618 11.6991 8.15252 11.7323C8.17232 11.7654 8.1854 11.805 8.19193 11.8512C8.19866 11.8975 8.1854 11.9439 8.1656 11.9835C8.14598 12.0231 8.1131 12.0561 8.06696 12.0826C8.13272 12.0959 8.1854 12.1222 8.21827 12.162C8.25787 12.2016 8.27749 12.248 8.28403 12.3075C8.28403 12.3537 8.27749 12.4 8.26441 12.4462C8.24461 12.4926 8.21827 12.5256 8.1854 12.5587C8.14598 12.5851 8.10656 12.6048 8.05388 12.6182C8.021 12.6247 7.93545 12.6313 7.81047 12.6446H7.79721ZM9.04059 12.0892L9.24458 12.1157C9.23151 12.2281 9.19863 12.3206 9.13941 12.3867C9.08019 12.4462 8.99464 12.4926 8.88928 12.5123C8.75777 12.5322 8.63933 12.5057 8.5407 12.4331C8.43534 12.3537 8.37613 12.2412 8.34325 12.0826C8.31709 11.9174 8.33671 11.7785 8.40919 11.6728C8.47494 11.567 8.58012 11.5009 8.71835 11.4744C8.84332 11.4545 8.94196 11.4744 9.03405 11.5339C9.08673 11.567 9.13269 11.6199 9.16557 11.6991L8.97484 11.7785C8.95522 11.7323 8.92216 11.6925 8.88274 11.6728C8.83678 11.6464 8.79065 11.6398 8.73797 11.6464C8.66567 11.6595 8.61299 11.6991 8.57358 11.7588C8.53416 11.8249 8.52744 11.9109 8.54724 12.0297C8.57358 12.1554 8.61299 12.2412 8.66567 12.2876C8.71835 12.334 8.78411 12.3537 8.8564 12.3405C8.90908 12.3272 8.9485 12.3007 8.98138 12.2611C9.01444 12.2215 9.03405 12.162 9.04059 12.0892ZM7.79721 11.6265V11.7984C7.77106 11.7984 7.74472 11.805 7.71184 11.805L7.59341 11.8183L7.61302 12.0496L7.75126 12.0364C7.76434 12.0364 7.78414 12.0364 7.79721 12.0297V12.2016C7.79721 12.2016 7.79721 12.2016 7.79067 12.2016L7.63282 12.215L7.65262 12.4858L7.79721 12.4727V12.6446L7.46825 12.6777L7.37615 11.6661L7.7776 11.633C7.78414 11.6265 7.79068 11.6265 7.79721 11.6265ZM6.5275 12.2942V12.1222C6.57363 12.1222 6.59997 12.1157 6.61959 12.1091C6.64593 12.1025 6.66573 12.0826 6.68553 12.0629C6.69861 12.0364 6.70515 12.01 6.70515 11.9835C6.71187 11.9439 6.69861 11.9174 6.67881 11.891C6.65919 11.8645 6.63285 11.8512 6.59997 11.8446C6.58017 11.8446 6.56037 11.838 6.5275 11.838V11.6661C6.62631 11.6661 6.68553 11.6728 6.71841 11.686C6.77762 11.6991 6.82358 11.7323 6.863 11.7851C6.9026 11.838 6.92222 11.9041 6.91568 11.9835C6.91568 12.043 6.9026 12.0959 6.8828 12.1421C6.85646 12.1819 6.83012 12.215 6.79724 12.2412C6.75783 12.2611 6.72495 12.2743 6.68553 12.2876C6.64593 12.2942 6.59343 12.2942 6.5275 12.2942ZM6.5275 11.6661V11.838C6.50788 11.838 6.48154 11.838 6.44866 11.838L6.35003 11.8314V12.1222H6.4552C6.48154 12.1222 6.50788 12.1222 6.5275 12.1222V12.2942C6.51442 12.2942 6.49462 12.2942 6.475 12.2942H6.34331L6.33677 12.6777L6.13278 12.6709L6.15257 11.6595L6.475 11.6661C6.49462 11.6661 6.51442 11.6661 6.5275 11.6661ZM4.62637 12.1951V11.8844C4.68559 11.8975 4.725 11.8975 4.7448 11.8975C4.77114 11.891 4.79076 11.8844 4.81056 11.8645C4.82364 11.8446 4.8369 11.8249 4.84344 11.7918C4.84998 11.7588 4.84344 11.7323 4.83018 11.7059C4.8171 11.6794 4.79076 11.6661 4.75788 11.6529C4.7448 11.6464 4.69867 11.6398 4.62637 11.6265V11.4545L4.71193 11.4678C4.8171 11.4877 4.8894 11.5074 4.93553 11.5339C4.98149 11.5604 5.01455 11.6 5.03417 11.6529C5.05397 11.6991 5.06051 11.7588 5.04743 11.8183C5.03417 11.891 5.00129 11.9505 4.94861 11.9901C4.90266 12.0297 4.83018 12.0496 4.73808 12.0496C4.77768 12.0826 4.81056 12.1157 4.83018 12.1487C4.85652 12.1885 4.88286 12.248 4.91574 12.334L5.00129 12.5521L4.76442 12.5057L4.65925 12.2611C4.64599 12.2412 4.63945 12.215 4.62637 12.1951ZM5.20528 11.567L5.40255 11.5869L5.35659 12.1356C5.35005 12.2215 5.35005 12.281 5.35005 12.3007C5.35659 12.3471 5.37621 12.3801 5.40255 12.4066C5.43543 12.4397 5.47503 12.4528 5.53425 12.4595C5.59346 12.4661 5.63942 12.4528 5.66576 12.4331C5.69864 12.4132 5.71844 12.3867 5.73152 12.3537C5.73805 12.3206 5.74478 12.2611 5.75131 12.1819L5.79727 11.6199L6.00126 11.6398L5.95531 12.1686C5.94858 12.2942 5.93551 12.3801 5.91571 12.4263C5.90263 12.4727 5.87629 12.5189 5.84995 12.5453C5.81707 12.5786 5.77111 12.6048 5.71844 12.6182C5.6723 12.6381 5.60654 12.6381 5.52752 12.6313C5.42889 12.6247 5.35659 12.6048 5.31046 12.5786C5.2645 12.5521 5.2249 12.5189 5.19874 12.4858C5.1724 12.4462 5.15914 12.4066 5.1526 12.367C5.14606 12.3075 5.14606 12.2215 5.1526 12.1091L5.20528 11.567ZM3.6066 11.8645L3.64602 11.6991L4.0738 11.8116L3.96844 12.2016C3.91576 12.2347 3.85001 12.2546 3.75791 12.2611C3.67236 12.2677 3.59352 12.2611 3.5145 12.2412C3.40933 12.215 3.32377 12.1686 3.26456 12.1091C3.1988 12.043 3.1592 11.9636 3.13958 11.8776C3.12632 11.7851 3.12632 11.6925 3.15266 11.6C3.179 11.5009 3.22496 11.4149 3.2909 11.3423C3.35011 11.276 3.42895 11.2364 3.52104 11.2167C3.59352 11.1968 3.67889 11.2033 3.77117 11.2298C3.88942 11.2629 3.98152 11.3092 4.0342 11.3819C4.08688 11.4479 4.11321 11.5339 4.10668 11.6265L3.90269 11.6133C3.90269 11.5604 3.88942 11.514 3.85655 11.4744C3.82367 11.4414 3.78425 11.4083 3.72503 11.3952C3.63948 11.3753 3.56718 11.3819 3.50142 11.4215C3.43549 11.4613 3.38953 11.5405 3.35665 11.6464C3.32377 11.7654 3.33031 11.8579 3.36319 11.9306C3.40261 12.0032 3.46183 12.0496 3.54084 12.0695C3.5868 12.0826 3.6264 12.0826 3.67236 12.0826C3.71849 12.076 3.75791 12.0629 3.79733 12.0496L3.83021 11.924L3.6066 11.8645ZM4.62637 11.4545L4.28415 11.3952L4.11321 12.3933L4.31048 12.4263L4.38296 12.01L4.42892 12.0165C4.47506 12.0231 4.50794 12.0364 4.52755 12.043C4.54735 12.0561 4.56043 12.076 4.58023 12.0959C4.58677 12.1157 4.60657 12.1487 4.62637 12.1951V11.8844C4.60657 11.8844 4.58677 11.8776 4.56043 11.8776L4.41584 11.8512L4.45526 11.6L4.61311 11.6265C4.61965 11.6265 4.62637 11.6265 4.62637 11.6265V11.4545Z" fill="#003399"/>
<path fill-rule="evenodd" clip-rule="evenodd" d="M35.9806 10.2183V8.35392H36.7964V5.07487L35.9806 6.71439V2.62215H39.1845L40.0003 12.0495H36.7964V10.2183H35.9806ZM35.9806 2.62215V6.71439L35.1649 8.35392H35.9806V10.2183H34.4413L33.8098 11.9504H31.8229V9.79521L34.0399 4.9889H33.586L34.8491 2.62215H35.9806ZM31.8229 5.76248L32.8163 3.39555L31.8229 2.84028V5.76248ZM23.9218 4.85674C23.9679 4.58568 23.9679 4.32118 23.9218 4.07002V4.85674ZM31.8229 2.84028V5.76248L31.6914 6.07972C29.7309 4.67165 26.8363 5.95414 26.6717 7.44161C26.5073 8.99516 27.685 10.2514 30.6914 9.31259L29.6586 12.0891C25.6916 12.5321 24.1521 10.9521 23.9218 9.1076V8.06314C23.981 7.58052 24.1061 7.11104 24.2771 6.67478C26.231 1.79582 29.4019 2.89322 30.6059 2.80067L30.7835 2.25854L31.8229 2.84028ZM31.8229 9.79521L30.8295 11.9504H31.8229V9.79521ZM20.3562 11.8909C22.4811 11.4678 24.5666 8.90262 22.4746 6.85987C23.2903 6.42343 23.7968 5.63689 23.9218 4.85674V4.07002C23.7772 3.25683 23.1521 2.59569 21.9745 2.57579L20.3562 2.54275V4.35422H21.0272C21.7443 4.35422 21.6522 6.21863 20.7575 6.21863H20.3562V7.6466C21.3233 7.83169 20.9811 9.18025 20.3562 9.5968V11.8909ZM23.9218 8.06314V9.1076C23.8823 8.76389 23.8823 8.41342 23.9218 8.06314ZM17.5535 2.48324L16.2444 5.03526L16.8299 4.9889L15.251 11.9504H19.7706C19.968 11.9504 20.1587 11.9305 20.3562 11.8909V9.5968C20.2443 9.6762 20.1193 9.72238 19.9943 9.72238H18.3693L18.9088 7.6267H20.1259C20.2114 7.6267 20.2904 7.63327 20.3562 7.6466V6.21863H19.2245L19.6785 4.35422H20.3562V2.54275L17.5535 2.48324Z" fill="#003399"/>
</g>
<defs>
<clipPath id="clip0_578_9029">
<rect width="40" height="13.1429" fill="white" transform="translate(0 0.5)"/>
</clipPath>
</defs>
</svg>
