<svg width="16" height="20" viewBox="0 0 16 20" fill="none" xmlns="http://www.w3.org/2000/svg">
<path d="M14 12.1V8C14 4.9 11.6 2.3 8.5 2V0.5C8.5 0.2 8.3 0 8 0C7.7 0 7.5 0.2 7.5 0.5V2C4.4 2.3 2 4.9 2 8V12.1C0.9 12.3 0 13.3 0 14.5V16.5C0 16.8 0.2 17 0.5 17H4.2C4.7 18.7 6.2 20 8 20C9.8 20 11.4 18.7 11.8 17H15.5C15.8 17 16 16.8 16 16.5V14.5C16 13.3 15.1 12.3 14 12.1ZM3 8C3 5.2 5.2 3 8 3C10.8 3 13 5.2 13 8V12H3V8ZM9 18.8C7.4 19.3 5.7 18.5 5.2 17H10.8C10.5 17.9 9.8 18.5 9 18.8ZM15 16H1V14.5C1 13.7 1.7 13 2.5 13H13.5C14.3 13 15 13.7 15 14.5V16Z" fill="#3E4745"/>
</svg>
