<svg width="32" height="32" viewBox="0 0 32 32" fill="none" xmlns="http://www.w3.org/2000/svg">
<path d="M15.9997 1.3335C7.8995 1.3335 1.33301 7.89998 1.33301 16.0002C1.33301 24.1003 7.8995 30.6668 15.9997 30.6668C24.096 30.6577 30.6572 24.0965 30.6663 16.0002C30.6663 7.89998 24.0999 1.3335 15.9997 1.3335ZM15.9997 29.3335C8.6359 29.3335 2.66634 23.3639 2.66634 16.0002C2.66634 8.63639 8.6359 2.66683 15.9997 2.66683C23.3599 2.67546 29.3244 8.63997 29.333 16.0002C29.333 23.3639 23.3634 29.3335 15.9997 29.3335ZM21.9997 13.3308C21.9989 11.4906 20.5066 9.99943 18.6663 10.0002H17.9997V8.00016C17.9997 7.632 17.7012 7.3335 17.333 7.3335C16.9648 7.3335 16.6663 7.632 16.6663 8.00016V10.0002H13.9997V8.00016C13.9997 7.632 13.7012 7.3335 13.333 7.3335C12.9648 7.3335 12.6663 7.632 12.6663 8.00016V10.0002H10.6663C10.2982 10.0002 9.99967 10.2987 9.99967 10.6668C9.99967 11.035 10.2982 11.3335 10.6663 11.3335H12.6663V20.6668H10.6663C10.2982 20.6668 9.99967 20.9653 9.99967 21.3335C9.99967 21.7017 10.2982 22.0002 10.6663 22.0002H12.6663V24.0002C12.6663 24.0004 12.6663 24.0007 12.6663 24.0009C12.6666 24.3689 12.965 24.6671 13.333 24.6668C13.3333 24.6668 13.3335 24.6668 13.3338 24.6668C13.7017 24.6666 13.9999 24.3682 13.9997 24.0002V22.0002H16.6663V24.0002C16.6663 24.0004 16.6663 24.0007 16.6663 24.0009C16.6666 24.3689 16.965 24.6671 17.333 24.6668C17.3333 24.6668 17.3335 24.6668 17.3338 24.6668C17.7017 24.6666 17.9999 24.3682 17.9997 24.0002V22.0002H18.6663C19.717 22.0006 20.7063 21.5055 21.3357 20.6641C22.4381 19.1907 22.1372 17.1025 20.6637 16.0002C21.505 15.3708 22.0001 14.3815 21.9997 13.3308ZM20.6663 18.6668C20.6663 19.7714 19.7709 20.6668 18.6663 20.6668H13.9997V16.6668H18.6663C19.7709 16.6668 20.6663 17.5623 20.6663 18.6668ZM18.6663 15.3335H13.9997V11.3335H17.333H17.3338H18.6663C19.7709 11.3335 20.6663 12.2289 20.6663 13.3335C20.6663 14.4381 19.7709 15.3335 18.6663 15.3335Z" fill="#8890A0"/>
</svg>
