<svg width="40" height="16" viewBox="0 0 40 16" fill="none" xmlns="http://www.w3.org/2000/svg">
<g clip-path="url(#clip0_578_8939)">
<path fill-rule="evenodd" clip-rule="evenodd" d="M13.7559 1.75049C14.2223 2.07128 14.6967 2.55788 14.6967 3.02785V11.3114C14.6967 11.7755 14.2611 12.4319 13.8644 12.6937C15.2636 12.6937 16.663 12.6937 18.0624 12.6937C20.7784 12.5808 22.4258 11.5958 22.6227 9.53059C22.7608 8.08203 21.9989 6.9553 20.1271 6.32015C21.0609 5.9632 21.5631 5.18594 21.609 4.11365C21.6878 2.26929 19.5511 1.75049 18.2072 1.75049H13.7559V1.75049ZM16.3614 6.18593V2.73219H17.6496C19.1112 2.73219 19.7997 3.45253 19.7995 4.53833C19.7993 5.62413 18.8111 6.18593 17.5776 6.18593H16.3614ZM17.7346 11.6392H16.3614V7.16743H17.9176C20.2359 7.16743 20.937 8.56779 20.8127 9.71239C20.6884 10.857 19.7093 11.6392 17.7346 11.6392ZM26.319 1.75049H24.038C24.5451 2.31749 24.7664 2.61543 24.7664 3.49429V11.0434C24.7664 11.9129 24.3827 12.4464 23.8324 12.8239H26.8678C26.4171 12.5478 25.9319 12.0051 25.9319 11.0232V4.35424C27.4653 6.41198 28.9985 8.46952 30.5319 10.5273C31.4014 11.6698 32.4092 12.6384 33.5844 13.397V3.4544C33.5844 2.45877 33.9842 2.07918 34.5188 1.75049H31.5596C32.0959 2.15024 32.3803 2.60172 32.3803 3.41471V10.0731L26.319 1.75049V1.75049ZM36.1985 12.8239C36.8123 12.4148 37.1246 11.9347 37.1246 11.3114V3.40412C37.1246 2.46916 36.856 2.25786 36.3292 1.75049H39.8324C39.2278 2.09248 38.8036 2.79058 38.8036 3.40412V11.2896C38.8036 11.8946 39.16 12.4489 39.6433 12.8239H36.1985Z" fill="#007697"/>
<path fill-rule="evenodd" clip-rule="evenodd" d="M0 1.75049H3.3818C3.20517 2.05508 3.07135 2.73947 3.41324 4.27716C3.71727 5.64386 4.59628 7.06957 5.51313 8.19651L4.36091 9.14684L0 3.64243V1.75049ZM4.93837 1.75049H10.8918V3.19967C10.4312 2.92937 9.59152 2.6682 8.35843 3.16373C6.36898 3.96302 6.19855 6.30415 6.19855 6.30415C5.09803 4.96882 4.37394 2.77915 4.93837 1.75049V1.75049ZM10.8918 5.12195V9.43543C9.53899 9.95111 7.64157 8.60997 7.16484 7.01804C6.47384 4.71036 8.10258 3.87742 9.26784 4.10575C10.1386 4.27654 10.6443 4.79783 10.8918 5.12195ZM10.8918 10.1435V12.6922H7.24302L7.97456 12.0891C7.49721 12.1474 6.55967 11.922 6.103 11.3457L4.81861 9.72444L5.99276 8.75603C6.71437 9.55511 7.40145 10.1292 7.79007 10.3014C8.62192 10.67 9.55905 10.8481 10.8918 10.1435ZM5.20558 12.6922H1.21965L3.70321 10.6442C3.90631 10.9008 4.10258 11.1487 4.28893 11.3839C4.65481 11.8455 4.96194 12.3016 5.20558 12.6922ZM0.0614271 12.6922H0V5.97006C0.9485 7.16722 2.16008 8.69661 3.2455 10.0666L0.0614271 12.6922Z" fill="#EC6722"/>
</g>
<defs>
<clipPath id="clip0_578_8939">
<rect width="40" height="11.25" fill="white" transform="translate(0 1.75)"/>
</clipPath>
</defs>
</svg>
