<svg width="40" height="16" viewBox="0 0 40 16" fill="none" xmlns="http://www.w3.org/2000/svg">
<g clip-path="url(#clip0_578_8989)">
<path fill-rule="evenodd" clip-rule="evenodd" d="M1.40414 3.99292H7.61624C8.38583 3.99292 9.01549 4.56778 9.01549 5.27032V11.0565C9.01549 11.7591 8.38583 12.3339 7.61624 12.3339H1.40414C0.634547 12.3339 0.00488281 11.7591 0.00488281 11.0565V5.27032C0.00488281 4.56778 0.634547 3.99292 1.40414 3.99292ZM1.55426 4.58615H2.65618C2.95847 4.71324 3.20305 4.91264 3.37125 5.14031C3.57298 5.41345 3.66102 5.71867 3.59951 5.97316C3.59776 5.98044 3.59426 5.99269 3.58901 6.0093C3.43684 6.50749 2.91854 6.96546 2.3909 7.431C2.23873 7.56568 2.08569 7.70065 1.93469 7.84262L1.62306 8.135L1.93819 8.42301L1.93848 8.42331L1.93935 8.42272C2.0889 8.56294 2.24019 8.69674 2.3909 8.82967C2.91854 9.29551 3.43684 9.75347 3.58901 10.2514C3.59426 10.2683 3.59776 10.2802 3.59951 10.2878C3.66102 10.5423 3.57298 10.8472 3.37125 11.1207C3.17011 11.3929 2.85994 11.6244 2.47253 11.7404H1.55426C1.2473 11.7404 0.996021 11.4883 0.996021 11.1801V5.14672C0.996021 4.83859 1.2473 4.58644 1.55426 4.58644V4.58615ZM4.0496 4.58615H5.16113C5.46314 4.71324 5.70772 4.91264 5.87592 5.14031C6.07794 5.41345 6.16597 5.71867 6.10417 5.97316C6.10242 5.98044 6.09892 5.99269 6.09397 6.0093C5.9418 6.50749 5.4232 6.96546 4.89586 7.431C4.7434 7.56568 4.59035 7.70065 4.43935 7.84262L4.13501 8.12801L4.4376 8.4166L7.80077 11.6276C7.70748 11.6984 7.59146 11.7404 7.46611 11.7404H3.99363C4.03852 11.6891 4.08108 11.6366 4.12073 11.583C4.45684 11.1282 4.59589 10.5895 4.47987 10.1097C4.47229 10.0788 4.4653 10.0526 4.45888 10.0316C4.23996 9.31475 3.63361 8.77924 3.01678 8.2347C2.97742 8.20001 2.93807 8.16532 2.89901 8.13034C2.93807 8.09565 2.97742 8.06096 3.01678 8.02627C3.63361 7.48172 4.23996 6.94622 4.45888 6.22939C4.4653 6.20811 4.47229 6.18188 4.47987 6.15098C4.59589 5.67144 4.45684 5.13273 4.12073 4.67768C4.09799 4.64678 4.07409 4.61646 4.0496 4.58615ZM6.55427 4.58615H7.46611C7.77307 4.58615 8.02436 4.83859 8.02436 5.14672V10.6475L5.39551 8.13763C5.43749 8.1006 5.47946 8.06329 5.52144 8.02627C6.13828 7.48172 6.74462 6.94622 6.96355 6.22939C6.96996 6.20811 6.97696 6.18188 6.98454 6.15098C7.10085 5.67144 6.96151 5.13273 6.62539 4.67768C6.60266 4.64678 6.57875 4.61646 6.55427 4.58615Z" fill="#005093"/>
<path fill-rule="evenodd" clip-rule="evenodd" d="M23.7935 6.26025H24.9598V7.93295L26.4168 6.26025H27.8053L26.2119 8.04139L27.882 10.1044H26.4025L24.9598 8.30579V10.1044H23.7935V6.26025ZM19.162 6.26025H20.7723L22.1666 9.10103V6.26025H23.1965V10.1044H21.5804L20.1919 7.22137V10.1044H19.162V6.26025ZM15.7481 6.26025H17.2403L18.9772 10.1044H17.5829L17.2893 9.2669H15.5586L15.2712 10.1044H13.9684L15.7481 6.26025ZM16.9529 8.60196L16.427 7.05142L15.846 8.60196H16.9529ZM10.3662 6.26025H12.2602C12.3304 6.26375 12.44 6.269 12.5887 6.27629C12.7371 6.28328 12.8916 6.30806 13.0519 6.35062C13.2592 6.40368 13.4495 6.4955 13.6236 6.62668C13.7976 6.75757 13.8964 6.95755 13.9197 7.22661C13.9197 7.23361 13.9197 7.24002 13.9197 7.24527C13.9197 7.25052 13.9218 7.25664 13.9256 7.26393C13.9256 7.27092 13.9256 7.27705 13.9256 7.28229C13.9256 7.28783 13.9256 7.29395 13.9256 7.30095C13.9256 7.51346 13.8413 7.69478 13.6734 7.8452C13.5052 7.99562 13.2804 8.08162 12.9988 8.1026C13.0029 8.1026 13.0061 8.10377 13.0079 8.10523C13.0099 8.10727 13.0128 8.10814 13.0166 8.10814C13.2667 8.17169 13.4956 8.2743 13.7028 8.41598C13.9098 8.55765 14.0136 8.77337 14.0136 9.06372C14.0136 9.43889 13.8658 9.70621 13.5708 9.86566C13.2758 10.0248 12.8388 10.1044 12.2602 10.1044H10.3662V6.26025ZM11.5684 9.35056H12.2132C12.3893 9.35406 12.5181 9.32491 12.6004 9.26282C12.6826 9.20102 12.7333 9.13281 12.7528 9.05847C12.7566 9.04419 12.7598 9.03107 12.7616 9.01853C12.7636 9.00629 12.7645 8.99288 12.7645 8.97889C12.7645 8.95761 12.7627 8.93545 12.7586 8.91242C12.7549 8.88939 12.747 8.86549 12.7353 8.84071C12.7079 8.77337 12.656 8.7107 12.5797 8.6524C12.5036 8.5938 12.3972 8.56465 12.2602 8.56465L11.5684 8.5594V9.35056ZM11.5684 7.76299H12.1666C12.3502 7.76649 12.4811 7.73647 12.5592 7.67263C12.6377 7.60878 12.6764 7.51521 12.6764 7.39132C12.6764 7.28871 12.6315 7.20009 12.5418 7.12575C12.4517 7.05142 12.3266 7.0141 12.1666 7.0141L11.5684 7.00885V7.76299Z" fill="#005093"/>
<path fill-rule="evenodd" clip-rule="evenodd" d="M38.7734 6.26025H39.9852V10.1044H38.7734V6.26025ZM34.3788 6.26025H36.2885C36.3083 6.26375 36.327 6.2655 36.3448 6.2655C36.3626 6.2655 36.3812 6.2655 36.4008 6.2655C36.803 6.27279 37.1715 6.34159 37.5065 6.47277C37.8414 6.60365 38.0093 6.86922 38.0093 7.26917C38.0093 7.58051 37.9085 7.80818 37.7076 7.9516C37.5065 8.09473 37.266 8.18773 36.9861 8.23029C37.4079 8.24428 37.6691 8.37167 37.7697 8.61246C37.9755 9.1054 38.1559 9.62517 38.3536 10.1044H37.0529C36.8817 9.75751 36.7281 9.2704 36.5899 8.89901C36.527 8.72906 36.3792 8.64423 36.1466 8.64423L35.5909 8.63899V10.1044H34.3788V6.26025ZM35.5909 7.05142V7.89038H36.0579C36.0778 7.89388 36.0964 7.89563 36.1142 7.89563C36.1317 7.89563 36.1506 7.89563 36.1705 7.89563C36.3162 7.88864 36.4503 7.85861 36.5725 7.80526C36.6946 7.75221 36.7555 7.6426 36.7555 7.47615C36.7555 7.33097 36.6926 7.22486 36.5666 7.15753C36.4404 7.09048 36.2847 7.05666 36.0993 7.05666L35.5909 7.05142ZM30.1455 6.26025H32.0552C32.1263 6.26375 32.2365 6.269 32.3864 6.27629C32.5362 6.28328 32.6919 6.30806 32.8534 6.35062C33.0624 6.40368 33.2545 6.4955 33.43 6.62668C33.6055 6.75757 33.7049 6.95755 33.7285 7.22661C33.7285 7.23361 33.7285 7.24002 33.7285 7.24527C33.7285 7.25052 33.7305 7.25664 33.7343 7.26393C33.7343 7.27092 33.7343 7.27705 33.7343 7.28229C33.7343 7.28783 33.7343 7.29395 33.7343 7.30095C33.7343 7.51346 33.6498 7.69478 33.4801 7.8452C33.3107 7.99562 33.0842 8.08162 32.8003 8.1026C32.8041 8.1026 32.8073 8.10377 32.809 8.10523C32.8111 8.10727 32.814 8.10814 32.8181 8.10814C33.0702 8.17169 33.3008 8.2743 33.5098 8.41598C33.7186 8.55765 33.8229 8.77337 33.8229 9.06372C33.8229 9.43889 33.6743 9.70621 33.3766 9.86566C33.0793 10.0248 32.6388 10.1044 32.0552 10.1044H30.1455V6.26025ZM31.3576 9.35056H32.008C32.1855 9.35406 32.3155 9.32491 32.398 9.26282C32.4811 9.20102 32.5324 9.13281 32.5519 9.05847C32.556 9.04419 32.5589 9.03107 32.5607 9.01853C32.5627 9.00629 32.5636 8.99288 32.5636 8.97889C32.5636 8.95761 32.5618 8.93545 32.5578 8.91242C32.554 8.88939 32.5458 8.86549 32.5342 8.84071C32.5067 8.77337 32.4543 8.7107 32.3776 8.6524C32.3007 8.5938 32.1931 8.56465 32.0552 8.56465L31.3576 8.5594V9.35056ZM31.3576 7.76299H31.9607C32.1459 7.76649 32.2779 7.73647 32.3569 7.67263C32.4356 7.60878 32.4753 7.51521 32.4753 7.39132C32.4753 7.28871 32.4298 7.20009 32.3391 7.12575C32.2485 7.05142 32.1222 7.0141 31.9607 7.0141L31.3576 7.00885V7.76299Z" fill="#005093"/>
</g>
<defs>
<clipPath id="clip0_578_8989">
<rect width="40" height="8.35821" fill="white" transform="translate(0 4)"/>
</clipPath>
</defs>
</svg>
