<svg width="40" height="16" viewBox="0 0 40 16" fill="none" xmlns="http://www.w3.org/2000/svg">
<g clip-path="url(#clip0_578_8948)">
<path d="M13.2702 5.76855H13.2568V5.77046C13.2606 5.77046 13.2645 5.77046 13.2702 5.76855Z" fill="#168F8C"/>
<path d="M13.3594 5.64087V13.8082H15.2793V7.68651C15.2793 7.22939 15.0355 5.84848 13.3594 5.64087Z" fill="#0CA49D"/>
<path d="M3.15056 12.3874C3.39437 12.3874 3.59436 12.3569 3.74864 12.294C3.90292 12.2312 4.02482 12.1512 4.11244 12.054C4.20005 11.955 4.2591 11.8445 4.29338 11.7207C4.32576 11.5969 4.34291 11.4712 4.34291 11.3436C4.34291 11.1969 4.32386 11.0674 4.28576 10.9493C4.24767 10.8331 4.18101 10.7341 4.08958 10.6541C3.99625 10.5741 3.87435 10.5112 3.72007 10.4674C3.56769 10.4236 3.37341 10.4027 3.14104 10.4027H1.84966V12.3874H3.15056ZM1.84966 7.19897V9.16653H2.81153C3.01533 9.16653 3.20009 9.15129 3.36389 9.12272C3.52769 9.09415 3.66674 9.04272 3.78292 8.97034C3.89721 8.89796 3.98482 8.79701 4.04577 8.6694C4.10672 8.54179 4.13529 8.38179 4.13529 8.18751C4.13529 7.99704 4.11244 7.84086 4.06482 7.71515C4.0172 7.58944 3.94482 7.48849 3.84578 7.4123C3.74673 7.33611 3.62293 7.28088 3.47055 7.2485C3.32008 7.21612 3.13914 7.19897 2.93152 7.19897H1.84775H1.84966ZM2.93343 5.81616C3.48389 5.81616 3.95244 5.86759 4.3391 5.96854C4.72575 6.07139 5.04193 6.21424 5.28573 6.4009C5.52953 6.58756 5.70857 6.81232 5.81905 7.07898C5.92952 7.34563 5.98666 7.64277 5.98666 7.97038C5.98666 8.14942 5.9619 8.32084 5.91047 8.48655C5.85904 8.65226 5.77905 8.80654 5.67048 8.9513C5.56191 9.09605 5.42096 9.22748 5.24954 9.34747C5.07812 9.46747 4.87241 9.57223 4.63242 9.65984C5.15812 9.78746 5.54667 9.99317 5.79809 10.277C6.04951 10.5608 6.17522 10.9303 6.17522 11.3817C6.17522 11.7207 6.11046 12.0369 5.97904 12.3283C5.84762 12.6197 5.65524 12.875 5.40192 13.0902C5.14859 13.3073 4.83622 13.4769 4.46481 13.5988C4.09339 13.7207 3.66864 13.7816 3.19056 13.7816H0.0078125V5.81616H2.93914H2.93343Z" fill="#0CA49D"/>
<path d="M11.7278 7.43307C11.6726 7.52069 11.6154 7.58545 11.5564 7.62926C11.4954 7.67307 11.4193 7.69402 11.324 7.69402C11.2402 7.69402 11.1507 7.66735 11.0536 7.61402C10.9564 7.56069 10.8478 7.50164 10.7259 7.43688C10.604 7.37212 10.465 7.31117 10.3069 7.25975C10.1507 7.20641 9.97168 7.17975 9.77169 7.17975C9.42503 7.17975 9.1679 7.25403 8.99838 7.40069C8.82886 7.54736 8.74315 7.74735 8.74315 7.99877C8.74315 8.15876 8.79458 8.29209 8.89553 8.39876C8.99838 8.50542 9.13171 8.59494 9.29742 8.67303C9.46313 8.74922 9.6536 8.81969 9.86692 8.88445C10.0803 8.94921 10.2974 9.01969 10.5202 9.09778C10.7431 9.17587 10.9602 9.2673 11.1735 9.37396C11.3869 9.48062 11.5773 9.61395 11.7431 9.77776C11.9088 9.94156 12.0421 10.1416 12.1449 10.3758C12.2478 10.6101 12.2973 10.8939 12.2973 11.2253C12.2973 11.5929 12.2345 11.9377 12.1068 12.2577C11.9792 12.5777 11.7945 12.8577 11.5507 13.0976C11.3088 13.3357 11.0097 13.5243 10.6536 13.6614C10.2974 13.7986 9.89359 13.8671 9.44218 13.8671C9.19457 13.8671 8.94124 13.8424 8.68411 13.791C8.42697 13.7395 8.17746 13.6672 7.93747 13.5757C7.69747 13.4824 7.47081 13.3719 7.25939 13.2443C7.04797 13.1167 6.86322 12.9738 6.70703 12.8177L7.25368 11.9548C7.29749 11.892 7.35463 11.8405 7.4251 11.7986C7.49558 11.7567 7.57367 11.7358 7.65748 11.7358C7.76604 11.7358 7.87652 11.7701 7.98889 11.8405C8.09936 11.9091 8.22508 11.9872 8.36602 12.071C8.50697 12.1548 8.66696 12.231 8.84982 12.3015C9.03267 12.3701 9.2479 12.4062 9.49551 12.4062C9.83073 12.4062 10.0917 12.332 10.2783 12.1853C10.465 12.0367 10.5564 11.8044 10.5564 11.4825C10.5564 11.2958 10.505 11.1453 10.404 11.0291C10.3012 10.913 10.1679 10.8158 10.0022 10.7396C9.83645 10.6634 9.64788 10.5949 9.43646 10.5377C9.22504 10.4787 9.00791 10.4139 8.78506 10.3435C8.56221 10.273 8.34507 10.1854 8.13365 10.0806C7.92223 9.97585 7.73366 9.84061 7.56795 9.67109C7.40225 9.50158 7.26701 9.29015 7.16606 9.03683C7.06321 8.7835 7.01369 8.47113 7.01369 8.09972C7.01369 7.80068 7.07464 7.50926 7.19463 7.22546C7.31463 6.94166 7.49177 6.68834 7.72604 6.46549C7.96032 6.24264 8.24603 6.0655 8.58506 5.93217C8.9241 5.79884 9.31266 5.73218 9.75074 5.73218C9.99454 5.73218 10.2326 5.75122 10.465 5.78932C10.6974 5.82741 10.9164 5.88455 11.124 5.95884C11.3316 6.03312 11.5259 6.12264 11.7069 6.2274C11.8878 6.33216 12.0478 6.44834 12.1907 6.57977L11.7316 7.43879L11.7278 7.43307Z" fill="#0CA49D"/>
<path d="M15.4914 2.69809C15.4876 2.63142 15.48 2.56476 15.4705 2.5C15.9009 2.94379 16.5142 3.20283 17.179 3.16093C17.4971 3.13998 17.7942 3.05236 18.059 2.91332C17.8532 3.2714 17.7466 3.69234 17.7752 4.13614C17.8094 4.68469 18.0456 5.17229 18.4037 5.53418C18.2209 5.49799 18.0285 5.48276 17.8323 5.49609C17.0552 5.54561 16.3981 5.99512 16.0514 6.63129C15.9143 5.69037 15.1848 4.95896 14.2705 4.79707C15.0419 4.41994 15.5505 3.60472 15.4933 2.69618L15.4914 2.69809Z" fill="#F9AD3C"/>
<path d="M18.7863 10.5493C18.8739 10.5493 18.9501 10.5397 19.013 10.5188C19.0758 10.4978 19.1291 10.4712 19.1691 10.435C19.211 10.3988 19.2415 10.355 19.2606 10.3036C19.2796 10.2521 19.2891 10.1969 19.2891 10.1359C19.2891 10.0178 19.2472 9.92452 19.1634 9.85785C19.0796 9.78928 18.9539 9.755 18.7863 9.755H18.293V10.5493H18.7863ZM18.293 8.75694V9.53405H18.7006C18.7882 9.53405 18.8625 9.52453 18.9272 9.50548C18.992 9.48644 19.0453 9.45977 19.0872 9.42548C19.1291 9.3912 19.1615 9.3512 19.1806 9.30358C19.2015 9.25406 19.211 9.20264 19.211 9.14359C19.211 9.00836 19.171 8.91122 19.0891 8.84836C19.0091 8.78551 18.8834 8.75503 18.7139 8.75503H18.293V8.75694ZM18.7139 8.51314C18.8549 8.51314 18.9749 8.52647 19.0758 8.55504C19.1768 8.5817 19.2606 8.6217 19.3253 8.67313C19.392 8.72456 19.4396 8.78741 19.4701 8.86169C19.5006 8.93407 19.5158 9.01788 19.5158 9.10931C19.5158 9.16645 19.5063 9.21978 19.4891 9.2712C19.472 9.32263 19.4453 9.37025 19.411 9.41406C19.3768 9.45786 19.331 9.49977 19.2777 9.53405C19.2244 9.56834 19.1615 9.59691 19.0891 9.61976C19.2568 9.65214 19.3825 9.71119 19.4663 9.79881C19.552 9.88642 19.5939 10.0007 19.5939 10.1417C19.5939 10.2388 19.5767 10.3264 19.5406 10.4064C19.5063 10.4864 19.4529 10.555 19.3844 10.6121C19.3158 10.6693 19.232 10.7131 19.133 10.7454C19.0339 10.7759 18.9196 10.7912 18.792 10.7912H17.9863V8.51123H18.7139V8.51314Z" fill="#0CA49D"/>
<path d="M21.2228 9.94742L20.8647 9.01983C20.8533 8.99317 20.8438 8.96079 20.8305 8.9246C20.819 8.88841 20.8076 8.84841 20.7962 8.80651C20.7733 8.89222 20.7505 8.9646 20.7276 9.02174L20.3695 9.94742H21.2209H21.2228ZM21.8647 10.7931H21.6266C21.598 10.7931 21.5771 10.7855 21.56 10.7722C21.5428 10.7588 21.5295 10.7417 21.5219 10.7188L21.3085 10.1684H20.2857L20.0724 10.7188C20.0667 10.7379 20.0533 10.755 20.0362 10.7702C20.0191 10.7855 19.9962 10.7931 19.9695 10.7931H19.7314L20.6438 8.51318H20.9562L21.8685 10.7931H21.8647Z" fill="#0CA49D"/>
<path d="M24.0107 8.51509V10.795H23.8564C23.8317 10.795 23.8107 10.7912 23.7936 10.7817C23.7783 10.7741 23.7612 10.7588 23.7459 10.7379L22.4279 9.01983C22.4298 9.0465 22.4317 9.07316 22.4336 9.09793C22.4355 9.12269 22.4355 9.14745 22.4355 9.1703V10.795H22.165V8.51509H22.325C22.3384 8.51509 22.3498 8.51699 22.3593 8.5189C22.3688 8.5208 22.3765 8.52271 22.3841 8.52652C22.3917 8.53033 22.3993 8.53414 22.4069 8.54175C22.4146 8.54747 22.4222 8.55699 22.4317 8.56652L23.7498 10.2826C23.7478 10.2541 23.7459 10.2293 23.744 10.2027C23.7421 10.176 23.7421 10.1512 23.7421 10.1284V8.51318H24.0126L24.0107 8.51509Z" fill="#0CA49D"/>
<path d="M24.9023 9.51315H25.0185C25.0585 9.51315 25.0909 9.50743 25.1156 9.49791C25.1404 9.48648 25.1633 9.46934 25.1823 9.44458L25.9404 8.58556C25.9613 8.55699 25.9842 8.53794 26.007 8.52842C26.0299 8.51699 26.0585 8.51318 26.0927 8.51318H26.3537L25.4851 9.4941C25.4642 9.51886 25.4432 9.54172 25.4223 9.55696C25.4032 9.57219 25.3823 9.58553 25.3594 9.59695C25.388 9.60648 25.4147 9.61981 25.4375 9.64076C25.4604 9.65791 25.4832 9.68267 25.5061 9.71314L26.4127 10.7931H26.1461C26.1251 10.7931 26.108 10.7912 26.0927 10.7893C26.0794 10.7855 26.0661 10.7817 26.0566 10.776C26.0451 10.7702 26.0356 10.7626 26.028 10.755C26.0204 10.7474 26.0127 10.7379 26.0051 10.7264L25.2185 9.82171C25.1975 9.79504 25.1747 9.776 25.1499 9.76647C25.1252 9.75504 25.089 9.74933 25.0394 9.74933H24.9004V10.7931H24.5938V8.51318H24.9004V9.51315H24.9023Z" fill="#0CA49D"/>
<path d="M28.6814 8.87117C28.6719 8.88641 28.6604 8.89974 28.649 8.90736C28.6376 8.91498 28.6242 8.91879 28.609 8.91879C28.5919 8.91879 28.569 8.90927 28.5462 8.89213C28.5214 8.87498 28.4909 8.85403 28.4547 8.83308C28.4185 8.81022 28.3747 8.79118 28.3233 8.77213C28.2719 8.75308 28.2109 8.74546 28.1366 8.74546C28.0681 8.74546 28.0071 8.75499 27.9538 8.77403C27.9024 8.79118 27.8586 8.81784 27.8224 8.84832C27.7881 8.8807 27.7614 8.91689 27.7424 8.96069C27.7252 9.0026 27.7157 9.04831 27.7157 9.09974C27.7157 9.16259 27.7309 9.21592 27.7614 9.25973C27.7938 9.30163 27.8338 9.33592 27.8852 9.36639C27.9366 9.39687 27.9957 9.42163 28.0605 9.44449C28.1271 9.46544 28.1938 9.48829 28.2604 9.51115C28.329 9.53401 28.3957 9.56067 28.4604 9.59115C28.5271 9.61972 28.5842 9.65591 28.6357 9.70162C28.6871 9.74543 28.729 9.80067 28.7595 9.86542C28.7919 9.93018 28.8071 10.0102 28.8071 10.1035C28.8071 10.2026 28.79 10.2978 28.7557 10.3854C28.7214 10.473 28.6719 10.5473 28.6052 10.6121C28.5404 10.6768 28.4604 10.7283 28.3652 10.7644C28.27 10.8006 28.1633 10.8197 28.0414 10.8197C27.8928 10.8197 27.7576 10.793 27.6376 10.7397C27.5176 10.6863 27.4129 10.6121 27.3271 10.5225L27.4167 10.3759C27.4243 10.3645 27.4357 10.3549 27.4471 10.3473C27.4605 10.3397 27.4738 10.334 27.489 10.334C27.5024 10.334 27.5176 10.3397 27.5348 10.3511C27.5519 10.3626 27.5729 10.3759 27.5957 10.393C27.6186 10.4102 27.6433 10.4292 27.6719 10.4483C27.7005 10.4692 27.7328 10.4864 27.769 10.5035C27.8052 10.5206 27.8471 10.534 27.8947 10.5473C27.9424 10.5587 27.9938 10.5625 28.0528 10.5625C28.1252 10.5625 28.1919 10.553 28.249 10.5321C28.3062 10.5111 28.3538 10.4845 28.3938 10.4483C28.4338 10.4121 28.4642 10.3664 28.4852 10.3168C28.5062 10.2654 28.5176 10.2083 28.5176 10.1473C28.5176 10.0788 28.5023 10.0216 28.47 9.9778C28.4395 9.93399 28.3976 9.8959 28.3481 9.86733C28.2966 9.83685 28.2395 9.81209 28.1728 9.79305C28.1062 9.77209 28.0395 9.75114 27.9728 9.73019C27.9043 9.70733 27.8376 9.68257 27.7728 9.654C27.7062 9.62543 27.649 9.58734 27.5976 9.54353C27.5462 9.49782 27.5062 9.44068 27.4738 9.37401C27.4433 9.30544 27.4281 9.21973 27.4281 9.11878C27.4281 9.03879 27.4433 8.96069 27.4738 8.88451C27.5062 8.80832 27.5519 8.74165 27.6109 8.68451C27.6719 8.62547 27.7443 8.57976 27.8319 8.54357C27.9195 8.50928 28.0205 8.49023 28.1347 8.49023C28.2624 8.49023 28.3785 8.51119 28.4814 8.55118C28.5861 8.59118 28.6795 8.65023 28.7576 8.72642L28.6833 8.87308L28.6814 8.87117Z" fill="#0CA49D"/>
<path d="M30.0529 9.88652V10.7951H29.7444V9.88652L28.9082 8.51514H29.1787C29.2053 8.51514 29.2282 8.52276 29.2434 8.53609C29.2587 8.54942 29.2739 8.56656 29.2853 8.58752L29.8072 9.4732C29.8263 9.5113 29.8434 9.54558 29.8605 9.57796C29.8758 9.61034 29.891 9.64272 29.9025 9.6751C29.9139 9.64272 29.9272 9.61034 29.9425 9.57796C29.9577 9.54558 29.9729 9.50939 29.992 9.4732L30.512 8.58752C30.5215 8.57037 30.5348 8.55323 30.552 8.53799C30.5691 8.52276 30.59 8.51514 30.6167 8.51514H30.8891L30.0529 9.88652Z" fill="#0CA49D"/>
<path d="M32.1691 9.94742L31.811 9.01983C31.7996 8.99317 31.7901 8.96079 31.7767 8.9246C31.7653 8.88841 31.7539 8.84841 31.7425 8.80651C31.7196 8.89222 31.6967 8.9646 31.6739 9.02174L31.3158 9.94742H32.1672H32.1691ZM32.811 10.7931H32.5729C32.5443 10.7931 32.5234 10.7855 32.5062 10.7722C32.4891 10.7588 32.4758 10.7417 32.4682 10.7188L32.2548 10.1684H31.232L31.0187 10.7188C31.013 10.7379 30.9996 10.755 30.9825 10.7702C30.9653 10.7855 30.9425 10.7931 30.9158 10.7931H30.6777L31.5901 8.51318H31.9025L32.8148 10.7931H32.811Z" fill="#0CA49D"/>
<path d="M33.7437 9.61791C33.8332 9.61791 33.9113 9.60648 33.9799 9.58553C34.0484 9.56267 34.1056 9.5322 34.1513 9.4941C34.1989 9.4541 34.2332 9.40649 34.2561 9.35125C34.2789 9.29601 34.2903 9.23506 34.2903 9.1684C34.2903 9.03317 34.2465 8.93031 34.157 8.86174C34.0675 8.79317 33.9342 8.75889 33.7551 8.75889H33.418V9.61981H33.7418L33.7437 9.61791ZM34.797 10.7931H34.5227C34.4656 10.7931 34.4256 10.7722 34.3989 10.7283L33.8065 9.91313C33.7894 9.88837 33.7684 9.86933 33.7475 9.8598C33.7265 9.84837 33.6961 9.84266 33.6523 9.84266H33.418V10.7931H33.1113V8.51318H33.7551C33.8999 8.51318 34.0237 8.52842 34.1284 8.55699C34.2332 8.58556 34.3208 8.62747 34.3875 8.6827C34.456 8.73794 34.5075 8.8046 34.5399 8.88269C34.5722 8.96079 34.5894 9.0465 34.5894 9.14364C34.5894 9.22363 34.576 9.29982 34.5513 9.3703C34.5265 9.44077 34.4884 9.50362 34.4408 9.55886C34.3932 9.6141 34.3341 9.66171 34.2637 9.69981C34.1951 9.73981 34.117 9.76838 34.0275 9.78933C34.0675 9.81219 34.0999 9.84457 34.1284 9.88647L34.7932 10.7912L34.797 10.7931Z" fill="#0CA49D"/>
<path d="M35.4159 10.7951H35.1055V8.51514H35.4159V10.7951Z" fill="#0CA49D"/>
<path d="M37.2082 9.94742L36.8501 9.01983C36.8387 8.99317 36.8291 8.96079 36.8158 8.9246C36.8044 8.88841 36.793 8.84841 36.7815 8.80651C36.7587 8.89222 36.7358 8.9646 36.713 9.02174L36.3549 9.94742H37.2063H37.2082ZM37.8501 10.7931H37.612C37.5853 10.7931 37.5625 10.7855 37.5453 10.7722C37.5282 10.7588 37.5148 10.7417 37.5072 10.7188L37.2939 10.1684H36.2711L36.0577 10.7188C36.052 10.7379 36.0387 10.755 36.0215 10.7702C36.0044 10.7855 35.9816 10.7931 35.9549 10.7931H35.7168L36.6291 8.51318H36.9415L37.8539 10.7931H37.8501Z" fill="#0CA49D"/>
<path d="M39.9989 8.51514V10.7951H39.6904V9.757H38.4599V10.7951H38.1514V8.51514H38.4599V9.53225H39.6904V8.51514H39.9989Z" fill="#0CA49D"/>
<path d="M18.2929 13.8007H17.9844V11.5208H18.2929V13.8007Z" fill="#0CA49D"/>
<path d="M20.7236 11.5207V13.8006H20.5693C20.5445 13.8006 20.5236 13.7968 20.5064 13.7873C20.4912 13.7797 20.4741 13.7644 20.4588 13.7435L19.1408 12.0254C19.1427 12.0521 19.1446 12.0788 19.1465 12.1035C19.1484 12.1283 19.1484 12.1531 19.1484 12.1759V13.8006H18.8779V11.5207H19.0379C19.0513 11.5207 19.0627 11.5226 19.0722 11.5245C19.0817 11.5264 19.0894 11.5283 19.097 11.5321C19.1046 11.5359 19.1122 11.5398 19.1198 11.5474C19.1274 11.5531 19.1351 11.5626 19.1446 11.5721L20.4626 13.2883C20.4607 13.2616 20.4588 13.2349 20.4569 13.2083C20.455 13.1816 20.455 13.1568 20.455 13.134V11.5188H20.7255L20.7236 11.5207Z" fill="#0CA49D"/>
<path d="M23.2827 12.6615C23.2827 12.8329 23.2561 12.9872 23.2008 13.1281C23.1475 13.2691 23.0694 13.3872 22.9723 13.4881C22.8732 13.5872 22.7551 13.6652 22.6161 13.7205C22.479 13.7738 22.3247 13.8024 22.1571 13.8024H21.3057V11.5225H22.1571C22.3247 11.5225 22.4771 11.5491 22.6161 11.6044C22.7551 11.6577 22.8732 11.7358 22.9723 11.8367C23.0713 11.9358 23.1475 12.0558 23.2008 12.1967C23.2542 12.3377 23.2827 12.492 23.2827 12.6634V12.6615ZM22.9666 12.6615C22.9666 12.5205 22.9475 12.3967 22.9094 12.2862C22.8713 12.1758 22.818 12.0824 22.7475 12.0063C22.677 11.9301 22.5932 11.871 22.4923 11.831C22.3932 11.791 22.2809 11.7701 22.159 11.7701H21.6161V13.551H22.159C22.2828 13.551 22.3932 13.53 22.4923 13.49C22.5913 13.45 22.677 13.391 22.7475 13.3167C22.818 13.2405 22.8713 13.1472 22.9094 13.0367C22.9475 12.9262 22.9666 12.8005 22.9666 12.6615Z" fill="#0CA49D"/>
<path d="M25.8334 12.6615C25.8334 12.8329 25.8068 12.9891 25.7515 13.132C25.6982 13.2748 25.622 13.3967 25.523 13.4996C25.4239 13.6024 25.3058 13.6824 25.1668 13.7396C25.0296 13.7967 24.8754 13.8234 24.7078 13.8234C24.5401 13.8234 24.3878 13.7948 24.2487 13.7396C24.1116 13.6824 23.9935 13.6024 23.8944 13.4996C23.7954 13.3967 23.7192 13.2748 23.6659 13.132C23.6126 12.9891 23.584 12.831 23.584 12.6615C23.584 12.4901 23.6107 12.3339 23.6659 12.193C23.7192 12.0501 23.7954 11.9263 23.8944 11.8235C23.9935 11.7187 24.1116 11.6387 24.2487 11.5816C24.3859 11.5244 24.5401 11.4958 24.7078 11.4958C24.8754 11.4958 25.0277 11.5244 25.1668 11.5816C25.3058 11.6387 25.4239 11.7187 25.523 11.8235C25.622 11.9263 25.6982 12.0501 25.7515 12.193C25.8049 12.3358 25.8334 12.492 25.8334 12.6615ZM25.5172 12.6615C25.5172 12.5206 25.4982 12.3968 25.4601 12.2844C25.422 12.1739 25.3687 12.0787 25.2982 12.0025C25.2277 11.9244 25.1439 11.8654 25.043 11.8235C24.9439 11.7816 24.8316 11.7606 24.7097 11.7606C24.5878 11.7606 24.4773 11.7816 24.3763 11.8235C24.2773 11.8654 24.1916 11.9244 24.1211 12.0025C24.0506 12.0787 23.9973 12.172 23.9592 12.2844C23.9211 12.3949 23.9021 12.5206 23.9021 12.6615C23.9021 12.8006 23.9211 12.9263 23.9592 13.0387C23.9973 13.1491 24.0506 13.2425 24.1211 13.3205C24.1916 13.3967 24.2773 13.4558 24.3763 13.4977C24.4754 13.5377 24.5878 13.5586 24.7097 13.5586C24.8335 13.5586 24.9439 13.5377 25.043 13.4977C25.142 13.4558 25.2277 13.3967 25.2982 13.3205C25.3687 13.2425 25.422 13.1491 25.4601 13.0387C25.4982 12.9282 25.5172 12.8025 25.5172 12.6615Z" fill="#0CA49D"/>
<path d="M28.123 11.5207V13.8006H27.9687C27.944 13.8006 27.923 13.7968 27.9059 13.7873C27.8906 13.7797 27.8735 13.7644 27.8582 13.7435L26.5402 12.0254C26.5421 12.0521 26.544 12.0788 26.5459 12.1035C26.5478 12.1283 26.5478 12.1531 26.5478 12.1759V13.8006H26.2773V11.5207H26.4373C26.4507 11.5207 26.4621 11.5226 26.4716 11.5245C26.4811 11.5264 26.4888 11.5283 26.4964 11.5321C26.504 11.5359 26.5116 11.5398 26.5192 11.5474C26.5269 11.5531 26.5345 11.5626 26.544 11.5721L27.862 13.2883C27.8601 13.2616 27.8582 13.2349 27.8563 13.2083C27.8544 13.1816 27.8544 13.1568 27.8544 13.134V11.5188H28.1249L28.123 11.5207Z" fill="#0CA49D"/>
<path d="M30.1117 13.5493L30.1098 13.8007H28.7061V11.5208H30.1098V11.7722H29.0146V12.5283H29.9022V12.7702H29.0146V13.5493H30.1117Z" fill="#0CA49D"/>
<path d="M31.7078 11.8768C31.6982 11.892 31.6868 11.9054 31.6754 11.913C31.6639 11.9206 31.6506 11.9244 31.6354 11.9244C31.6182 11.9244 31.5954 11.9149 31.5725 11.8977C31.5478 11.8806 31.5173 11.8596 31.4811 11.8387C31.4449 11.8158 31.4011 11.7968 31.3497 11.7777C31.2982 11.7606 31.2373 11.7511 31.163 11.7511C31.0944 11.7511 31.0335 11.7606 30.9802 11.7796C30.9287 11.7968 30.8849 11.8235 30.8487 11.8539C30.8145 11.8863 30.7878 11.9225 30.7687 11.9663C30.7516 12.0082 30.7421 12.0558 30.7421 12.1054C30.7421 12.1682 30.7573 12.2215 30.7878 12.2653C30.8202 12.3073 30.8602 12.3415 30.9116 12.372C30.963 12.4025 31.0221 12.4272 31.0868 12.4501C31.1535 12.4711 31.2202 12.4939 31.2868 12.5168C31.3554 12.5396 31.422 12.5663 31.4868 12.5968C31.5535 12.6253 31.6106 12.6615 31.662 12.7072C31.7135 12.751 31.7554 12.8063 31.7858 12.871C31.8182 12.9358 31.8335 13.0158 31.8335 13.1091C31.8335 13.2082 31.8163 13.3034 31.782 13.391C31.7478 13.4786 31.6982 13.5529 31.6316 13.6177C31.5668 13.6824 31.4868 13.7339 31.3916 13.7701C31.2963 13.8062 31.1897 13.8253 31.0678 13.8253C30.9192 13.8253 30.784 13.7986 30.664 13.7453C30.544 13.692 30.4392 13.6177 30.3535 13.5282L30.443 13.3815C30.4507 13.3701 30.4621 13.3605 30.4735 13.3529C30.4868 13.3453 30.5002 13.3396 30.5154 13.3396C30.5287 13.3396 30.544 13.3453 30.5611 13.3567C30.5802 13.3682 30.5992 13.3815 30.6221 13.3986C30.6449 13.4158 30.6697 13.4348 30.6983 13.4539C30.7268 13.4748 30.7592 13.492 30.7954 13.5091C30.8316 13.5263 30.8735 13.5396 30.9211 13.5529C30.9687 13.5644 31.0202 13.5682 31.0792 13.5682C31.1516 13.5682 31.2182 13.5586 31.2754 13.5377C31.3325 13.5167 31.3801 13.4901 31.4201 13.4539C31.4601 13.4158 31.4906 13.372 31.5116 13.3225C31.5325 13.271 31.544 13.2139 31.544 13.1529C31.544 13.0844 31.5287 13.0272 31.4963 12.9834C31.4659 12.9396 31.424 12.9015 31.3744 12.8729C31.323 12.8425 31.2659 12.8177 31.1992 12.7987C31.1325 12.7777 31.0659 12.7568 30.9992 12.7358C30.9306 12.713 30.864 12.6882 30.7992 12.6596C30.7325 12.631 30.6754 12.593 30.624 12.5491C30.5726 12.5034 30.5326 12.4463 30.5002 12.3796C30.4697 12.3111 30.4545 12.2253 30.4545 12.1244C30.4545 12.0444 30.4697 11.9663 30.5002 11.8901C30.5326 11.8139 30.5783 11.7473 30.6373 11.6901C30.6983 11.6311 30.7706 11.5854 30.8583 11.5492C30.9459 11.5149 31.0468 11.4958 31.1611 11.4958C31.2887 11.4958 31.4049 11.5168 31.5078 11.5568C31.6125 11.5968 31.7058 11.6558 31.7839 11.732L31.7097 11.8787L31.7078 11.8768Z" fill="#0CA49D"/>
<path d="M32.5781 13.8007H32.2695V11.5208H32.5781V13.8007Z" fill="#0CA49D"/>
<path d="M34.3722 12.953L34.0142 12.0254C34.0027 11.9969 33.9932 11.9664 33.9799 11.9302C33.9684 11.894 33.957 11.854 33.9456 11.8121C33.9227 11.8978 33.8999 11.9702 33.877 12.0274L33.5189 12.953H34.3703H34.3722ZM35.0141 13.7987H34.776C34.7475 13.7987 34.7265 13.7911 34.7094 13.7778C34.6922 13.7644 34.6789 13.7473 34.6713 13.7244L34.458 13.174H33.4351L33.2218 13.7244C33.2161 13.7435 33.2028 13.7606 33.1856 13.7759C33.1685 13.7911 33.1456 13.7987 33.1189 13.7987H32.8809L33.7932 11.5188H34.1056L35.0179 13.7987H35.0141Z" fill="#0CA49D"/>
</g>
<defs>
<clipPath id="clip0_578_8948">
<rect width="40" height="11.3691" fill="white" transform="translate(0 2.5)"/>
</clipPath>
</defs>
</svg>
