<svg width="40" height="16" viewBox="0 0 40 16" fill="none" xmlns="http://www.w3.org/2000/svg">
<g clip-path="url(#clip0_578_8913)">
<path fill-rule="evenodd" clip-rule="evenodd" d="M6.67897 10.6716H0V4.50635H6.67897V10.6716Z" fill="#83242C"/>
<path fill-rule="evenodd" clip-rule="evenodd" d="M0.841797 5.58105H4.42045L6.20977 7.57707L4.42045 9.76205H0.841797L2.4451 7.57707L0.841797 5.58105Z" fill="#E6262C"/>
<path fill-rule="evenodd" clip-rule="evenodd" d="M6.20977 7.57707L4.42045 5.58105H0.841797L2.4451 7.57707H6.20977Z" fill="#FEFEFE"/>
<path d="M11.2028 6.72382C11.0198 6.50532 10.7511 6.38426 10.4086 6.38426C9.70879 6.38426 9.19207 6.94822 9.19207 7.72183C9.19207 8.49543 9.70879 9.05939 10.379 9.05939C10.754 9.05939 11.0552 8.89404 11.2442 8.61354L12.0148 9.18341C11.6635 9.6765 11.07 9.90386 10.4972 9.90386C9.18616 9.90386 8.22949 9.05349 8.22949 7.72183C8.22949 6.39017 9.18616 5.53979 10.4972 5.53979C10.9666 5.53979 11.5601 5.69924 11.9144 6.151L11.2028 6.72677V6.72382Z" fill="#83242C"/>
<path d="M12.5078 5.64307H13.435V9.79749H12.5078V5.64307Z" fill="#83242C"/>
<path d="M14.2764 5.64307H15.6759L16.6444 8.35363H16.6562L17.6306 5.64307H19.0243V9.79749H18.0971V6.61155H18.0853L16.984 9.79749H16.2753L15.2153 6.61155H15.2035V9.79749H14.2764V5.64307Z" fill="#83242C"/>
<path d="M19.877 5.64307H21.4419C22.1771 5.64307 22.9803 5.79661 22.9803 6.70013C22.9803 7.1637 22.6909 7.47964 22.2568 7.61546V7.62727C22.809 7.69813 23.1751 8.10265 23.1751 8.64299C23.1751 9.51108 22.3454 9.80044 21.5954 9.80044H19.874V5.64602L19.877 5.64307ZM20.8012 7.30543H21.4714C21.7549 7.30543 22.0531 7.18732 22.0531 6.85367C22.0531 6.5082 21.7195 6.41962 21.4301 6.41962H20.8012V7.30543ZM20.8012 9.02389H21.6309C21.9202 9.02389 22.248 8.89988 22.248 8.5367C22.248 8.14399 21.8021 8.07903 21.501 8.07903H20.8012V9.02389Z" fill="#83242C"/>
<path d="M24.46 5.64307H25.6706C26.3113 5.64307 27.0229 5.80251 27.0229 6.74146C27.0229 7.1637 26.769 7.50326 26.27 7.60365V7.61546C26.8221 7.6568 27.2089 8.05541 27.2089 8.63709C27.2089 9.59376 26.3733 9.80044 25.8034 9.80044H24.4629V5.64602L24.46 5.64307ZM24.8527 7.4383H25.6647C26.4766 7.4383 26.6331 6.99835 26.6331 6.73851C26.6331 6.15683 26.2168 5.99444 25.7208 5.99444H24.8556V7.4383H24.8527ZM24.8527 9.44612H25.7473C26.6686 9.44612 26.8162 8.94121 26.8162 8.6489C26.8162 8.03179 26.3054 7.79262 25.8064 7.79262H24.8497V9.44907L24.8527 9.44612Z" fill="#83242C"/>
<path d="M29.485 5.64307H29.8895L31.6582 9.79749H31.2182L30.7606 8.69319H28.5342L28.0589 9.79749H27.6484L29.4821 5.64307H29.485ZM29.6681 6.0653L28.6878 8.34182H30.6159L29.6651 6.0653H29.6681Z" fill="#83242C"/>
<path d="M32.2607 5.64307H32.7657L35.3227 9.28077H35.3345V5.64307H35.7272V9.79749H35.2223L32.6653 6.15979H32.6534V9.79749H32.2607V5.64307Z" fill="#83242C"/>
<path d="M36.8789 5.64307H37.2687V7.47373H37.3041L39.3414 5.64307H39.8788L37.7559 7.54459L39.9999 9.79749H39.4359L37.3041 7.65089H37.2687V9.79749H36.8789V5.64307Z" fill="#83242C"/>
</g>
<defs>
<clipPath id="clip0_578_8913">
<rect width="40" height="6.17497" fill="white" transform="translate(0 4.5)"/>
</clipPath>
</defs>
</svg>
