<svg width="40" height="16" viewBox="0 0 40 16" fill="none" xmlns="http://www.w3.org/2000/svg">
<g clip-path="url(#clip0_578_8931)">
<path d="M4.93359 10.8804L4.90473 10.9084C4.43944 11.3824 3.90089 11.6337 3.34596 11.6337C2.18763 11.6337 1.3468 10.7647 1.3468 9.56573C1.3468 8.36891 2.18763 7.49871 3.34596 7.49871C3.90089 7.49871 4.43944 7.75098 4.90473 8.22631L4.93359 8.25506L5.67853 7.35431L5.65862 7.32988C5.03911 6.59777 4.29577 6.2414 3.38193 6.2414C2.46491 6.2414 1.62665 6.55001 1.0225 7.10656C0.366104 7.70927 0.0195312 8.55926 0.0195312 9.56572C0.0195312 10.5717 0.366104 11.4238 1.0225 12.0266C1.62664 12.5858 2.46491 12.8927 3.38193 12.8927C4.29577 12.8927 5.03911 12.5365 5.65862 11.8041L5.67853 11.7814L4.93359 10.8804ZM6.43129 12.7701H7.74732V6.34577H6.43129V12.7701ZM12.9022 11.3732C12.5511 11.587 12.2244 11.6944 11.931 11.6944C11.5058 11.6944 11.3136 11.47 11.3136 10.9702V7.5614H12.6539V6.35163H11.3136V4.35269L10.0238 5.04298V6.35163H8.911V7.5614H10.0238V11.1876C10.0238 12.1756 10.609 12.8505 11.4826 12.868C12.0758 12.8797 12.4333 12.703 12.6505 12.5738L12.6633 12.5643L12.9801 11.3256L12.9022 11.3732ZM13.9922 12.7701H15.3091V6.34577H13.9922V12.7701ZM36.2982 3.90137V10.0295L36.7082 9.3914C36.7078 9.39423 38.55 6.7267 38.786 6.38657H39.607C39.4323 6.62136 37.9839 8.61466 37.9839 8.61466C37.9839 8.61466 39.8706 12.5461 39.9796 12.7701H39.1734C39.129 12.6784 37.5083 9.24719 37.5083 9.24719L36.2982 10.9426V12.7701H35.5471V4.3303C35.6128 4.29258 36.1214 4.00101 36.2982 3.90137ZM30.1282 7.14762C30.5156 6.56841 31.1226 6.24906 31.8328 6.24906C33.249 6.24906 33.9995 7.15225 33.9995 8.86137V12.7701H33.2465V9.02321C33.2465 7.56913 32.7416 6.89414 31.6478 6.89414C30.601 6.89414 29.9759 7.69038 29.9759 9.02322V12.7701H29.225V6.38657H29.9759V7.37648L30.1282 7.14762ZM25.5117 6.24906C26.969 6.24906 27.6774 6.91546 27.6774 8.2867V12.7701H26.9262V11.8388L26.7801 11.9999C26.2273 12.6098 25.5928 12.9081 24.8372 12.9081C24.2452 12.9081 22.8677 12.7121 22.8677 10.8948C22.8677 9.40945 24.0939 8.88222 25.2426 8.88222C25.8194 8.88222 26.3891 9.01503 26.8026 9.24672L26.9262 9.31524V8.39881C26.9262 7.38275 26.43 6.86818 25.4494 6.86818C24.8447 6.86818 24.2989 7.0208 23.7393 7.3362C23.69 7.22276 23.5164 6.83899 23.4681 6.72953C24.0529 6.42129 24.7752 6.24906 25.5117 6.24906H25.5117ZM23.6043 10.8323C23.6043 11.7866 24.0987 12.3124 24.997 12.3124C25.7616 12.3124 26.4406 11.9512 26.9121 11.2944L26.9262 11.2718V9.87228L26.8845 9.84811C26.4051 9.57479 25.914 9.46455 25.1923 9.46455C24.1988 9.46455 23.6043 9.97573 23.6043 10.8323ZM17.8044 3.90137V7.31619L17.9498 7.15697C18.503 6.54597 19.1153 6.24906 19.8193 6.24906C21.2281 6.24906 22.0367 7.42329 22.0367 9.47123C22.0367 11.5589 21.1183 12.9081 19.6964 12.9081C19.0036 12.9081 18.4488 12.6393 17.9506 12.0631L17.8044 11.8929V12.7701H17.0548V4.3303C17.1186 4.29258 17.6282 4.00101 17.8044 3.90137ZM17.8222 7.87239L17.8044 7.89595V11.2189L17.8178 11.2393C18.2321 11.8804 18.9071 12.2638 19.6255 12.2638C20.735 12.2638 21.2974 11.3287 21.2974 9.48484C21.2974 7.83765 20.6743 6.89414 19.588 6.89414C18.9295 6.89414 18.3354 7.22313 17.8222 7.87238" fill="#003B70"/>
<path fill-rule="evenodd" clip-rule="evenodd" d="M16.0975 5.20587C14.8928 3.49951 12.8922 2.48145 10.8567 2.48145C8.82204 2.48145 6.82103 3.49951 5.61834 5.20587L5.55664 5.29367H7.0735L7.09031 5.27545C8.12272 4.20989 9.47043 3.64637 10.8567 3.64637C12.2431 3.64637 13.5906 4.20988 14.625 5.27546L14.6418 5.29367H16.1581L16.0975 5.20587Z" fill="#D9261C"/>
</g>
<defs>
<clipPath id="clip0_578_8931">
<rect width="40" height="10.3896" fill="white" transform="translate(0 2.5)"/>
</clipPath>
</defs>
</svg>
