<svg width="32" height="32" viewBox="0 0 32 32" fill="none" xmlns="http://www.w3.org/2000/svg">
<g clip-path="url(#clip0_578_5462)">
<path fill-rule="evenodd" clip-rule="evenodd" d="M14.7337 0.0580535C9.34592 0.558497 4.97965 3.36027 2.32785 7.68501C0.604627 10.4951 -0.205395 13.8243 0.0443996 17.2409C0.655611 25.5994 7.96934 32.6761 17.3306 31.9475C25.7298 31.2936 32.6598 23.8728 31.9499 14.7457C31.6898 11.4041 30.5072 8.65005 28.6118 6.16323C27.7535 5.03731 27.5842 5.01894 26.6879 4.09716C25.5765 2.95375 23.2261 1.64116 21.7261 1.06042C19.7148 0.281461 17.1538 -0.166835 14.7337 0.0580535Z" fill="#108DE8"/>
<path fill-rule="evenodd" clip-rule="evenodd" d="M6.73381 11.3368C6.52957 11.916 6.65115 18.3566 6.65115 19.5513C6.65115 20.8437 6.3914 21.2473 8.45009 21.9388C13.9009 23.7696 19.2983 17.5619 24.7184 20.6334C24.9697 20.7756 25.2756 21.0674 25.3474 20.596L25.3495 12.3107C25.3498 11.4194 25.4309 11.1403 24.8291 10.7288C19.9789 7.41024 14.7275 13.0864 9.80615 12.4496C7.98489 12.2141 7.23068 11.3015 6.73381 11.3368Z" fill="white"/>
</g>
<defs>
<clipPath id="clip0_578_5462">
<rect width="32" height="31.9992" fill="white"/>
</clipPath>
</defs>
</svg>
