<svg width="40" height="16" viewBox="0 0 40 16" fill="none" xmlns="http://www.w3.org/2000/svg">
<g clip-path="url(#clip0_578_8892)">
<path fill-rule="evenodd" clip-rule="evenodd" d="M0 2.5L13.9128 5.57369H0V2.5Z" fill="#EA5B24"/>
<path fill-rule="evenodd" clip-rule="evenodd" d="M6.34863 2.5L13.9133 5.57369H6.34863V2.5Z" fill="#FDD100"/>
<path fill-rule="evenodd" clip-rule="evenodd" d="M39.9996 11.3195L13.9131 5.57373H39.9996V11.3195Z" fill="#F39910"/>
<path fill-rule="evenodd" clip-rule="evenodd" d="M29.7362 11.3195L13.9131 5.57373H29.7362V11.3195Z" fill="#FDD100"/>
<path d="M0.971415 9.14038V12.0103H1.38478C1.6889 12.0103 1.89854 11.9188 2.01369 11.7357C2.12885 11.5527 2.1879 11.1659 2.1879 10.5754C2.1879 9.98484 2.1318 9.59804 2.01369 9.41498C1.89854 9.23192 1.6889 9.14038 1.38478 9.14038H0.971415ZM0 8.51147H1.51175C2.10227 8.51147 2.51564 8.66501 2.7548 8.96913C2.99397 9.27325 3.11207 9.81358 3.11207 10.5872C3.11207 11.3578 2.99101 11.8952 2.7548 12.2023C2.51564 12.5093 2.09932 12.6599 1.51175 12.6599H0V8.51147ZM3.7646 10.5222V10.4661C3.7646 10.2151 3.8709 10.0232 4.08349 9.89331C4.29607 9.76339 4.60905 9.69843 5.01947 9.69843C5.42398 9.69843 5.72219 9.76634 5.91116 9.90216C6.10013 10.038 6.19462 10.2506 6.19462 10.5399V11.9808C6.19462 12.1078 6.20052 12.2288 6.20938 12.341C6.21824 12.4532 6.23595 12.5595 6.25662 12.6599H5.46236L5.39445 12.3292C5.31178 12.4326 5.19367 12.5182 5.03423 12.5832C4.87479 12.6481 4.70944 12.6806 4.53229 12.6806C4.2695 12.6806 4.05986 12.6009 3.90633 12.4385C3.75279 12.2761 3.67602 12.0576 3.67602 11.7771C3.67602 11.4523 3.78822 11.2131 4.00967 11.0566C4.23407 10.9002 4.59429 10.8086 5.09033 10.785H5.37378V10.6521C5.37378 10.4543 5.34721 10.3155 5.29111 10.2329C5.23501 10.1531 5.14348 10.1118 5.01652 10.1118C4.87479 10.1118 4.7685 10.1472 4.69763 10.2151C4.62677 10.2831 4.59134 10.3864 4.59134 10.5193H3.76165L3.7646 10.5222ZM5.37674 11.2249C5.0549 11.2249 4.83345 11.2633 4.7124 11.343C4.59134 11.4198 4.52933 11.5586 4.52933 11.7564C4.52933 11.8981 4.55886 12.0103 4.62086 12.0901C4.68287 12.1698 4.7685 12.2082 4.87479 12.2082C5.03718 12.2082 5.1612 12.1462 5.24682 12.0222C5.33245 11.8981 5.37674 11.718 5.37674 11.4848V11.2308V11.2249ZM7.76541 12.6599H6.86781V10.286C6.86781 10.1531 6.86486 10.0498 6.86191 9.97893C6.85896 9.90512 6.8501 9.83721 6.84124 9.7693H7.74179L7.76541 10.0675C7.83628 9.94645 7.93371 9.85492 8.05477 9.79292C8.17583 9.73091 8.31756 9.69843 8.47995 9.69843C8.7575 9.69843 8.97304 9.76339 9.12067 9.89331C9.2683 10.0232 9.34212 10.2122 9.34212 10.4602V12.6599H8.44452V10.6846C8.44452 10.4956 8.4209 10.3687 8.37661 10.2978C8.33232 10.227 8.25555 10.1915 8.1463 10.1915C8.03115 10.1915 7.93667 10.2299 7.86876 10.3037C7.80085 10.3775 7.76541 10.4779 7.76541 10.6019V12.657V12.6599ZM9.98579 10.5222V10.4661C9.98579 10.2151 10.0921 10.0232 10.3047 9.89331C10.5173 9.76339 10.8302 9.69843 11.2407 9.69843C11.6452 9.69843 11.9434 9.76634 12.1324 9.90216C12.3213 10.038 12.4158 10.2506 12.4158 10.5399V11.9808C12.4158 12.1078 12.4217 12.2288 12.4306 12.341C12.4394 12.4532 12.4571 12.5595 12.4778 12.6599H11.6836L11.6156 12.3292C11.533 12.4326 11.4149 12.5182 11.2554 12.5832C11.0989 12.6481 10.9306 12.6806 10.7535 12.6806C10.4907 12.6806 10.2811 12.6009 10.1275 12.4385C9.97398 12.2761 9.89721 12.0576 9.89721 11.7771C9.89721 11.4523 10.0094 11.2131 10.2309 11.0566C10.4553 10.9002 10.8155 10.8086 11.3115 10.785H11.595V10.6521C11.595 10.4543 11.5684 10.3155 11.5123 10.2329C11.4562 10.1531 11.3647 10.1118 11.2377 10.1118C11.096 10.1118 10.9897 10.1472 10.9188 10.2151C10.848 10.2831 10.8125 10.3864 10.8125 10.5193H9.98284L9.98579 10.5222ZM11.5979 11.2249C11.2761 11.2249 11.0546 11.2633 10.9336 11.343C10.8125 11.4198 10.7505 11.5586 10.7505 11.7564C10.7505 11.8981 10.78 12.0103 10.8421 12.0901C10.9041 12.1698 10.9897 12.2082 11.096 12.2082C11.2584 12.2082 11.3824 12.1462 11.468 12.0222C11.5536 11.8981 11.5979 11.718 11.5979 11.4848V11.2308V11.2249ZM13.9866 10.0675C14.0575 9.94645 14.1549 9.85492 14.276 9.79292C14.397 9.73091 14.5387 9.69843 14.7011 9.69843C14.9078 9.69843 15.082 9.73682 15.2238 9.81358C15.3655 9.89035 15.4629 9.9996 15.522 10.1443C15.6046 9.99665 15.7109 9.88445 15.8349 9.81063C15.9619 9.73682 16.1095 9.69843 16.2778 9.69843C16.5554 9.69843 16.7709 9.76339 16.9186 9.89331C17.0662 10.0232 17.14 10.2122 17.14 10.4602V12.6599H16.2424V10.6846C16.2424 10.4927 16.2217 10.3628 16.1775 10.2949C16.1332 10.227 16.0564 10.1915 15.9501 10.1915C15.8349 10.1915 15.7405 10.2299 15.6696 10.3037C15.5987 10.3775 15.5633 10.4779 15.5633 10.6019V12.657H14.6657V10.6817C14.6657 10.4927 14.6421 10.3657 14.5978 10.2949C14.5535 10.224 14.4767 10.1886 14.3675 10.1886C14.2523 10.1886 14.1579 10.227 14.0899 10.3008C14.022 10.3746 13.9866 10.475 13.9866 10.599V12.654H13.089V10.2801C13.089 10.1472 13.0861 10.0439 13.0831 9.97303C13.0801 9.89921 13.0713 9.8313 13.0624 9.76339H13.963L13.9866 10.0616V10.0675ZM19.0474 9.69843C19.508 9.69843 19.8417 9.81063 20.0424 10.035C20.2462 10.2594 20.3466 10.6315 20.3466 11.1511C20.3466 11.7564 20.2491 12.1698 20.0572 12.3942C19.8653 12.6156 19.5228 12.7278 19.0297 12.7278C18.5337 12.7278 18.1911 12.6156 17.9963 12.3912C17.8014 12.1698 17.7069 11.7535 17.7069 11.1511C17.7069 10.6285 17.8103 10.2565 18.0169 10.0321C18.2236 9.81063 18.5661 9.69843 19.0474 9.69843ZM18.6104 11.1866C18.6104 11.594 18.6399 11.8686 18.702 12.0103C18.764 12.1521 18.8732 12.2229 19.0297 12.2229C19.1862 12.2229 19.2954 12.1521 19.3574 12.0103C19.4165 11.8686 19.449 11.594 19.449 11.1866C19.449 10.788 19.4194 10.5252 19.3574 10.3982C19.2954 10.2712 19.1832 10.2092 19.0238 10.2092C18.8673 10.2092 18.7581 10.2712 18.699 10.4012C18.6399 10.5281 18.6104 10.7909 18.6104 11.1895V11.1866ZM21.8229 12.6599H20.9253V10.286C20.9253 10.1531 20.9223 10.0498 20.9194 9.97893C20.9164 9.90512 20.9076 9.83721 20.8987 9.7693H21.7993L21.8229 10.0675C21.8937 9.94645 21.9912 9.85492 22.1122 9.79292C22.2333 9.73091 22.375 9.69843 22.5374 9.69843C22.815 9.69843 23.0305 9.76339 23.1781 9.89331C23.3258 10.0232 23.3996 10.2122 23.3996 10.4602V12.6599H22.502V10.6846C22.502 10.4956 22.4784 10.3687 22.4341 10.2978C22.3898 10.227 22.313 10.1915 22.2038 10.1915C22.0886 10.1915 21.9941 10.2299 21.9262 10.3037C21.8583 10.3775 21.8229 10.4779 21.8229 10.6019V12.657V12.6599Z" fill="#007242"/>
<path fill-rule="evenodd" clip-rule="evenodd" d="M29.7362 9.06079L13.9131 5.57373H29.7362V9.06079Z" fill="#EA5B24"/>
<path fill-rule="evenodd" clip-rule="evenodd" d="M6.34863 3.90259L13.9133 5.57378H6.34863V3.90259Z" fill="#F39910"/>
</g>
<defs>
<clipPath id="clip0_578_8892">
<rect width="40" height="10.225" fill="white" transform="translate(0 2.5)"/>
</clipPath>
</defs>
</svg>
