<svg width="22" height="20" viewBox="0 0 22 20" fill="none" xmlns="http://www.w3.org/2000/svg">
<path d="M10.6465 7.85352C10.7401 7.94745 10.8674 8.00018 11 8C11.1326 8.00012 11.2598 7.94745 11.3535 7.85352L14.1035 5.10352C14.2906 4.90973 14.2906 4.6026 14.1035 4.40881C13.9116 4.21021 13.5951 4.20465 13.3965 4.39648L11.5 6.29303V0.5C11.5 0.223877 11.2761 0 11 0C10.7239 0 10.5 0.223877 10.5 0.5V6.29303L8.60345 4.39655C8.40973 4.20941 8.10254 4.20941 7.90875 4.39655C7.71014 4.58838 7.70465 4.90491 7.89648 5.10352L10.6465 7.85352ZM17 14.5C17.8281 14.4991 18.4991 13.8281 18.5 13C18.5 12.1716 17.8284 11.5 17 11.5C16.1716 11.5 15.5 12.1716 15.5 13C15.5 13.8284 16.1716 14.5 17 14.5ZM17 12.5C17.2759 12.5005 17.4995 12.7241 17.5 13C17.5 13.2761 17.2761 13.5 17 13.5C16.7239 13.5 16.5 13.2761 16.5 13C16.5 12.7239 16.7239 12.5 17 12.5ZM19 6H16.5C16.2239 6 16 6.22388 16 6.5C16 6.77612 16.2239 7 16.5 7H19C20.104 7.0014 20.9986 7.896 21 9V17C20.9986 18.104 20.104 18.9986 19 19H3C1.896 18.9986 1.0014 18.104 1 17V9C1.0014 7.896 1.896 7.0014 3 7H5.5C5.77612 7 6 6.77612 6 6.5C6 6.22388 5.77612 6 5.5 6H3C1.34387 6.00183 0.0018311 7.34387 0 9V17C0.0018311 18.6561 1.34387 19.9982 3 20H19C20.6561 19.9982 21.9982 18.6561 22 17V9C21.9982 7.34387 20.6561 6.00183 19 6ZM3.5 13C3.5 13.8284 4.17157 14.5 5 14.5C5.82806 14.4991 6.49908 13.8281 6.5 13C6.5 12.1716 5.82843 11.5 5 11.5C4.17157 11.5 3.5 12.1716 3.5 13ZM5.5 13C5.5 13.2761 5.27612 13.5 5 13.5C4.72388 13.5 4.5 13.2761 4.5 13C4.5 12.7239 4.72388 12.5 5 12.5C5.27594 12.5005 5.49945 12.7241 5.5 13ZM8.5 13C8.5 14.3807 9.61926 15.5 11 15.5C12.3802 15.4987 13.4987 14.3802 13.5 13C13.5 11.6193 12.3807 10.5 11 10.5C9.61926 10.5 8.5 11.6193 8.5 13ZM12.5 13C12.5 13.8284 11.8284 14.5 11 14.5C10.1716 14.5 9.5 13.8284 9.5 13C9.5 12.1716 10.1716 11.5 11 11.5C11.8281 11.5009 12.4991 12.1719 12.5 13Z" fill="#37D279"/>
</svg>
