<svg width="19" height="20" viewBox="0 0 19 20" fill="none" xmlns="http://www.w3.org/2000/svg">
<path d="M5.66241 11.6553C5.46521 11.8486 5.46204 12.1651 5.65527 12.3623L9.14648 15.8535C9.24011 15.9474 9.36737 16.0002 9.5 16C9.63263 16.0001 9.75983 15.9474 9.85352 15.8535L13.3447 12.3623C13.5352 12.1679 13.5352 11.8569 13.3447 11.6625C13.1514 11.4653 12.8349 11.462 12.6377 11.6553L10 14.293V0.5C10 0.223877 9.77612 0 9.5 0C9.22388 0 9 0.223877 9 0.5V14.293L6.36224 11.6553C6.16791 11.4648 5.85681 11.4648 5.66241 11.6553ZM15.5 7H14C13.7239 7 13.5 7.22388 13.5 7.5C13.5 7.77612 13.7239 8 14 8H15.5C16.604 8.0014 17.4986 8.896 17.5 10V17C17.4986 18.104 16.604 18.9986 15.5 19H3.5C2.396 18.9986 1.5014 18.104 1.5 17V10C1.5014 8.896 2.396 8.0014 3.5 8H6C6.27612 8 6.5 7.77612 6.5 7.5C6.5 7.22388 6.27612 7 6 7H3.5C1.84387 7.00183 0.501831 8.34387 0.5 10V17C0.501831 18.6561 1.84387 19.9982 3.5 20H15.5C17.1561 19.9982 18.4982 18.6561 18.5 17V10C18.4982 8.34387 17.1561 7.00183 15.5 7Z" fill="#129175"/>
</svg>
