<svg width="14" height="14" viewBox="0 0 14 14" fill="none" xmlns="http://www.w3.org/2000/svg">
<path d="M2.3335 11.0001H5.16016C5.2479 11.0006 5.33488 10.9838 5.4161 10.9506C5.49733 10.9175 5.5712 10.8686 5.6335 10.8068L10.2468 6.18679L12.1402 4.33346C12.2026 4.27148 12.2522 4.19775 12.2861 4.11651C12.3199 4.03527 12.3374 3.94813 12.3374 3.86012C12.3374 3.77211 12.3199 3.68498 12.2861 3.60374C12.2522 3.5225 12.2026 3.44876 12.1402 3.38679L9.3135 0.526789C9.25152 0.464303 9.17779 0.414707 9.09655 0.380861C9.01531 0.347015 8.92817 0.32959 8.84016 0.32959C8.75216 0.32959 8.66502 0.347015 8.58378 0.380861C8.50254 0.414707 8.42881 0.464303 8.36683 0.526789L6.48683 2.41346L1.86016 7.03346C1.79838 7.09575 1.74949 7.16963 1.71632 7.25085C1.68314 7.33208 1.66632 7.41905 1.66683 7.50679V10.3335C1.66683 10.5103 1.73707 10.6798 1.86209 10.8049C1.98712 10.9299 2.15669 11.0001 2.3335 11.0001ZM8.84016 1.94012L10.7268 3.82679L9.78016 4.77346L7.8935 2.88679L8.84016 1.94012ZM3.00016 7.78012L6.9535 3.82679L8.84016 5.71346L4.88683 9.66679H3.00016V7.78012ZM13.0002 12.3335H1.00016C0.823352 12.3335 0.653782 12.4037 0.528758 12.5287C0.403734 12.6537 0.333496 12.8233 0.333496 13.0001C0.333496 13.1769 0.403734 13.3465 0.528758 13.4715C0.653782 13.5966 0.823352 13.6668 1.00016 13.6668H13.0002C13.177 13.6668 13.3465 13.5966 13.4716 13.4715C13.5966 13.3465 13.6668 13.1769 13.6668 13.0001C13.6668 12.8233 13.5966 12.6537 13.4716 12.5287C13.3465 12.4037 13.177 12.3335 13.0002 12.3335Z" fill="black" fill-opacity="0.7"/>
</svg>
