<svg width="20" height="20" viewBox="0 0 20 20" fill="none" xmlns="http://www.w3.org/2000/svg">
<path d="M17.0709 2.92931C15.1956 1.05402 12.6522 0.000488281 10.0001 0.000488281C7.34805 0.000488281 4.8046 1.05402 2.92931 2.92931C1.05402 4.8046 0.000488281 7.34805 0.000488281 10.0001C0.000488281 12.6522 1.05402 15.1956 2.92931 17.0709C4.8046 18.9462 7.34805 19.9997 10.0001 19.9997C12.6522 19.9997 15.1956 18.9462 17.0709 17.0709C18.9462 15.1956 19.9997 12.6522 19.9997 10.0001C19.9997 7.34805 18.9462 4.8046 17.0709 2.92931ZM14.7071 13.2931C14.8013 13.3856 14.8763 13.4959 14.9277 13.6176C14.979 13.7393 15.0058 13.8699 15.0064 14.002C15.007 14.1341 14.9814 14.2649 14.9312 14.3871C14.8809 14.5092 14.8069 14.6202 14.7135 14.7135C14.6202 14.8069 14.5092 14.8809 14.3871 14.9312C14.2649 14.9814 14.1341 15.007 14.002 15.0064C13.8699 15.0058 13.7393 14.979 13.6176 14.9277C13.4959 14.8763 13.3856 14.8013 13.2931 14.7071L10.0001 11.4142L6.70711 14.7071C6.51902 14.8918 6.2656 14.9948 6.00199 14.9936C5.73837 14.9924 5.48589 14.8871 5.29948 14.7007C5.11308 14.5143 5.00783 14.2618 5.00663 13.9982C5.00544 13.7346 5.1084 13.4812 5.29311 13.2931L8.58605 10.0001L5.29311 6.70711C5.1084 6.51902 5.00544 6.2656 5.00663 6.00199C5.00783 5.73837 5.11308 5.48589 5.29948 5.29948C5.48589 5.11308 5.73837 5.00783 6.00199 5.00663C6.2656 5.00544 6.51902 5.1084 6.70711 5.29311L10.0001 8.58605L13.2931 5.29305C13.481 5.10749 13.7347 5.00381 13.9988 5.00464C14.2629 5.00548 14.516 5.11077 14.7027 5.29751C14.8894 5.48426 14.9947 5.73731 14.9955 6.0014C14.9964 6.2655 14.8927 6.5192 14.7071 6.70711L11.4142 10.0001L14.7071 13.2931Z" fill="#F6B2B2"/>
</svg>
