<svg width="18" height="18" viewBox="0 0 18 18" fill="none" xmlns="http://www.w3.org/2000/svg">
<path d="M18 8.73267C18 13.5556 13.9706 17.4653 9 17.4653C7.56108 17.4653 6.20102 17.1377 4.99476 16.5551V16.4938C5.10585 15.9375 5.36974 14.7084 5.53665 14.242C5.69372 13.5638 6.40838 12.1229 8.01047 11.7845C8.52815 11.6752 8.99072 11.6079 9.43054 11.5439C10.6922 11.3603 11.7666 11.2039 13.4175 10.1614C13.9162 9.8033 14.9113 8.60466 14.9018 6.67524C14.4267 7.31914 12.5906 8.65952 9.04712 8.86984C8.01047 8.95747 5.73456 9.39791 4.92408 10.4586C4.60602 10.7672 3.92513 11.6702 3.74607 12.8133C3.57723 13.4762 3.20654 14.8821 3.07461 15.2022L3.04939 15.2843C1.1795 13.6841 0 11.342 0 8.73267C0 3.90975 4.02944 0 9 0C10.6881 0 12.2676 0.450935 13.6176 1.23543C13.4601 1.91402 12.7453 3.35378 11.144 3.69196C10.6263 3.80128 10.1637 3.86859 9.72392 3.9326C8.46229 4.1162 7.38782 4.27256 5.73691 5.31504C5.23822 5.67319 4.24319 6.87184 4.25262 8.80125C4.72775 8.15735 6.56387 6.81697 10.1073 6.60666C11.144 6.51902 13.4199 6.07858 14.2304 5.01786C14.5484 4.70924 15.2293 3.80626 15.4084 2.66324V2.60114C17.0109 4.17789 18 6.34321 18 8.73267Z" fill="#F74545"/>
</svg>
