<svg width="32" height="32" viewBox="0 0 32 32" fill="none" xmlns="http://www.w3.org/2000/svg">
<path d="M16 32C24.8366 32 32 24.8366 32 16C32 7.16344 24.8366 0 16 0C7.16344 0 0 7.16344 0 16C0 24.8366 7.16344 32 16 32Z" fill="#00AED6"/>
<path fill-rule="evenodd" clip-rule="evenodd" d="M25.3238 15.5029C25.2708 14.5296 24.8337 13.6163 24.1072 12.9611C23.3807 12.3058 22.4234 11.9615 21.443 12.0029H11.337C11.2491 12.0026 11.1621 11.9851 11.0809 11.9514C10.9998 11.9177 10.9262 11.8684 10.8642 11.8064C10.8023 11.7445 10.7532 11.671 10.7199 11.5902C10.6865 11.5094 10.6695 11.4229 10.6698 11.3355C10.6698 10.9669 10.9682 10.6682 11.337 10.6682H21.5769C21.5514 9.99597 21.3118 9.34914 20.8926 8.82081C20.4734 8.29248 19.8962 7.90989 19.2442 7.72812C16.2607 7.2013 13.207 7.2013 10.2235 7.72812C9.39238 7.93488 8.64299 8.38489 8.07249 9.0198C7.50198 9.65471 7.13668 10.4452 7.02395 11.2889C6.55061 14.4292 6.55061 17.622 7.02395 20.7624C7.19746 21.6527 7.63887 22.4697 8.28985 23.1055C8.94082 23.7413 9.77071 24.1659 10.6698 24.3231C14.3733 24.7832 18.1201 24.7832 21.8235 24.3231C22.6289 24.1563 23.3611 23.7421 23.9164 23.139C24.4716 22.536 24.8218 21.7747 24.9174 20.9631C25.2462 19.1617 25.3848 17.3323 25.3238 15.5029ZM22.0044 17.743V18.3357C22.0047 18.423 21.9877 18.5095 21.9544 18.5903C21.921 18.6711 21.8719 18.7446 21.81 18.8066C21.748 18.8686 21.6744 18.9178 21.5933 18.9515C21.5122 18.9852 21.4252 19.0027 21.3373 19.003C21.2493 19.0027 21.1623 18.9852 21.0812 18.9515C21.0001 18.9178 20.9265 18.8686 20.8645 18.8066C20.8026 18.7446 20.7535 18.6711 20.7202 18.5903C20.6868 18.5095 20.6698 18.423 20.6701 18.3357V17.743C20.5182 17.6087 20.4109 17.4317 20.3626 17.2354C20.3142 17.0392 20.3271 16.833 20.3995 16.6442C20.4718 16.4553 20.6003 16.2928 20.7678 16.1782C20.9352 16.0636 21.1339 16.0022 21.3373 16.0023C21.5407 16.0022 21.7393 16.0636 21.9068 16.1782C22.0743 16.2928 22.2027 16.4553 22.2751 16.6442C22.3474 16.833 22.3603 17.0392 22.312 17.2354C22.2636 17.4317 22.1564 17.6087 22.0044 17.743Z" fill="white"/>
</svg>
