<svg width="25" height="24" viewBox="0 0 25 24" fill="none" xmlns="http://www.w3.org/2000/svg">
<path d="M6.375 23H2.375C2.24367 23 2.11362 22.9742 1.99228 22.9239C1.87094 22.8737 1.76068 22.8 1.66782 22.7072C1.57495 22.6143 1.50129 22.5041 1.45105 22.3827C1.40081 22.2614 1.37497 22.1313 1.375 22V14C1.37497 13.8687 1.40081 13.7386 1.45105 13.6173C1.50129 13.4959 1.57495 13.3857 1.66782 13.2928C1.76068 13.2 1.87094 13.1263 1.99228 13.0761C2.11362 13.0258 2.24367 13 2.375 13H6.375C6.50633 13 6.63638 13.0258 6.75772 13.0761C6.87907 13.1263 6.98932 13.2 7.08218 13.2928C7.17505 13.3857 7.24871 13.4959 7.29895 13.6173C7.34919 13.7386 7.37503 13.8687 7.375 14V22C7.37503 22.1313 7.34919 22.2614 7.29895 22.3827C7.24871 22.5041 7.17505 22.6143 7.08218 22.7072C6.98932 22.8 6.87907 22.8737 6.75772 22.9239C6.63638 22.9742 6.50633 23 6.375 23Z" fill="#129175"/>
<path d="M14.375 23H10.375C10.2437 23 10.1136 22.9742 9.99228 22.9239C9.87094 22.8737 9.76068 22.8 9.66782 22.7072C9.57495 22.6143 9.50129 22.5041 9.45105 22.3827C9.40081 22.2614 9.37497 22.1313 9.375 22V2C9.37497 1.86867 9.40081 1.73862 9.45105 1.61728C9.50129 1.49594 9.57495 1.38568 9.66782 1.29282C9.76068 1.19995 9.87094 1.12629 9.99228 1.07605C10.1136 1.02581 10.2437 0.999966 10.375 1H14.375C14.5063 0.999966 14.6364 1.02581 14.7577 1.07605C14.8791 1.12629 14.9893 1.19995 15.0822 1.29282C15.175 1.38568 15.2487 1.49594 15.2989 1.61728C15.3492 1.73862 15.375 1.86867 15.375 2V22C15.375 22.1313 15.3492 22.2614 15.2989 22.3827C15.2487 22.5041 15.175 22.6143 15.0822 22.7072C14.9893 22.8 14.8791 22.8737 14.7577 22.9239C14.6364 22.9742 14.5063 23 14.375 23Z" fill="#1FB393"/>
<path d="M22.375 23H18.375C18.2437 23 18.1136 22.9742 17.9923 22.9239C17.8709 22.8737 17.7607 22.8 17.6678 22.7072C17.575 22.6143 17.5013 22.5041 17.4511 22.3827C17.4008 22.2614 17.375 22.1313 17.375 22V10C17.375 9.86867 17.4008 9.73862 17.4511 9.61728C17.5013 9.49594 17.575 9.38568 17.6678 9.29282C17.7607 9.19995 17.8709 9.12629 17.9923 9.07605C18.1136 9.02581 18.2437 8.99997 18.375 9H22.375C22.5063 8.99997 22.6364 9.02581 22.7577 9.07605C22.8791 9.12629 22.9893 9.19995 23.0822 9.29282C23.175 9.38568 23.2487 9.49594 23.2989 9.61728C23.3492 9.73862 23.375 9.86867 23.375 10V22C23.375 22.1313 23.3492 22.2614 23.2989 22.3827C23.2487 22.5041 23.175 22.6143 23.0822 22.7072C22.9893 22.8 22.8791 22.8737 22.7577 22.9239C22.6364 22.9742 22.5063 23 22.375 23Z" fill="#2FD5B1"/>
</svg>
