<svg width="22" height="21" viewBox="0 0 22 21" fill="none" xmlns="http://www.w3.org/2000/svg">
<path d="M20.875 8H16.8745C16.5984 8.00018 16.3748 8.224 16.375 8.5V20.5005C16.3752 20.7766 16.599 21.0002 16.875 21H20.8756C21.1516 20.9998 21.3752 20.776 21.375 20.5V8.49939C21.3748 8.22345 21.151 7.99982 20.875 8ZM20.375 20H17.375V9H20.375V20ZM12.875 1.12355e-07H8.87445C8.59845 0.000183212 8.37482 0.223999 8.375 0.5V20.5005C8.37518 20.7766 8.599 21.0002 8.875 21H12.8756C13.1516 20.9998 13.3752 20.776 13.375 20.5V0.49939C13.3748 0.22345 13.151 -0.000182988 12.875 1.12355e-07ZM12.375 20H9.375V1H12.375V20ZM4.875 12H0.87439C0.59845 12.0002 0.374817 12.224 0.375 12.5V20.5005C0.375183 20.7766 0.598999 21.0002 0.875 21H4.87561C5.15155 20.9998 5.37518 20.776 5.375 20.5V12.4994C5.37482 12.2234 5.151 11.9998 4.875 12ZM4.375 20H1.375V13H4.375V20Z" fill="#969CA9"/>
</svg>
