<svg width="25" height="24" viewBox="0 0 25 24" fill="none" xmlns="http://www.w3.org/2000/svg">
<path d="M18.875 22H6.875C6.07962 21.9992 5.31706 21.6828 4.75464 21.1204C4.19222 20.558 3.87587 19.7954 3.875 19V10.25C3.87501 9.82266 3.96632 9.40023 4.14283 9.01101C4.31933 8.62179 4.57695 8.27477 4.89844 7.99319L10.8994 2.74219C11.4475 2.26608 12.1491 2.00391 12.875 2.00391C13.601 2.00391 14.3026 2.26608 14.8506 2.74219L20.8506 7.99219L20.8516 7.99319C21.1731 8.27478 21.4307 8.6218 21.6072 9.01102C21.7837 9.40024 21.875 9.82267 21.875 10.25V19C21.8741 19.7954 21.5578 20.558 20.9954 21.1204C20.4329 21.6828 19.6704 21.9992 18.875 22Z" fill="#F8A137"/>
<path d="M16.875 22H8.875V15C8.875 14.2044 9.19107 13.4413 9.75368 12.8787C10.3163 12.3161 11.0794 12 11.875 12H13.875C14.6706 12 15.4337 12.3161 15.9963 12.8787C16.5589 13.4413 16.875 14.2044 16.875 15V22Z" fill="#B46C15"/>
</svg>
