<svg width="19" height="21" viewBox="0 0 19 21" fill="none" xmlns="http://www.w3.org/2000/svg">
<path d="M17.8545 6.95215L11.8545 1.68555C10.7206 0.695312 9.02942 0.695312 7.89551 1.68555L1.89551 6.95215C1.2467 7.52191 0.874817 8.34357 0.875 9.20697V18C0.876831 19.6561 2.21887 20.9982 3.875 21H6.375H13.375C13.3752 21 13.3754 21 13.3756 21H15.875C17.5311 20.9982 18.8732 19.6561 18.875 18V9.20697C18.8752 8.34357 18.5033 7.52191 17.8545 6.95215ZM12.875 20H6.875V14C6.8764 12.896 7.771 12.0014 8.875 12H10.875C11.979 12.0014 12.8736 12.896 12.875 14V20ZM17.875 18C17.8736 19.104 16.979 19.9986 15.875 20H13.875V14C13.8732 12.3439 12.5311 11.0018 10.875 11H8.875C7.21887 11.0018 5.87683 12.3439 5.875 14V20H3.875C2.771 19.9986 1.8764 19.104 1.875 18V9.20697C1.87476 8.63135 2.1228 8.08362 2.55566 7.7041L8.55566 2.4375C8.92059 2.11749 9.38965 1.94147 9.875 1.94238C10.3604 1.94147 10.8294 2.11749 11.1943 2.4375L17.1943 7.70404C17.6272 8.08356 17.8752 8.63135 17.875 9.20697V18Z" fill="#969CA9"/>
</svg>
