<svg width="40" height="16" viewBox="0 0 40 16" fill="none" xmlns="http://www.w3.org/2000/svg">
<g clip-path="url(#clip0_578_9010)">
<path fill-rule="evenodd" clip-rule="evenodd" d="M5.57291 8.0368C5.56782 8.0368 5.57291 10.4041 5.57291 10.4041C5.57291 10.7019 5.31681 10.9617 4.98191 10.9617H4.66139V11.0833H7.37714V10.9617H7.05618C6.72615 10.9617 6.46562 10.6972 6.46562 10.4041V7.99983V5.13068C6.46562 4.84248 6.72084 4.57287 7.05618 4.57287H7.37714V4.45246H4.66139V4.57287H4.98191C5.32146 4.57287 5.57291 4.84248 5.57291 5.13068V7.70189H2.3547V5.13068C2.3547 4.84248 2.61478 4.57287 2.94504 4.57287H3.26556V4.45246H0.549805V4.57287H0.871427C1.20655 4.57287 1.46221 4.84248 1.46221 5.13068V10.4044C1.46221 10.6972 1.20655 10.962 0.871427 10.962H0.549805V11.0835H3.26556V10.962H2.94504C2.61478 10.962 2.3547 10.6974 2.3547 10.4044C2.3547 10.4044 2.35935 8.03702 2.3547 8.03702H5.57291V8.0368ZM12.031 9.34808C12.0549 9.73766 11.8135 10.3284 11.4774 10.6317C11.1552 10.9221 10.6965 11.1756 10.0827 11.1756C9.38568 11.1756 8.7856 10.8032 8.56646 10.7191C8.43431 10.6684 8.261 10.6751 8.1574 10.7386C8.03677 10.813 7.96239 10.9336 7.93406 11.1572H7.83202V8.85912H7.93406C8.02725 9.56633 8.35706 9.98115 8.56203 10.218C8.89693 10.6034 9.52933 10.8221 10.1387 10.7249C10.6226 10.6463 11.1525 10.1213 11.0938 9.47071C11.0735 9.23608 11.0212 8.89542 10.5338 8.57579C10.2275 8.37569 9.79274 8.09192 9.38036 7.81833C8.85975 7.4728 8.38761 7.09938 8.25435 6.94797C8.08126 6.75031 7.86456 6.46454 7.86456 6.00878C7.86456 5.61854 8.01286 5.17185 8.32961 4.87435C8.6457 4.57686 9.07379 4.35352 9.68738 4.35352C10.3012 4.35352 10.7662 4.67934 10.9245 4.7535C11.0828 4.82765 11.2574 4.81016 11.3566 4.7535C11.4546 4.69727 11.5197 4.61294 11.5478 4.39114H11.6492V6.56658H11.5478C11.4546 5.86003 11.1476 5.3299 10.9336 5.13422C10.7195 4.93921 10.3012 4.6696 9.6783 4.79091C9.08021 4.90579 8.78936 5.1765 8.73402 5.65506C8.69241 6.0194 8.89007 6.24452 9.00407 6.38065C9.23671 6.66022 10.7122 7.49582 11.38 8.07332C11.7247 8.37126 11.9945 8.72498 12.031 9.34808ZM16.3325 7.69702C17.5141 8.10276 17.851 8.93748 17.6317 9.79632C17.3742 10.8077 16.2345 11.0135 15.8646 11.0627C15.6979 11.0835 15.2723 11.0813 14.8513 11.0817C14.0996 11.083 13.1495 11.0804 12.3861 11.0804V10.9589H12.7768C13.0253 10.9589 13.3096 10.7497 13.3096 10.4331V5.13953C13.3096 4.823 13.0253 4.60895 12.7794 4.60895H12.3887V4.48743H14.7461C15.3134 4.48743 15.6216 4.54255 15.8203 4.58173C16.1552 4.64614 17.1321 4.93478 17.364 5.84631C17.544 6.5522 17.1925 7.44203 16.3325 7.69702ZM14.1927 7.51153C14.5184 7.59476 15.4768 7.6169 15.8487 7.38116C16.4313 7.01062 16.6331 6.41761 16.526 5.89213C16.4614 5.57714 16.2943 5.28585 16.0067 5.08419C15.4392 4.68443 14.6213 4.74863 14.193 4.879V7.51153H14.1927ZM14.1927 10.7078C14.6523 10.8506 15.5266 10.9591 16.1362 10.523C16.8675 9.99952 17.0216 8.72077 15.9892 8.05428C15.5738 7.78556 14.5369 7.8046 14.1927 7.88495V10.7078ZM23.8474 4.56756L23.9435 6.81405L23.8087 6.8187C23.7434 6.25116 23.5302 5.85073 23.2599 5.59131C23.1816 5.51561 23.0346 5.36398 22.8219 5.23051C22.4682 5.00717 21.9411 4.8095 21.3156 4.92128C20.3766 5.08862 19.8925 5.70973 19.6517 6.30716C19.3529 7.04205 19.1647 8.29733 19.669 9.35804C20.0793 10.2182 20.8669 10.5761 21.4734 10.6682C21.9914 10.7481 23.1382 10.724 24.0134 9.54331L24.1531 9.63628C23.474 10.5947 22.5713 11.2085 21.5385 11.1995C20.2186 11.1868 19.3892 10.4604 19.0096 10.0276C18.6091 9.57209 18.3028 8.70705 18.2988 7.95291C18.2959 7.28332 18.4433 6.53759 18.6837 6.10175C19.0979 5.35402 19.9629 4.60918 21.1024 4.4985C21.9551 4.41417 22.5153 4.58195 22.9948 4.85576C23.2351 4.99322 23.3691 5.00894 23.4997 4.95404C23.6294 4.89804 23.7341 4.78692 23.7341 4.56756H23.8474Z" fill="black"/>
<path fill-rule="evenodd" clip-rule="evenodd" d="M26.1295 7.77088L29.4429 11.0834V4.45703L26.1295 7.77088ZM29.4429 11.0834H36.0688L32.7563 7.77088L29.4429 11.0834ZM32.7563 7.77088L36.0688 4.45703H29.4429L32.7563 7.77088ZM36.0697 4.45703V11.0834L39.3822 7.77088L36.0697 4.45703ZM5.5448 15.5735C5.5448 15.2632 5.7221 15.0106 6.02026 15.0106C6.36734 15.0106 6.51144 15.2565 6.50347 15.5735H5.5448ZM28.2514 15.7813C28.2596 16.132 28.181 16.4981 27.7573 16.4981C27.5459 16.4981 27.3837 16.381 27.3837 16.1466C27.3837 15.8708 27.6739 15.792 27.893 15.7813H28.2514ZM23.1997 15.7537C23.1997 15.3508 23.3385 15.0106 23.7653 15.0106C24.192 15.0106 24.3313 15.3508 24.3313 15.7537C24.3313 16.1587 24.192 16.4981 23.7653 16.4981C23.3385 16.4981 23.1997 16.1587 23.1997 15.7537ZM16.5751 15.7508C16.5751 15.3955 16.6805 14.9998 17.1113 14.9998C17.5185 14.9998 17.6474 15.4066 17.6474 15.7508C17.6474 16.1058 17.5451 16.5087 17.1113 16.5087C16.7075 16.5087 16.5751 16.1056 16.5751 15.7508ZM11.9775 15.7537C11.9775 15.3508 12.1176 15.0106 12.5435 15.0106C12.9707 15.0106 13.1106 15.3508 13.1106 15.7537C13.1106 16.1587 12.9709 16.4981 12.5435 16.4981C12.1176 16.4983 11.9775 16.1587 11.9775 15.7537ZM1.46376 14.3007H0.549805V13.976H2.75512V14.3007H1.84139V16.7024H1.46376V14.3007ZM37.8706 16.7024V13.9762H38.2294V15.5801L38.9389 14.8067H39.4033L38.6031 15.6113L39.4517 16.7026H38.9882L38.2372 15.6793H38.2294V16.7026H37.8706V16.7024ZM35.9867 15.0867H35.9944C36.116 14.8481 36.3792 14.7507 36.5678 14.7507C36.7001 14.7507 37.2858 14.7835 37.2858 15.3918V16.7022H36.927V15.5089C36.927 15.1954 36.7942 15.0259 36.4925 15.0259C36.4925 15.0259 36.2966 15.0137 36.1459 15.1651C36.0927 15.2182 35.9944 15.3004 35.9944 15.6709V16.7019H35.6356V14.8063H35.9867V15.0867ZM34.7044 15.7813C34.7113 16.132 34.6327 16.4981 34.2095 16.4981C33.9981 16.4981 33.8358 16.381 33.8358 16.1466C33.8358 15.8708 34.1263 15.792 34.3447 15.7813H34.7044ZM34.3793 15.5312C33.9301 15.5312 33.458 15.6864 33.458 16.2194C33.458 16.5891 33.79 16.7591 34.1185 16.7591C34.3793 16.7591 34.5902 16.657 34.7077 16.4188H34.7146C34.719 16.5058 34.7263 16.5893 34.7345 16.6752C34.7376 16.721 34.8025 16.7024 34.8357 16.7024H35.077C35.0682 16.5692 35.0633 16.4358 35.0623 16.3024V15.3953C35.0623 14.8669 34.6776 14.7507 34.2885 14.7507C33.9146 14.7507 33.5899 14.8973 33.5709 15.3119H33.9492C33.9527 15.116 34.1225 15.0106 34.3038 15.0106C34.6852 15.0106 34.7046 15.203 34.7046 15.5312H34.3793ZM32.6833 15.7537C32.6833 16.1089 32.5509 16.4981 32.1472 16.4981C31.7131 16.4981 31.611 16.1089 31.611 15.7537C31.611 15.4112 31.739 15.0106 32.1472 15.0106C32.5777 15.0106 32.6833 15.3997 32.6833 15.7537ZM31.6184 16.4186L31.611 16.4H31.6184C31.7463 16.6645 31.9966 16.7588 32.272 16.7588C32.8344 16.7588 33.0605 16.2413 33.0605 15.7537C33.0605 15.2406 32.7964 14.7507 32.2074 14.7507C31.9657 14.7507 31.7279 14.8373 31.6181 15.0642H31.6108V13.976H31.2529V16.4C31.2529 16.4748 31.2412 16.5891 31.233 16.7022H31.6035L31.6184 16.4186ZM29.2134 16.7024V13.9762H29.5713V16.7024H29.2134ZM27.9273 15.5312C27.4782 15.5312 27.0061 15.6864 27.0061 16.2194C27.0061 16.5891 27.339 16.7591 27.667 16.7591C27.9273 16.7591 28.1387 16.657 28.2558 16.4188H28.2627C28.2673 16.5058 28.274 16.5893 28.2817 16.6752C28.2853 16.721 28.3506 16.7024 28.3838 16.7024H28.6255C28.6163 16.5693 28.6114 16.4359 28.6109 16.3024V15.3953C28.6109 14.8669 28.2257 14.7507 27.8366 14.7507C27.4629 14.7507 27.1384 14.8973 27.1194 15.3119H27.4977C27.5008 15.116 27.6706 15.0106 27.8519 15.0106C28.2332 15.0106 28.2518 15.203 28.2518 15.5312H27.9273ZM26.3199 15.4143C26.3008 15.1766 26.1875 15.0106 25.9316 15.0106C25.5874 15.0106 25.4553 15.3085 25.4553 15.7537C25.4553 16.1999 25.5877 16.4981 25.9316 16.4981C26.1698 16.4981 26.3163 16.3429 26.3354 16.0713H26.6937C26.663 16.4981 26.3467 16.7586 25.9272 16.7586C25.3189 16.7586 25.0777 16.3272 25.0777 15.7694C25.0777 15.2138 25.357 14.7503 25.9575 14.7503C26.3575 14.7503 26.6597 15.0029 26.6787 15.4139H26.3199V15.4143ZM23.7653 14.7507C23.1428 14.7507 22.8214 15.1653 22.8214 15.7537C22.8214 16.3429 23.1426 16.7588 23.7653 16.7588C24.3886 16.7588 24.7104 16.3429 24.7104 15.7537C24.7102 15.1653 24.3886 14.7507 23.7653 14.7507ZM21.9456 16.7024V13.9762H22.3039V16.7024H21.9456ZM19.6464 14.7507C20.005 14.7507 20.4087 14.9008 20.3824 15.3318H20.005C20.02 15.0901 19.8352 15.0106 19.6273 15.0106C19.4343 15.0106 19.2798 15.1009 19.2798 15.3119C19.2798 15.5241 19.6041 15.5387 19.7402 15.5799C20.0616 15.6862 20.4313 15.7238 20.4313 16.151C20.4313 16.6154 19.9789 16.7588 19.5899 16.7588C19.1926 16.7588 18.8615 16.5769 18.8646 16.1397H19.2422C19.2499 16.3737 19.4084 16.4981 19.6276 16.4981C19.8385 16.4981 20.0543 16.4142 20.0543 16.1687C20.0543 15.7464 18.9024 16.0631 18.9024 15.324C18.9022 14.9276 19.3024 14.7507 19.6464 14.7507ZM18.6408 13.976H19.0788L18.6563 14.9008H18.3995L18.6408 13.976ZM17.6438 15.0642H17.6361C17.5263 14.8373 17.2892 14.7507 17.0471 14.7507C16.458 14.7507 16.1975 15.2406 16.1975 15.7537C16.1975 16.2413 16.42 16.7588 16.9831 16.7588C17.2585 16.7588 17.5079 16.6645 17.6361 16.4H17.6438V16.4186L17.6547 16.7022H18.021C18.0137 16.5924 18.0022 16.479 18.0022 16.3662V13.9758H17.6438V15.0642ZM15.3214 16.7024V13.9762H15.6802V16.7024H15.3214ZM14.2992 16.7024H13.9411V14.8067H14.2992V15.1733H14.3072C14.3599 14.9125 14.6014 14.7808 14.8623 14.7808C14.9073 14.7808 14.9451 14.7839 14.9865 14.7839V15.1233C14.9371 15.1056 14.8809 15.1056 14.832 15.1056C14.3793 15.1197 14.2994 15.3619 14.2994 15.7623V16.7024H14.2992ZM12.5435 14.7507C11.9212 14.7507 11.5998 15.1653 11.5998 15.7537C11.5998 16.3429 11.9212 16.7588 12.5435 16.7588C13.1672 16.7588 13.4882 16.3429 13.4882 15.7537C13.4882 15.1653 13.1672 14.7507 12.5435 14.7507ZM11.3776 14.8065L10.7091 16.7022H10.3012L9.86003 15.1419H9.85228L9.36155 16.7022H8.94231L8.31589 14.8065H8.70502L9.16145 16.3327H9.16964L9.64089 14.8065H10.1048L10.5316 16.3024H10.5398L11.0117 14.8065H11.3776ZM6.88109 15.8221V15.6448C6.88109 15.1195 6.61282 14.7607 6.04727 14.7507C5.44652 14.7507 5.16696 15.2142 5.16696 15.7698C5.16696 16.3276 5.40845 16.7591 6.01606 16.7591C6.4696 16.7591 6.80229 16.5437 6.85807 16.1127H6.48045C6.43884 16.389 6.29961 16.4983 6.02004 16.4983C5.65437 16.4983 5.51802 16.155 5.54458 15.8221H6.88109ZM3.06103 16.7024V13.9762H3.41984V15.06H3.42803C3.56394 14.8481 3.76714 14.751 4.04294 14.751C4.53699 14.751 4.69194 15.0786 4.69194 15.4186V16.7026H4.33379V15.5804C4.33379 15.2488 4.24702 15.033 3.91079 15.0265C3.76736 15.0221 3.54822 15.1321 3.48049 15.2897C3.39748 15.4869 3.42006 15.6226 3.42006 15.728V16.7024H3.06103Z" fill="#CE3729"/>
</g>
<defs>
<clipPath id="clip0_578_9010">
<rect width="40" height="7.5" fill="white" transform="translate(0 4.25)"/>
</clipPath>
</defs>
</svg>
