<svg width="21" height="20" viewBox="0 0 21 20" fill="none" xmlns="http://www.w3.org/2000/svg">
<path d="M10.4997 5.9C8.19967 5.9 6.49967 7.8 6.49967 10.1C6.49967 12.4 8.39967 14.1 10.6997 14.1C12.8997 14.1 14.6997 12.2 14.6997 10V9.9C14.5997 7.7 12.6997 5.9 10.4997 5.9ZM13.5997 10.1C13.5997 11.8 12.0997 13.1 10.3997 13.1C8.69967 13.1 7.39967 11.6 7.39967 9.9C7.39967 8.2 8.89967 6.9 10.5997 6.9C12.2997 6.9 13.6997 8.3 13.5997 10.1C13.5997 10 13.5997 10.1 13.5997 10.1ZM18.9997 11.1C18.4997 10.5 18.4997 9.6 18.9997 9L20.3997 7.5C20.4997 7.3 20.5997 7.1 20.4997 6.9L18.3997 3.2C18.2997 3 18.0997 2.9 17.8997 3L15.8997 3.4C15.0997 3.6 14.2997 3.1 13.9997 2.3L13.3997 0.4C13.1997 0.1 12.9997 0 12.7997 0H8.49967C8.29967 0 8.09967 0.0999999 7.99967 0.3L7.39967 2.3C7.09967 3 6.29967 3.5 5.49967 3.3L3.49967 2.9C3.29967 2.9 3.09967 3 2.99967 3.2L0.89967 6.8C0.79967 7 0.79967 7.2 0.99967 7.4L2.39967 8.9C2.89967 9.5 2.89967 10.4 2.39967 11L0.99967 12.6C0.89967 12.8 0.79967 13 0.89967 13.2L2.99967 16.8C3.09967 17 3.29967 17.1 3.49967 17L5.49967 16.6C6.29967 16.4 7.09967 16.9 7.39967 17.7L7.99967 19.7C8.09967 19.9 8.29967 20 8.49967 20H12.6997C12.8997 20 13.0997 19.9 13.1997 19.7L13.7997 17.8C14.0997 17 14.8997 16.6 15.6997 16.7L17.6997 17.1C17.8997 17.1 18.0997 17 18.1997 16.9L20.2997 13.2C20.3997 13 20.3997 12.8 20.1997 12.6L18.9997 11.1ZM17.5997 16L15.9997 15.7C14.6997 15.4 13.3997 16.2 12.9997 17.4L12.3997 19H8.89967L8.39967 17.4C7.99967 16.1 6.69967 15.4 5.39967 15.7L3.69967 16L1.89967 13L2.99967 11.7C3.89967 10.7 3.89967 9.2 2.99967 8.2L1.89967 7L3.69967 4L5.29967 4.3C6.59967 4.6 7.89967 3.8 8.29967 2.6L8.89967 1H12.3997L12.8997 2.6C13.2997 3.9 14.5997 4.6 15.8997 4.3L17.5997 4L19.3997 7L18.2997 8.3C17.3997 9.3 17.3997 10.8 18.2997 11.8L19.3997 13.1L17.5997 16Z" fill="#3E4745"/>
</svg>
