<svg width="20" height="20" viewBox="0 0 20 20" fill="none" xmlns="http://www.w3.org/2000/svg">
<path d="M10 6.375C9.65485 6.375 9.375 6.65485 9.375 7C9.375 7.34515 9.65485 7.625 10 7.625C10.3452 7.625 10.625 7.34515 10.625 7C10.625 6.65485 10.3452 6.375 10 6.375ZM10 8.5C9.72388 8.5 9.5 8.72388 9.5 9V13.0005C9.50018 13.2766 9.724 13.5002 10 13.5H10.0006C10.2766 13.4998 10.5002 13.276 10.5 13V9C10.5 8.72388 10.2761 8.5 10 8.5ZM10 0C4.47717 0 0 4.47717 0 10C0 15.5228 4.47717 20 10 20C15.5201 19.9935 19.9935 15.5201 20 10C20 4.47717 15.5228 0 10 0ZM10 19C5.02942 19 1 14.9706 1 10C1 5.02942 5.02942 1 10 1C14.9683 1.00543 18.9946 5.03168 19 10C19 14.9706 14.9706 19 10 19Z" fill="#1F1F25"/>
</svg>
