<svg width="32" height="32" viewBox="0 0 32 32" fill="none" xmlns="http://www.w3.org/2000/svg">
<path d="M16.0003 11.1665C15.5401 11.1665 15.167 11.5396 15.167 11.9998C15.167 12.46 15.5401 12.8332 16.0003 12.8332C16.4605 12.8332 16.8337 12.46 16.8337 11.9998C16.8337 11.5396 16.4605 11.1665 16.0003 11.1665ZM16.0003 13.9998C15.6322 13.9998 15.3337 14.2983 15.3337 14.6665V20.0006C15.3339 20.3686 15.6323 20.6667 16.0003 20.6665H16.0011C16.3691 20.6663 16.6672 20.3678 16.667 19.9998V14.6665C16.667 14.2983 16.3685 13.9998 16.0003 13.9998ZM16.0003 2.6665C8.63656 2.6665 2.66699 8.63607 2.66699 15.9998C2.66699 23.3636 8.63656 29.3332 16.0003 29.3332C23.3605 29.3245 29.325 23.36 29.3337 15.9998C29.3337 8.63607 23.3641 2.6665 16.0003 2.6665ZM16.0003 27.9998C9.37288 27.9998 4.00033 22.6273 4.00033 15.9998C4.00033 9.3724 9.37288 3.99984 16.0003 3.99984C22.6248 4.00708 27.9931 9.37541 28.0003 15.9998C28.0003 22.6273 22.6278 27.9998 16.0003 27.9998Z" fill="#8890A0"/>
</svg>
