<svg width="40" height="16" viewBox="0 0 40 16" fill="none" xmlns="http://www.w3.org/2000/svg">
<g clip-path="url(#clip0_578_8879)">
<path d="M6.85134 1.52671C6.29707 1.41242 5.72185 1.67908 5.43043 2.18383C5.36186 2.30383 5.31233 2.43144 5.27995 2.56477C5.15043 2.0505 4.74664 1.63337 4.23237 1.52671C3.6781 1.41242 3.10288 1.67908 2.80955 2.18383C2.74098 2.30383 2.69146 2.43144 2.65908 2.56477C2.52956 2.0505 2.12576 1.63337 1.61149 1.52671C1.05722 1.41242 0.482001 1.67908 0.188676 2.18383C-0.104648 2.69048 -0.0570306 3.35522 0.302959 3.81235C0.662948 4.26758 1.27245 4.44471 1.80577 4.24472C2.23052 4.08472 2.5467 3.70759 2.65718 3.25999C2.70479 3.45808 2.79241 3.64855 2.92193 3.81045C3.28192 4.26567 3.89142 4.44281 4.42474 4.24282C4.84949 4.08282 5.16567 3.70569 5.27615 3.25808C5.32376 3.45617 5.41138 3.64664 5.53899 3.80854C5.89898 4.26377 6.50849 4.4409 7.04181 4.24091C7.57322 4.04092 7.93702 3.49998 7.93702 2.90952C7.93702 2.24287 7.47227 1.65242 6.84562 1.5229L6.85134 1.52671Z" fill="#FDAF27"/>
<path d="M2.52907 8.39312C2.66621 9.00834 3.01668 9.58166 3.6319 9.75879C4.21474 9.9245 4.86424 9.65594 5.16518 9.10358C5.34613 8.77216 5.32328 8.39883 5.32137 8.03123C5.31947 7.78361 5.31947 7.53791 5.31947 7.2903C5.31947 7.01792 5.31947 6.74745 5.32137 6.47508C5.32328 6.12652 5.31375 5.78939 5.47946 5.47321C5.70803 5.03703 6.16515 4.76656 6.64133 4.78751C7.12322 4.80846 7.5613 5.12274 7.75177 5.58558C7.87939 5.89224 7.85653 6.22557 7.85844 6.55127C7.86034 6.81983 7.86034 7.0903 7.86034 7.35887C7.86034 7.9398 7.89463 8.5474 7.78796 9.12072C7.53654 10.4464 6.65847 11.6006 5.46613 12.1321C4.27378 12.6635 2.8624 12.5206 1.78814 11.7644C1.25863 11.3911 0.822456 10.875 0.534845 10.2788C0.251044 9.68832 0.0796208 8.9512 0.188189 8.29217C0.270091 7.80076 0.641509 7.39886 1.11007 7.29791C1.59577 7.19316 2.10623 7.42934 2.35955 7.87504C2.45098 8.03694 2.49098 8.21217 2.53288 8.39312H2.52907Z" fill="#FDAF27"/>
<path d="M39.9986 8.30172C39.9986 10.1036 38.5853 11.5416 36.8025 11.5416C35.0311 11.5416 33.6426 10.115 33.6426 8.30172C33.6426 6.48844 35.0311 5.07324 36.8139 5.07324C38.5872 5.07324 39.9986 6.49987 39.9986 8.30172ZM35.2825 8.31315C35.2825 9.28835 35.9282 9.98929 36.8139 9.98929C37.6882 9.98929 38.3453 9.27693 38.3453 8.31315C38.3453 7.33794 37.6863 6.61224 36.8139 6.61224C35.9282 6.61224 35.2825 7.3246 35.2825 8.31315Z" fill="black"/>
<path d="M14.4267 9.51874C14.7276 9.69969 15.0171 9.88444 15.3771 9.86158C15.7219 9.84063 16.0381 9.65207 16.2342 9.35493C16.4171 9.07875 16.4133 8.76447 16.4133 8.44639C16.4133 7.90736 16.4133 4.21985 16.4133 3.95128C16.4133 3.76653 16.4038 3.58177 16.4723 3.40463C16.6761 2.87894 17.3333 2.70942 17.7466 3.07702C17.9675 3.27321 18.0304 3.54368 18.0304 3.83319C18.0304 4.41413 18.0475 8.43115 18.0266 8.82923C17.9904 9.54731 17.678 10.2444 17.1866 10.7454C16.678 11.2654 15.979 11.553 15.2685 11.5511C14.5867 11.5511 13.8667 11.2768 13.4191 10.7206C13.24 10.4978 13.1353 10.233 13.2058 9.93968C13.2743 9.65778 13.4915 9.43112 13.7638 9.36446C14.0114 9.30541 14.2191 9.39112 14.4286 9.51683L14.4267 9.51874Z" fill="black"/>
<path d="M25.6258 10.0389H25.6277C25.3801 9.88272 25.2258 9.60273 25.222 9.29988V5.92093C25.222 5.45428 24.8601 5.07715 24.4144 5.07715C24.0049 5.07715 23.6697 5.39523 23.6144 5.80665C23.2068 5.34762 22.5897 5.07715 21.8469 5.07715C20.1821 5.07715 18.9727 6.44092 18.9727 8.31705C18.9727 10.1932 20.1821 11.557 21.8469 11.557C21.8545 11.557 21.8621 11.557 21.8697 11.557C21.8773 11.557 21.8849 11.557 21.8926 11.557C22.6906 11.557 23.384 11.2427 23.8887 10.7094C24.1477 11.1284 24.563 11.437 25.062 11.5303C25.1115 11.5398 25.1591 11.5436 25.2068 11.5436C25.2106 11.5436 25.2125 11.5436 25.2163 11.5417C25.2201 11.5417 25.2239 11.5417 25.2277 11.5417C25.6563 11.5417 26.0029 11.1798 26.0029 10.7322C26.0029 10.4389 25.8524 10.1818 25.6296 10.0389H25.6258ZM22.1459 10.016C21.2488 10.016 20.6145 9.30369 20.6145 8.31515C20.6145 7.32661 21.2602 6.60091 22.1459 6.60091C23.0316 6.60091 23.643 7.30184 23.643 8.31515C23.643 9.32845 23.0449 10.016 22.1459 10.016Z" fill="black"/>
<path d="M32.7607 5.92465C32.7607 5.43704 32.4255 5.07324 31.9703 5.07324C31.5512 5.07324 31.216 5.39895 31.1798 5.84846C30.7722 5.36085 30.1379 5.07324 29.3722 5.07324C27.7075 5.07324 26.498 6.43701 26.498 8.31315C26.498 10.1893 27.7075 11.553 29.3722 11.553C30.1189 11.553 30.7379 11.2826 31.1436 10.8026V11.0045C31.1379 12.014 30.5379 12.6921 29.6465 12.6921C29.2656 12.6921 28.9208 12.5644 28.6542 12.3264C28.5551 12.2368 28.4656 12.1321 28.3913 12.0159C28.1437 11.6273 27.6428 11.5226 27.2714 11.7797C26.8999 12.0387 26.799 12.5625 27.0466 12.9511C27.2028 13.1968 27.3894 13.4178 27.6028 13.6082C28.1666 14.1149 28.8751 14.3834 29.6484 14.3834C31.4312 14.3834 32.7302 12.9892 32.7588 11.0578L32.7607 10.6921V5.92655V5.92465ZM29.6732 10.016C28.7742 10.016 28.1418 9.30359 28.1418 8.31505C28.1418 7.32651 28.7875 6.60082 29.6732 6.60082C30.5589 6.60082 31.1703 7.30175 31.1703 8.31505C31.1703 9.32835 30.5722 10.016 29.6732 10.016Z" fill="black"/>
</g>
<defs>
<clipPath id="clip0_578_8879">
<rect width="40" height="12.8815" fill="white" transform="translate(0 1.5)"/>
</clipPath>
</defs>
</svg>
