<svg width="32" height="32" viewBox="0 0 32 32" fill="none" xmlns="http://www.w3.org/2000/svg">
<g clip-path="url(#clip0_578_5445)">
<path d="M1.06982 29.9614C0.46135 29.6439 -0.0177243 29.3658 0.00465983 29.3434C0.0824582 29.2655 2.99321 28.6434 5.0258 28.2701C9.42427 27.4624 14.6537 26.816 19.8626 26.4361C22.0077 26.2797 29.7684 26.2743 31.1142 26.4285L31.9967 26.5297L31.002 26.545C29.2361 26.5726 25.1865 26.8564 22.0137 27.175C16.0079 27.7785 9.33091 28.8906 4.50086 30.0924C3.51432 30.3376 2.58757 30.5383 2.44152 30.5383C2.29521 30.5383 1.67801 30.2789 1.06982 29.9614ZM9.46631 23.906C9.37623 23.6563 9.75376 23.5445 9.91836 23.4734C10.6579 23.1559 11.1781 22.6383 11.3523 22.0471C11.4356 21.7644 11.6894 20.1653 11.9163 18.494C12.1431 16.8227 12.3468 15.5301 12.3691 15.4541C12.3855 15.398 12.4303 15.1987 12.6697 15.1771C13.2806 15.1711 13.7343 15.179 14.3602 15.179C14.7061 15.1457 14.6381 15.5249 14.6111 15.7677C14.5838 16.0745 14.5014 16.6665 14.4053 17.389C14.2882 18.2703 14.1132 19.5875 14.0166 20.3159C13.799 21.9533 13.6783 22.4573 13.3025 23.3008C12.8548 24.3044 12.1707 24.8874 10.9306 25.3024C10.68 25.3809 9.96204 25.6257 9.88369 25.4083C9.72154 24.8876 9.60662 24.4351 9.46631 23.906ZM23.7078 23.3569C22.8812 23.023 22.9202 21.7321 23.7872 21.2027C24.3356 20.8675 25.1065 20.9246 25.5026 21.3214C26.4788 22.2989 25.0435 23.8969 23.7078 23.3569ZM17.4613 22.5861C15.0315 22.1704 15.0476 19.2684 15.5919 17.6102C16.2735 15.6906 17.9346 15.1328 19.2998 15.0841C20.452 15.0448 22.0489 15.2594 22.4499 15.5074C22.5607 15.5761 22.5086 16.2413 22.1993 18.7084C21.9848 20.4209 21.7497 21.894 21.6774 21.9812C21.2928 22.4455 18.7153 22.8152 17.4613 22.5861ZM19.5806 20.2894C19.8416 19.3173 19.9516 18.4398 20.1383 17.4144C20.1151 17.0609 19.5195 17.0584 19.368 17.0576C18.5791 17.0576 18.1131 17.5011 17.8664 18.4874C17.5276 19.8399 17.8811 20.5935 18.8548 20.5935C19.1624 20.565 19.4837 20.582 19.5806 20.2894ZM1.82296 21.8029C2.48711 20.1776 5.15491 14.3581 5.79504 13.1528C5.91597 12.8526 6.23481 12.7932 6.45292 12.7722C7.08049 12.7435 7.6229 12.7511 8.17377 12.7552C8.74128 12.7601 8.74975 12.9595 8.8229 13.3822C8.91217 13.8036 10.0199 20.428 10.2705 22.0181C10.3024 22.2823 10.3671 22.3643 10.024 22.3648C9.54848 22.3662 8.40388 22.4283 8.01571 22.3988C7.89178 22.3826 7.81071 22.3011 7.7916 22.2095C7.75611 22.0389 7.71598 21.746 7.68869 21.4409L7.61798 20.6487H6.19277H4.76729L4.45582 21.4105C4.34472 21.6815 4.22379 21.9487 4.13343 22.1259C4.0701 22.2886 3.97593 22.3635 3.83507 22.3944C3.48593 22.3914 2.24935 22.4373 1.78447 22.3963C1.55462 22.2905 1.76263 21.9508 1.82296 21.8029ZM7.36685 18.4431C7.32645 18.0152 7.05374 15.8077 6.98959 15.4817C6.97267 15.4467 6.96475 15.4579 6.94755 15.4787C6.77913 15.7319 5.86793 17.9722 5.71288 18.4926C5.69404 18.5642 5.74072 18.5905 5.80842 18.5848C6.03963 18.5689 6.98441 18.5511 7.27158 18.5402C7.35347 18.5339 7.36166 18.5052 7.36685 18.4431ZM23.8172 19.5161C23.8541 19.2276 23.9349 18.4445 23.9969 17.7759C24.0586 17.1073 24.1577 16.0631 24.2169 15.4555C24.2617 14.9942 24.3012 14.5465 24.3182 14.3108C24.3528 14.0997 24.6078 14.0748 24.7751 14.0732C25.3336 14.0792 25.8594 14.0459 26.3614 14.0923C26.5989 14.1167 26.698 14.1692 26.6988 14.3106C26.4725 15.4741 25.6588 19.4885 25.5962 19.737C25.5422 19.9514 25.5204 20.0146 25.1936 20.0332C24.7934 20.0266 24.4598 20.0477 24.0536 20.0458C23.8208 20.0428 23.7586 19.9741 23.8172 19.5161ZM12.5509 13.5523C12.5509 12.843 13.0065 12.3024 13.5768 12.0749C14.0698 11.9021 14.6223 11.9026 14.9166 12.2392C15.4385 12.8471 15.0959 13.7453 14.4861 14.2132C13.7048 14.7516 12.5638 14.4333 12.5509 13.5523ZM26.5478 12.0574C26.3772 11.6776 25.8299 10.4793 25.3315 9.39458C24.833 8.30983 24.4516 7.35333 24.4839 7.26938C24.5161 7.18543 25.0716 6.49417 25.7183 5.73345L26.7709 4.49502C26.8399 4.41162 26.9188 4.30962 27.0144 4.30826C27.6488 4.31154 28.3061 4.34955 28.9115 4.34353C29.3625 4.3397 29.5893 4.31045 29.2549 4.65034C29.0407 4.91612 28.6186 5.40231 28.1357 5.93579C27.438 6.70691 26.8672 7.35825 26.8672 7.38368C26.8672 7.40884 27.3905 8.56031 28.0298 9.94257C28.5324 11.0284 28.9473 11.9997 29.0873 12.4052C29.1468 12.543 29.0944 12.6609 28.9667 12.6931C28.7974 12.7325 28.4931 12.7481 27.9692 12.7481H27.1847C26.9931 12.7681 26.8519 12.7344 26.7782 12.5701L26.5478 12.0574ZM3.06664 11.2491C2.36072 10.8966 2.02687 10.4504 1.966 9.77823C1.92969 9.37517 2.58757 3.95852 2.87911 2.2361C2.95035 1.83168 2.9812 1.80871 3.36828 1.80871H4.12989C4.53007 1.80871 4.89422 1.80187 5.12325 1.815C5.43635 1.81937 5.37903 2.01707 5.35501 2.2536C5.30123 2.78189 5.13362 3.92598 4.92316 5.3993C4.54972 8.01315 4.45473 8.93547 4.54399 9.07766C4.64854 9.24364 4.91415 9.27126 6.67321 9.29751L8.24665 9.32103C8.62145 9.30025 8.69897 9.3924 8.66212 9.72955C8.5704 10.2874 8.5199 10.732 8.42873 11.2319C8.36594 11.5439 8.16503 11.4624 7.85193 11.4815L6.01233 11.5072C3.65354 11.5367 3.64098 11.5356 3.06664 11.2491ZM21.2111 11.4498C21.1874 11.4041 21.2532 10.7703 21.3575 10.0407C21.4617 9.31146 21.6793 7.74517 21.8412 6.56007C22.3009 3.19561 22.4518 2.18196 22.5157 1.79422C22.5834 1.34167 22.5837 1.36682 23.0264 1.36682H23.7283C24.0023 1.36682 24.2161 1.36299 24.3812 1.36846C25.0115 1.38897 24.9315 1.33456 24.7724 2.31239C24.7121 2.68209 24.512 4.3088 24.3274 5.67602C23.8626 9.11977 23.5576 11.231 23.502 11.3946C23.4496 11.5477 21.2895 11.5996 21.2111 11.4498ZM9.21763 11.1878C9.51053 8.72683 9.79006 6.86605 10.1152 4.57623C10.1397 4.30197 10.4086 4.27025 10.7228 4.26998C11.0804 4.26943 11.4438 4.26478 11.7842 4.27626C12.4437 4.27845 12.617 4.36677 12.5485 4.80866C12.2564 6.95847 11.8953 8.87723 11.5164 11.0629C11.4454 11.4331 11.3589 11.4222 11.0059 11.4222C10.5948 11.4235 9.8654 11.4372 9.49279 11.4271C9.27468 11.3883 9.22527 11.3637 9.21763 11.1878ZM13.8716 5.67876C14.0526 4.72717 14.1779 4.57869 14.4408 4.40615C14.7648 4.19341 17.1602 3.97165 17.9873 4.07774C18.1028 4.09442 18.2125 4.11521 18.3173 4.14009C20.74 4.71651 20.3635 7.46462 20.206 8.72902C20.0398 9.93682 19.8771 11.0366 19.8438 11.1736C19.7859 11.4115 19.7343 11.4222 18.6372 11.4222C18.2684 11.4222 18.076 11.4093 17.8664 11.3896C17.5273 11.3675 17.4959 11.2912 17.5298 11.0443C17.6532 10.0353 17.8197 9.16517 17.9439 8.22261C18.1109 6.93633 18.0664 5.66645 16.4731 5.93935C16.2001 6.0088 16.1253 6.03068 16.0879 6.30358C15.8889 7.574 15.7142 8.88653 15.5324 10.1293C15.4925 10.426 15.4369 10.7358 15.3795 11.0106C15.3648 11.0806 15.3566 11.1433 15.344 11.1895C15.3277 11.2444 15.29 11.3013 15.254 11.245C14.9979 10.7779 13.7933 10.8559 13.2907 11.1985C13.0385 11.374 12.9866 11.4687 13.0895 10.9333C13.1075 10.8198 13.1253 10.7063 13.1425 10.5931C13.392 8.95352 13.5601 7.34075 13.8716 5.67876ZM10.4324 2.86256C10.1632 1.94297 10.9644 1.03432 11.8617 1.00287C13.0775 0.921383 13.4133 2.5965 12.1693 3.35613C11.4489 3.68645 10.6917 3.61644 10.4324 2.86256Z" fill="#E9232A"/>
</g>
<defs>
<clipPath id="clip0_578_5445">
<rect width="32" height="29.5385" fill="white" transform="translate(0 1)"/>
</clipPath>
</defs>
</svg>
