<svg width="10" height="10" viewBox="0 0 10 10" fill="none" xmlns="http://www.w3.org/2000/svg">
<path d="M3.75 2.5H7.25C7.38806 2.5 7.5 2.38806 7.5 2.25C7.5 2.11194 7.38806 2 7.25 2H3.75C3.61194 2 3.5 2.11194 3.5 2.25C3.5 2.38806 3.61194 2.5 3.75 2.5ZM2.75 4.5H7.25C7.38806 4.5 7.5 4.38806 7.5 4.25C7.5 4.11194 7.38806 4 7.25 4H2.75C2.61194 4 2.5 4.11194 2.5 4.25C2.5 4.38806 2.61194 4.5 2.75 4.5ZM9.25 5.61775e-08H0.749695C0.611725 9.16062e-05 0.499909 0.112 0.5 0.25V9.75C0.49997 9.80621 0.518921 9.86081 0.553742 9.90494C0.639252 10.0133 0.796417 10.0318 0.904785 9.94629L2.3374 8.81543L3.5166 9.7002C3.6055 9.7666 3.72751 9.7666 3.81641 9.7002L5 8.8125L6.18359 9.7002C6.27249 9.7666 6.3945 9.7666 6.4834 9.7002L7.6626 8.81543L9.09521 9.94629C9.13925 9.98117 9.19382 10.0001 9.25 10H9.25031C9.38831 9.99991 9.50009 9.88797 9.5 9.75V0.249695C9.49991 0.111725 9.388 -9.14938e-05 9.25 5.61775e-08ZM9 9.23438L7.82129 8.30371C7.77716 8.26895 7.72266 8.25006 7.6665 8.25C7.61246 8.24997 7.55988 8.26746 7.5166 8.2998L6.3335 9.1875L5.1499 8.2998C5.061 8.2334 4.939 8.2334 4.8501 8.2998L3.6665 9.1875L2.4834 8.2998C2.39255 8.23236 2.26782 8.23395 2.17871 8.30371L1 9.23438V0.5H9V9.23438ZM2.75 6.5H7.25C7.38806 6.5 7.5 6.38806 7.5 6.25C7.5 6.11194 7.38806 6 7.25 6H2.75C2.61194 6 2.5 6.11194 2.5 6.25C2.5 6.38806 2.61194 6.5 2.75 6.5Z" fill="#1247AF"/>
</svg>
