<svg width="40" height="16" viewBox="0 0 40 16" fill="none" xmlns="http://www.w3.org/2000/svg">
<g clip-path="url(#clip0_601_8980)">
<path d="M29.6797 9.04H31.0742V13.8351H29.6797V9.04ZM26.2477 13.8351V10.5285C26.2477 10.2579 26.2429 9.99835 26.2333 9.74864C26.2239 9.50021 26.2112 9.26453 26.1919 9.04H27.4704L27.5212 9.89812C27.6423 9.60363 27.8364 9.38086 28.1024 9.22947C28.3666 9.07825 28.6977 9.00351 29.0926 9.00351H29.1339L29.1291 10.2627C29.0448 10.2563 28.9826 10.2516 28.9412 10.2484C28.8982 10.2452 28.8601 10.2436 28.8266 10.2436C28.462 10.2436 28.1771 10.3327 27.9719 10.5096C27.7649 10.6861 27.6613 10.933 27.6613 11.2466V13.8351H26.2477ZM24.1392 9.04H25.5338V13.8351H24.1392V9.04ZM21.8794 13.8351L21.8334 13.1505C21.6615 13.4085 21.4546 13.6028 21.2126 13.7333C20.9707 13.8638 20.6969 13.9291 20.3911 13.9291C19.8101 13.9291 19.3389 13.7014 18.9759 13.2461C18.6145 12.7907 18.4331 12.1874 18.4331 11.4392C18.4331 10.6861 18.6098 10.0828 18.9647 9.63072C19.3198 9.17864 19.7894 8.95252 20.3736 8.95252C20.6904 8.95252 20.9675 9.0145 21.203 9.13721C21.4403 9.25991 21.6439 9.44763 21.8144 9.69909V6.9563H23.1994V12.8704C23.1994 13.1124 23.2026 13.3097 23.2104 13.4595C23.2185 13.6106 23.2313 13.7365 23.2456 13.8351H21.8794ZM19.8466 11.4472C19.8466 11.9423 19.9326 12.326 20.103 12.5982C20.2733 12.8704 20.5136 13.0057 20.8209 13.0057C21.1345 13.0057 21.3845 12.8672 21.5676 12.5886C21.7507 12.3101 21.843 11.9296 21.843 11.4472C21.843 10.9631 21.7507 10.5795 21.5676 10.301C21.3845 10.0208 21.1345 9.88075 20.8209 9.88075C20.5136 9.88075 20.2733 10.0175 20.103 10.293C19.9326 10.5684 19.8466 10.9537 19.8466 11.4472ZM13.2562 13.8351V9.96011C13.2562 9.82338 13.253 9.68012 13.245 9.53033C13.2372 9.38086 13.2245 9.21688 13.2101 9.04H14.5379L14.5664 9.75964C14.7463 9.46994 14.9613 9.25816 15.2081 9.12446C15.4548 8.99076 15.7572 8.92383 16.1155 8.92383C16.6439 8.92383 17.0356 9.07362 17.2918 9.37448C17.5481 9.67359 17.6771 10.132 17.6771 10.7483V13.8351H16.3064V10.9393C16.3064 10.5811 16.2444 10.3249 16.1217 10.1689C15.9991 10.0144 15.8001 9.93636 15.5233 9.93636C15.2558 9.93636 15.0392 10.0224 14.8768 10.1958C14.7128 10.3677 14.6317 10.597 14.6317 10.8836V13.8351H13.2562ZM0.0376279 13.8351V9.96011C0.0376279 9.78816 0.0342815 9.62754 0.0280667 9.47631C0.0215332 9.32508 0.0121313 9.18023 0.000976562 9.04H1.32074L1.3574 9.75964C1.53715 9.46994 1.75052 9.25816 1.99895 9.12446C2.24563 8.99076 2.54809 8.92383 2.90472 8.92383C3.26598 8.92383 3.57002 9.00351 3.82005 9.1643C4.06832 9.32508 4.24983 9.55742 4.36456 9.86163C4.52057 9.53846 4.72422 9.30118 4.97568 9.14995C5.2273 8.99873 5.54569 8.92383 5.93244 8.92383C6.46102 8.92383 6.8543 9.07362 7.1123 9.37448C7.37013 9.67359 7.49905 10.132 7.49905 10.7483V13.8351H6.11411V10.9393C6.11411 10.5811 6.05196 10.3249 5.92941 10.1689C5.80671 10.0144 5.60784 9.93636 5.33072 9.93636C5.06333 9.93636 4.84852 10.0224 4.68916 10.1958C4.52838 10.3677 4.44886 10.597 4.44886 10.8836V13.8351H3.06392V10.9393C3.06392 10.5843 3.00336 10.3295 2.88241 10.172C2.76146 10.0144 2.56562 9.93636 2.29487 9.93636C2.02764 9.93636 1.81586 10.0224 1.65826 10.1928C1.50065 10.3647 1.42257 10.5939 1.42257 10.8836V13.8351H0.0376279ZM11.2463 13.3343C10.9669 13.5782 10.4203 13.84 10.0446 13.9245C9.90051 13.9583 9.74339 13.9742 9.57352 13.9742C9.17051 13.9742 8.83332 13.8322 8.56162 13.5495C8.28992 13.2654 8.15479 12.9037 8.15479 12.4642C8.15479 12.1112 8.22427 11.8242 8.36211 11.6016C8.50123 11.3776 8.69675 11.2016 8.95044 11.0729C9.20143 10.9454 9.51424 10.8531 9.88633 10.7989C10.2584 10.7448 10.6445 10.7038 11.0436 10.6789V10.6525C11.0436 9.50579 9.40811 9.64857 8.70886 10.1387L8.4668 9.23537C9.01339 8.97881 9.55105 8.84846 10.2195 8.84846C11.3921 8.84846 12.3823 9.41066 12.3823 10.7542V13.8455H11.2463V13.3343ZM11.1365 12.3987V11.4743C10.9252 11.4945 10.6946 11.5216 10.4476 11.5556C10.2007 11.5909 10.0133 11.6317 9.88537 11.6775C9.72921 11.7332 9.60873 11.8163 9.52699 11.9229C9.44348 12.0311 9.40189 12.1716 9.40189 12.3475C9.40189 13.562 10.82 13.1677 11.1365 12.3987Z" fill="#0061AE"/>
<path fill-rule="evenodd" clip-rule="evenodd" d="M15.4795 5.98555C15.9074 6.46362 16.7035 7.75996 17.6459 7.67996C19.8541 7.49225 21.1115 5.10449 23.8376 5.27484C24.9575 5.34495 25.4849 7.22326 26.5952 7.385C28.3456 7.64013 30.0226 4.9488 32.8754 5.10321C34.0481 5.16663 34.5328 7.13705 35.7018 7.25082C36.7917 7.35695 38.4987 5.81186 39.9988 5.01095C39.6168 4.36763 38.9071 3.36307 38.1514 3.31223C36.6639 3.21216 35.4738 5.11261 34.1655 4.78084C33.4039 4.5877 32.5366 2.49586 31.2821 2.50001C28.96 2.50766 27.3576 4.80681 25.3045 4.98848C24.1394 5.09158 23.5793 2.50032 22.0192 2.73856C19.8842 3.06444 17.7022 4.8237 15.4795 5.98555Z" fill="url(#paint0_linear_601_8980)"/>
</g>
<defs>
<linearGradient id="paint0_linear_601_8980" x1="17.0273" y1="9.56114" x2="38.451" y2="0.694839" gradientUnits="userSpaceOnUse">
<stop stop-color="#F6AD02"/>
<stop offset="0.2" stop-color="#FFF000"/>
<stop offset="0.411765" stop-color="#F6AD02"/>
<stop offset="0.658824" stop-color="#FFF000"/>
<stop offset="0.788235" stop-color="#F6AD02"/>
<stop offset="1" stop-color="#FFF000"/>
</linearGradient>
<clipPath id="clip0_601_8980">
<rect width="40" height="11.4741" fill="white" transform="translate(0 2.5)"/>
</clipPath>
</defs>
</svg>
