<svg width="40" height="16" viewBox="0 0 40 16" fill="none" xmlns="http://www.w3.org/2000/svg">
<g clip-path="url(#clip0_578_8857)">
<path fill-rule="evenodd" clip-rule="evenodd" d="M7.45016 15.0963H8.29891C8.48627 15.0963 8.62459 15.0825 8.71386 15.0548C8.84212 15.0146 8.9402 14.9479 9.0081 14.8549C9.07474 14.7618 9.10869 14.6462 9.10869 14.5053C9.10869 14.3758 9.076 14.2664 9.01187 14.1771C8.94774 14.0879 8.86098 14.0225 8.75158 13.981C8.64219 13.9395 8.47244 13.9194 8.23856 13.9194H7.4489V15.0976L7.45016 15.0963ZM7.45016 13.5132H8.18826C8.3819 13.5132 8.51896 13.5019 8.59944 13.4805C8.71638 13.4478 8.80691 13.3925 8.87104 13.3158C8.93391 13.2391 8.9666 13.1335 8.9666 13.0015C8.9666 12.8782 8.93768 12.7764 8.87984 12.6934C8.822 12.6117 8.7453 12.5551 8.64973 12.5236C8.55417 12.4922 8.3819 12.4771 8.13419 12.4771H7.45016V13.5132ZM7 15.5V12.0735H8.28005C8.53908 12.0735 8.74404 12.1062 8.89619 12.1728C9.04708 12.2395 9.17156 12.3426 9.26838 12.4821C9.36521 12.623 9.41299 12.7776 9.41299 12.9474C9.41299 13.1046 9.37149 13.2467 9.2885 13.3724C9.20551 13.4981 9.08857 13.6 8.93768 13.6767C9.1351 13.7358 9.29102 13.8364 9.40419 13.9797C9.51861 14.1218 9.57519 14.2979 9.57519 14.5066C9.57519 14.7141 9.52364 14.8964 9.42053 15.0523C9.31742 15.2095 9.18036 15.3227 9.0081 15.3943C8.83583 15.4647 8.59944 15.5012 8.30017 15.5012H7.00251L7 15.5Z" fill="#332C2B"/>
<path fill-rule="evenodd" clip-rule="evenodd" d="M10.7954 14.0929H11.956L11.6014 13.1435C11.492 12.8518 11.4115 12.6154 11.36 12.4331C11.3159 12.6532 11.2531 12.8707 11.1739 13.0882L10.7954 14.0929ZM9.81836 15.4999L11.1324 12.0735H11.614L13.0097 15.4999H12.4941L12.0981 14.4626H10.6646L10.2937 15.4999H9.81836Z" fill="#332C2B"/>
<path fill-rule="evenodd" clip-rule="evenodd" d="M13.3516 15.4999V12.0735H13.8143L15.6049 14.7694V12.0735H16.0362V15.4999H15.5734L13.7854 12.804V15.4999H13.3516Z" fill="#332C2B"/>
<path fill-rule="evenodd" clip-rule="evenodd" d="M16.7842 15.4999V12.0735H17.2343V13.7723L18.9268 12.0735H19.5392L18.1082 13.4629L19.6008 15.4999H19.006L17.7951 13.7672L17.2343 14.3129V15.4999H16.7842Z" fill="#332C2B"/>
<path fill-rule="evenodd" clip-rule="evenodd" d="M22.444 12.0735L21.8832 13.5434L21.3211 12.0735H20.3076V15.4999H20.7024H20.9376H21.091V13.4516L21.6002 14.8901H21.8656H21.9008H22.1648L22.6741 13.4516V15.4999H22.8287H23.0639H23.4587V12.0735H22.444Z" fill="#332C2B"/>
<path fill-rule="evenodd" clip-rule="evenodd" d="M26.7512 12.916V12.0735H26.6896H24.5621H24.2754V12.4633V15.1064V15.4999H24.9984H26.7512V14.9228V14.709H25.1342V14.1822H26.4734V13.3913H25.1342V12.916H26.7512Z" fill="#332C2B"/>
<path fill-rule="evenodd" clip-rule="evenodd" d="M28.5533 12.7902C28.7822 12.7902 28.9733 12.9537 29.0173 13.1725H29.9528V12.8456C29.9528 12.3401 29.3606 11.9302 28.6287 11.9302C27.8982 11.9302 27.3047 12.3401 27.3047 12.8456V13.043V14.5846C27.3047 14.9631 27.6366 15.2875 28.1094 15.4271C28.2691 15.4736 28.4439 15.5 28.6287 15.5C28.8249 15.5 29.0097 15.4698 29.177 15.417C29.6347 15.2724 29.9516 14.9543 29.9516 14.5833V13.4353H28.5483V14.2074C28.5483 14.2074 29.0085 14.2074 29.0236 14.2074C29.0387 14.2074 28.9733 14.3909 28.9645 14.406C28.9293 14.4689 28.8815 14.523 28.8236 14.5645C28.5168 14.782 28.078 14.5506 28.078 14.1734V13.2668C28.078 13.0028 28.2905 12.789 28.552 12.789L28.5533 12.7902Z" fill="#332C2B"/>
<path fill-rule="evenodd" clip-rule="evenodd" d="M31.5331 14.3029L31.5733 14.1822L31.8411 13.3913L31.8487 13.3712L31.8562 13.3913L32.124 14.1822L32.1643 14.3029H31.5331ZM33.2683 15.0938L33.1375 14.7091L32.9992 14.3029L32.959 14.1822L32.6911 13.3913L32.5302 12.916L32.2661 12.1377L32.2448 12.0723H31.4538L31.4325 12.1377L31.1684 12.916L31.103 13.1071L30.292 15.5H30.8629H31.1269L31.2652 15.0938H32.4334L32.5717 15.5H33.4066L33.2683 15.0938Z" fill="#332C2B"/>
<path fill-rule="evenodd" clip-rule="evenodd" d="M18.3421 8.21946C18.3408 8.21569 18.3396 8.21192 18.3383 8.20814C18.3383 8.20689 18.3371 8.20563 18.3371 8.20437C18.3358 8.19808 18.3346 8.19305 18.332 8.18677H18.3232L18.3459 8.23581C18.3446 8.22952 18.3421 8.22449 18.3408 8.2182L18.3421 8.21946Z" fill="#DF5A27"/>
<path fill-rule="evenodd" clip-rule="evenodd" d="M19.0424 0.500244H14.7999L14.7973 0.506531L10.8516 9.53229H14.9206L16.9211 5.15395L19.0449 0.506531L19.0424 0.500244Z" fill="#FBC800"/>
<path fill-rule="evenodd" clip-rule="evenodd" d="M25.6106 0.536537L25.6055 0.522705L21.3555 0.52522L23.4868 5.18395L25.4848 9.556H29.5538L25.6106 0.536537Z" fill="#474443"/>
<path fill-rule="evenodd" clip-rule="evenodd" d="M22.1308 7.61327C22.1296 7.60322 22.1296 7.59316 22.1283 7.5831C22.1283 7.58184 22.1283 7.57932 22.1283 7.57807C22.1283 7.5743 22.1283 7.57052 22.127 7.56549C22.1245 7.53029 22.1195 7.49508 22.1145 7.46113C22.1145 7.45861 22.1132 7.45736 22.1132 7.45484C22.1082 7.41712 22.1006 7.38065 22.0918 7.34419C22.0906 7.33916 22.0893 7.33539 22.0881 7.33036C22.0818 7.30521 22.0755 7.2788 22.0679 7.25365C22.0114 7.04492 21.9246 6.84373 21.8315 6.64758C21.6618 6.28921 21.4933 5.93085 21.3235 5.57248L20.1956 3.13184H20.1894L19.0615 5.57248C18.8917 5.93085 18.7232 6.28921 18.5535 6.64758C18.4604 6.84373 18.3736 7.04492 18.3171 7.25365C18.3095 7.2788 18.3032 7.30395 18.2969 7.33036C18.2957 7.33539 18.2944 7.34042 18.2932 7.34544C18.2856 7.38191 18.2781 7.41712 18.273 7.45484C18.273 7.45736 18.2718 7.45987 18.2718 7.46238C18.2668 7.49634 18.2617 7.53154 18.2592 7.56675C18.2592 7.57052 18.2592 7.5743 18.258 7.57807C18.258 7.57932 18.258 7.58184 18.258 7.5831C18.2567 7.59441 18.2567 7.60447 18.2554 7.61579C18.2554 7.62459 18.2542 7.63465 18.2542 7.64345C18.2529 7.66483 18.2529 7.6862 18.2529 7.70884C18.2529 7.7453 18.2542 7.78303 18.2567 7.81949C18.2567 7.82829 18.258 7.83835 18.2592 7.84715C18.2617 7.87859 18.2655 7.90877 18.2693 7.93895C18.2705 7.94523 18.2705 7.95152 18.2718 7.95781C18.2831 8.03451 18.2995 8.1087 18.3208 8.18289C18.3208 8.18414 18.3208 8.1854 18.3221 8.18666C18.3233 8.19043 18.3246 8.1942 18.3259 8.19797C18.3271 8.20426 18.3296 8.20929 18.3309 8.21558L18.5044 8.58777L18.6188 8.76758C18.639 8.79399 18.6603 8.8204 18.683 8.8468C18.6905 8.8556 18.6981 8.86315 18.7056 8.87195C18.7295 8.89836 18.7534 8.92476 18.7785 8.94991C18.7848 8.9562 18.7911 8.96248 18.7974 8.96877C18.8225 8.99266 18.8477 9.0153 18.8728 9.03793C18.8779 9.04296 18.8842 9.04799 18.8892 9.05302C18.9168 9.07691 18.947 9.09954 18.9759 9.12218C18.9835 9.12721 18.9898 9.13224 18.9973 9.13852C19.0275 9.16116 19.0589 9.18128 19.0904 9.20265C19.0979 9.20768 19.1055 9.21271 19.1143 9.21774C19.147 9.23786 19.1796 9.25672 19.2123 9.27558C19.2199 9.27935 19.2274 9.28313 19.235 9.28816C19.2702 9.30702 19.3054 9.32462 19.3419 9.34097C19.3469 9.34348 19.3532 9.346 19.3582 9.34851C19.3959 9.36486 19.4336 9.38121 19.4726 9.39504C19.4751 9.39629 19.4764 9.39629 19.4789 9.39755C19.5192 9.41264 19.5594 9.42521 19.6009 9.43779C19.6072 9.43905 19.6122 9.44156 19.6185 9.44282C19.6587 9.45413 19.699 9.46419 19.7392 9.47425C19.7467 9.47551 19.7543 9.47803 19.7606 9.47928C19.8008 9.48809 19.8423 9.49563 19.8838 9.50192C19.8913 9.50317 19.8976 9.50443 19.9052 9.50443C19.9479 9.51072 19.9907 9.51575 20.0347 9.51826C20.0397 9.51826 20.0448 9.51826 20.051 9.51952C20.0963 9.52204 20.1428 9.52455 20.1894 9.52455C20.1906 9.52455 20.1906 9.52455 20.1919 9.52455C20.1931 9.52455 20.1931 9.52455 20.1944 9.52455C20.2409 9.52455 20.2874 9.52204 20.3327 9.51952C20.3377 9.51952 20.3428 9.51952 20.349 9.51826C20.3931 9.51449 20.4358 9.50946 20.4786 9.50443C20.4861 9.50317 20.4924 9.50192 20.4999 9.50192C20.5414 9.49563 20.5829 9.48809 20.6232 9.47928C20.6307 9.47803 20.6383 9.47677 20.6445 9.47425C20.686 9.46545 20.7263 9.45539 20.7653 9.44282C20.7715 9.44156 20.7766 9.43905 20.7829 9.43779C20.8244 9.42521 20.8646 9.41264 20.9048 9.39755C20.9061 9.39629 20.9086 9.39629 20.9099 9.39504C20.9488 9.37995 20.9866 9.36486 21.0243 9.34725C21.0293 9.34474 21.0356 9.34223 21.0406 9.33971C21.0771 9.32336 21.1123 9.30576 21.1475 9.2869C21.1551 9.28313 21.1626 9.27935 21.1701 9.27558C21.2041 9.25672 21.2368 9.23786 21.2682 9.21774C21.2758 9.21271 21.2833 9.20768 21.2909 9.20265C21.3223 9.18253 21.3537 9.16116 21.3839 9.13852C21.3914 9.13349 21.3977 9.12846 21.404 9.12343C21.4342 9.1008 21.4631 9.07817 21.492 9.05428C21.4971 9.04925 21.5034 9.04422 21.5084 9.04044C21.5348 9.01781 21.5599 8.99392 21.5838 8.97003C21.5901 8.96374 21.5964 8.95746 21.6027 8.95117C21.6278 8.92602 21.653 8.89961 21.6769 8.87321C21.6844 8.86441 21.692 8.85686 21.6995 8.84806C21.7221 8.82165 21.7435 8.79525 21.7649 8.76758C21.7724 8.75753 21.7787 8.74872 21.7863 8.73866C21.8064 8.711 21.8265 8.68334 21.8454 8.65442C21.8517 8.64436 21.858 8.6343 21.8642 8.6255C21.8818 8.59783 21.8982 8.57017 21.9133 8.54251C21.917 8.53496 21.9221 8.52616 21.9259 8.51862L22.0164 8.3212C22.0239 8.30234 22.0302 8.28348 22.0365 8.26462C22.0365 8.26336 22.0378 8.26085 22.0378 8.25959C22.044 8.23947 22.0503 8.22061 22.0566 8.20049C22.0579 8.19672 22.0591 8.19294 22.0604 8.18917C22.0604 8.18791 22.0617 8.18666 22.0617 8.1854C22.083 8.11247 22.0994 8.03702 22.1107 7.96158C22.1119 7.95529 22.1119 7.94901 22.1132 7.94146C22.117 7.91128 22.1208 7.8811 22.1233 7.84967C22.1245 7.83961 22.1245 7.83081 22.1258 7.82201C22.1283 7.78554 22.1296 7.74908 22.1296 7.71135C22.1296 7.68998 22.1283 7.6686 22.1283 7.64722C22.1283 7.63717 22.127 7.62711 22.127 7.61579L22.1308 7.61327Z" fill="#DF5A27"/>
<path fill-rule="evenodd" clip-rule="evenodd" d="M19.0437 0.506348L16.9199 5.15377L17.9045 7.29515L18.3232 8.18666H18.332C18.3131 8.12002 18.2981 8.05086 18.288 7.9817C18.2867 7.97542 18.2867 7.96913 18.2855 7.96284C18.2817 7.93266 18.2779 7.90249 18.2754 7.87231C18.2742 7.86351 18.2742 7.85345 18.2729 7.84465C18.2704 7.80818 18.2691 7.77046 18.2691 7.73273C18.2691 7.73148 18.2691 7.73022 18.2691 7.72896C18.2691 7.70759 18.2691 7.68621 18.2704 7.66483C18.2704 7.65603 18.2716 7.64597 18.2716 7.63717C18.2729 7.62585 18.2729 7.61579 18.2742 7.60448C18.2742 7.60322 18.2742 7.60071 18.2742 7.59945C18.2742 7.59568 18.2742 7.5919 18.2754 7.58813C18.2779 7.55292 18.283 7.51897 18.288 7.48502C18.288 7.48251 18.2892 7.47999 18.2892 7.47748C18.2943 7.44101 18.3018 7.40455 18.3094 7.36934C18.3106 7.36431 18.3119 7.35928 18.3131 7.35425C18.3194 7.3291 18.3257 7.30395 18.332 7.27881C18.3886 7.07133 18.4753 6.8714 18.5684 6.67525C18.7381 6.31814 18.9066 5.96229 19.0764 5.60518L20.1917 3.13435L19.0437 0.507605V0.506348Z" fill="#F3A153"/>
<path fill-rule="evenodd" clip-rule="evenodd" d="M21.3475 0.506348L23.4713 5.15377L22.4867 7.29515L22.0617 8.2269C22.0806 8.16025 22.0932 8.05212 22.1032 7.98296C22.1045 7.97667 22.1045 7.97038 22.1057 7.9641C22.1095 7.93392 22.1133 7.90374 22.1158 7.87356C22.1171 7.86476 22.1171 7.8547 22.1183 7.8459C22.1208 7.80944 22.1221 7.77171 22.1221 7.73399C22.1221 7.73273 22.1221 7.73148 22.1221 7.73022C22.1221 7.70884 22.1221 7.68747 22.1208 7.66609C22.1208 7.65729 22.1196 7.64723 22.1196 7.63843C22.1183 7.62711 22.1183 7.61705 22.1171 7.60573C22.1171 7.60448 22.1171 7.60196 22.1171 7.6007C22.1171 7.59693 22.1171 7.59316 22.1158 7.58939C22.1133 7.55418 22.1083 7.52023 22.1032 7.48628C22.1032 7.48376 22.102 7.48125 22.102 7.47873C22.0969 7.44227 22.0894 7.4058 22.0819 7.3706C22.0806 7.36557 22.0793 7.36054 22.0781 7.35551C22.0718 7.33036 22.0655 7.30521 22.058 7.28006C22.0014 7.07133 21.9146 6.87266 21.8216 6.6765C21.6518 6.31939 21.4833 5.96354 21.3136 5.60644L20.1982 3.13561L21.3463 0.508862L21.3475 0.506348Z" fill="#A1A1A1"/>
<path fill-rule="evenodd" clip-rule="evenodd" d="M18.3471 8.23706C18.3459 8.23078 18.3434 8.22575 18.3421 8.21946C18.3408 8.21569 18.3396 8.21192 18.3383 8.20814C18.3383 8.20689 18.3371 8.20563 18.3371 8.20437C18.3358 8.19808 18.3346 8.19305 18.332 8.18677H18.3295H18.3232L18.3459 8.23581L18.3471 8.23706Z" fill="#DF5A27"/>
</g>
<defs>
<clipPath id="clip0_578_8857">
<rect width="26.4058" height="15" fill="white" transform="translate(7 0.5)"/>
</clipPath>
</defs>
</svg>
