<svg width="25" height="24" viewBox="0 0 25 24" fill="none" xmlns="http://www.w3.org/2000/svg">
<path d="M15.8546 22H9.39458C9.04052 22.0005 8.69267 21.907 8.38664 21.7289C8.08062 21.5508 7.82741 21.2946 7.65295 20.9865C7.47848 20.6784 7.38902 20.3295 7.39373 19.9755C7.39844 19.6215 7.49714 19.275 7.67974 18.9717L9.16608 16.4863C9.25495 16.338 9.38074 16.2152 9.53118 16.13C9.68162 16.0448 9.85157 16 10.0245 16H15.2247C15.3976 16 15.5675 16.0448 15.718 16.13C15.8684 16.2152 15.9942 16.338 16.0831 16.4863L17.5728 18.9766C17.7542 19.2801 17.8518 19.6263 17.8556 19.9798C17.8595 20.3334 17.7695 20.6816 17.5948 20.989C17.4201 21.2964 17.167 21.552 16.8612 21.7296C16.5555 21.9072 16.2082 22.0005 15.8546 22Z" fill="#D68624"/>
<path d="M19.625 18H5.625C4.82962 17.9991 4.06706 17.6828 3.50464 17.1204C2.94222 16.5579 2.62587 15.7954 2.625 15V5C2.62587 4.20462 2.94222 3.44206 3.50464 2.87964C4.06706 2.31722 4.82962 2.00087 5.625 2H19.625C20.4204 2.00087 21.1829 2.31722 21.7454 2.87964C22.3078 3.44206 22.6241 4.20462 22.625 5V15C22.6241 15.7954 22.3078 16.5579 21.7454 17.1204C21.1829 17.6828 20.4204 17.9991 19.625 18Z" fill="#FFBA65"/>
<path d="M19.625 18H5.625C4.82935 18 4.06629 17.6839 3.50368 17.1213C2.94107 16.5587 2.625 15.7956 2.625 15V13H22.625V15C22.625 15.7956 22.3089 16.5587 21.7463 17.1213C21.1837 17.6839 20.4206 18 19.625 18Z" fill="#925409"/>
</svg>
