<svg width="21" height="20" viewBox="0 0 21 20" fill="none" xmlns="http://www.w3.org/2000/svg">
<path d="M17.625 0H3.625C1.96887 0.0018311 0.626831 1.34387 0.625 3V13C0.626831 14.6561 1.96887 15.9982 3.625 16H6.26154L5.6767 16.9736C5.4895 17.2856 5.39111 17.6429 5.39203 18.0068C5.39484 19.1104 6.29181 20.0028 7.39545 20H13.8555C14.2165 19.9995 14.5707 19.9011 14.8802 19.7153C15.8263 19.1477 16.1331 17.9207 15.5655 16.9746L14.9852 16H17.625C19.2811 15.9982 20.6232 14.6561 20.625 13V3C20.6232 1.34387 19.2811 0.0018311 17.625 0ZM13.8555 19H7.39551C7.21301 19.0009 7.03381 18.9518 6.87726 18.858C6.4043 18.5745 6.25067 17.9612 6.53412 17.4883L7.42859 16H13.8212L14.7071 17.4873C14.8 17.6417 14.8495 17.8184 14.8501 17.9987C14.8519 18.5499 14.4067 18.9982 13.8555 19ZM19.625 13C19.6236 14.104 18.729 14.9986 17.625 15H3.625C2.52094 14.9987 1.62628 14.1041 1.625 13V12H19.625V13ZM19.625 11H1.625V3C1.62628 1.89594 2.52094 1.00128 3.625 1H17.625C18.729 1.0014 19.6236 1.896 19.625 3V11Z" fill="#969CA9"/>
</svg>
