<svg width="19" height="18" viewBox="0 0 19 18" fill="none" xmlns="http://www.w3.org/2000/svg">
<path d="M8.48926 12.1054C8.41894 12.1757 8.37944 12.271 8.37944 12.3705C8.37944 12.5776 8.5473 12.7455 8.75439 12.7455C8.85387 12.7456 8.94926 12.7061 9.01948 12.6356L12.3901 9.26504C12.3901 9.265 12.3902 9.265 12.3902 9.26495C12.5366 9.11851 12.5365 8.88116 12.3901 8.73482L9.01948 5.36421C8.87419 5.22386 8.6438 5.22386 8.49846 5.36421C8.3495 5.50809 8.34538 5.74548 8.48926 5.89444L11.2198 8.62491H2.375C2.16791 8.62491 2 8.79282 2 8.99991C2 9.207 2.16791 9.37491 2.375 9.37491H11.2198L8.48926 12.1054ZM12.815 2.28397C9.10564 0.442841 4.60614 1.95735 2.76501 5.66666C2.67278 5.8521 2.74835 6.07722 2.93379 6.16946C3.11928 6.2617 3.34441 6.18613 3.43665 6.00069C4.09198 4.67976 5.16191 3.60983 6.48283 2.9545C9.82162 1.29803 13.871 2.66185 15.5275 6.00069C17.1839 9.33948 15.8201 13.3889 12.4813 15.0454C9.14253 16.7018 5.09306 15.338 3.43665 11.9992C3.34441 11.8137 3.11928 11.7381 2.93384 11.8304C2.74835 11.9226 2.67278 12.1477 2.76501 12.3332C4.02304 14.8914 6.62982 16.5082 9.48059 16.4984C12.3288 16.4987 14.9313 14.8852 16.1976 12.3339C18.0388 8.62463 16.5243 4.12509 12.815 2.28397Z" fill="#E62929"/>
</svg>
