<svg width="16" height="16" viewBox="0 0 16 16" fill="none" xmlns="http://www.w3.org/2000/svg">
<path d="M8.4425 8.75008L6.7175 10.4676C6.6472 10.5373 6.59141 10.6202 6.55333 10.7116C6.51525 10.803 6.49565 10.9011 6.49565 11.0001C6.49565 11.0991 6.51525 11.1971 6.55333 11.2885C6.59141 11.3799 6.6472 11.4629 6.7175 11.5326C6.78722 11.6029 6.87017 11.6587 6.96157 11.6967C7.05296 11.7348 7.15099 11.7544 7.25 11.7544C7.34901 11.7544 7.44704 11.7348 7.53843 11.6967C7.62983 11.6587 7.71278 11.6029 7.7825 11.5326L10.7825 8.53258C10.8508 8.46125 10.9043 8.37714 10.94 8.28508C11.015 8.10248 11.015 7.89767 10.94 7.71508C10.9043 7.62301 10.8508 7.5389 10.7825 7.46758L7.7825 4.46757C7.71257 4.39765 7.62955 4.34218 7.53819 4.30433C7.44682 4.26648 7.34889 4.24701 7.25 4.24701C7.1511 4.24701 7.05318 4.26648 6.96181 4.30433C6.87045 4.34218 6.78743 4.39765 6.7175 4.46757C6.64757 4.5375 6.5921 4.62052 6.55425 4.71189C6.51641 4.80325 6.49693 4.90118 6.49693 5.00007C6.49693 5.09897 6.51641 5.1969 6.55425 5.28826C6.5921 5.37963 6.64757 5.46265 6.7175 5.53257L8.4425 7.25008H1.25C1.05109 7.25008 0.860322 7.32909 0.71967 7.46975C0.579018 7.6104 0.5 7.80116 0.5 8.00008C0.5 8.19899 0.579018 8.38975 0.71967 8.53041C0.860322 8.67106 1.05109 8.75008 1.25 8.75008H8.4425ZM8 0.500075C6.59832 0.493817 5.22293 0.880484 4.02985 1.61622C2.83677 2.35195 1.87374 3.40731 1.25 4.66257C1.16049 4.8416 1.14576 5.04884 1.20905 5.23872C1.27235 5.4286 1.40848 5.58556 1.5875 5.67507C1.76652 5.76459 1.97377 5.77931 2.16365 5.71602C2.35353 5.65273 2.51049 5.5166 2.6 5.33757C3.07414 4.38007 3.79537 3.56654 4.68916 2.98107C5.58295 2.39559 6.61687 2.05941 7.68407 2.00727C8.75127 1.95512 9.81303 2.18891 10.7596 2.68446C11.7062 3.18001 12.5034 3.91935 13.0686 4.82607C13.6338 5.7328 13.9467 6.77401 13.9748 7.84211C14.0029 8.91022 13.7453 9.96646 13.2286 10.9017C12.7119 11.8369 11.9549 12.6172 11.0357 13.1619C10.1164 13.7066 9.06846 13.996 8 14.0001C6.88166 14.0049 5.78461 13.6943 4.83477 13.104C3.88492 12.5137 3.12077 11.6675 2.63 10.6626C2.54049 10.4836 2.38353 10.3474 2.19365 10.2841C2.00377 10.2208 1.79652 10.2356 1.6175 10.3251C1.43848 10.4146 1.30235 10.5715 1.23905 10.7614C1.17576 10.9513 1.19049 11.1586 1.28 11.3376C1.87462 12.5342 2.77814 13.5503 3.8971 14.2806C5.01606 15.011 6.30983 15.4291 7.64459 15.4918C8.97934 15.5545 10.3066 15.2595 11.4891 14.6372C12.6716 14.0149 13.6664 13.0881 14.3705 11.9524C15.0747 10.8168 15.4627 9.51368 15.4944 8.17783C15.526 6.84198 15.2002 5.52192 14.5507 4.3542C13.9011 3.18648 12.9514 2.2135 11.7997 1.5359C10.648 0.858308 9.33622 0.500702 8 0.500075Z" fill="#1247AF"/>
</svg>
