<svg width="25" height="24" viewBox="0 0 25 24" fill="none" xmlns="http://www.w3.org/2000/svg">
<path d="M18.125 20.0001V3.00007C18.125 2.44792 17.6773 2.00036 17.1252 2.00041C16.9507 2.00043 16.7793 2.0461 16.6279 2.13288L13.625 3.85359L10.6221 2.13288C10.3142 1.95645 9.93583 1.95645 9.62793 2.13288L6.625 3.85359L3.62207 2.13288C3.14308 1.85822 2.53213 2.02385 2.25747 2.50284C2.17069 2.65418 2.12502 2.82561 2.125 3.00007V20.0001C2.125 21.1046 3.02043 22.0001 4.125 22.0001H20.125C19.0204 22.0001 18.125 21.1046 18.125 20.0001Z" fill="#1FB393"/>
<path d="M22.124 14V20C22.124 21.1046 21.2286 22 20.124 22C19.0194 22 18.124 21.1046 18.124 20V12H20.124C21.2286 12 22.124 12.8954 22.124 14ZM12.125 10H8.125C7.57272 10 7.125 9.55229 7.125 9C7.125 8.44771 7.57272 8 8.125 8H12.125C12.6773 8 13.125 8.44771 13.125 9C13.125 9.55229 12.6773 10 12.125 10ZM9.125 14H7.125C6.57272 14 6.125 13.5523 6.125 13C6.125 12.4477 6.57272 12 7.125 12H9.125C9.67729 12 10.125 12.4477 10.125 13C10.125 13.5523 9.67729 14 9.125 14ZM9.125 18H7.125C6.57272 18 6.125 17.5523 6.125 17C6.125 16.4477 6.57272 16 7.125 16H9.125C9.67729 16 10.125 16.4477 10.125 17C10.125 17.5523 9.67729 18 9.125 18ZM13.125 14C12.5784 14.0057 12.1307 13.5671 12.125 13.0205C12.1236 12.8829 12.1509 12.7466 12.2051 12.6201C12.3985 12.1148 12.9649 11.8619 13.4703 12.0553C13.6044 12.1066 13.7255 12.1867 13.8252 12.29C13.9218 12.3826 13.9968 12.4952 14.0449 12.6201C14.0962 12.7403 14.1234 12.8693 14.125 13C14.1212 13.5507 13.6757 13.9962 13.125 14ZM13.125 18C12.9944 17.9984 12.8653 17.9712 12.7451 17.9199C12.6239 17.8693 12.5122 17.7983 12.415 17.7099C12.324 17.6127 12.2494 17.5012 12.1943 17.3798C12.1465 17.259 12.1229 17.1299 12.125 17C12.1285 16.7352 12.2321 16.4815 12.415 16.29C12.651 16.0556 12.9883 15.9542 13.3144 16.0195C13.3807 16.0292 13.445 16.0497 13.5048 16.08C13.5686 16.1016 13.629 16.1319 13.6845 16.1699C13.737 16.2069 13.7873 16.247 13.835 16.29C14.0175 16.4818 14.1211 16.7353 14.125 17C14.1273 17.2659 14.0228 17.5217 13.835 17.71C13.7377 17.7982 13.626 17.8692 13.5049 17.92C13.3847 17.9712 13.2556 17.9984 13.125 18Z" fill="#2FD5B1"/>
</svg>
