<svg width="21" height="20" viewBox="0 0 21 20" fill="none" xmlns="http://www.w3.org/2000/svg">
<path d="M7.625 9.99994H4.625C4.34888 9.99994 4.125 10.2238 4.125 10.4999C4.125 10.7761 4.34888 10.9999 4.625 10.9999H7.625C7.90112 10.9999 8.125 10.7761 8.125 10.4999C8.125 10.2238 7.90112 9.99994 7.625 9.99994ZM9.625 5.99994H5.625C5.34888 5.99994 5.125 6.22381 5.125 6.49994C5.125 6.77606 5.34888 6.99994 5.625 6.99994H9.625C9.90112 6.99994 10.125 6.77606 10.125 6.49994C10.125 6.22381 9.90112 5.99994 9.625 5.99994ZM7.625 13.9999H4.625C4.34888 13.9999 4.125 14.2238 4.125 14.4999C4.125 14.7761 4.34888 14.9999 4.625 14.9999H7.625C7.90112 14.9999 8.125 14.7761 8.125 14.4999C8.125 14.2238 7.90112 13.9999 7.625 13.9999ZM19.625 9.99994H15.125V0.499935C15.1251 0.412411 15.1021 0.326412 15.0585 0.250545C14.9209 0.0112267 14.6154 -0.0712318 14.376 0.0663414L11.125 1.92962L7.87402 0.0663414C7.7196 -0.0215492 7.5304 -0.0215492 7.37598 0.0663414L4.125 1.92962L0.874023 0.0663414C0.798157 0.0227013 0.712158 -0.000186937 0.624634 -0.000186937C0.348572 -3.83711e-06 0.124878 0.223873 0.125 0.499935V17.4999C0.126282 18.8801 1.24481 19.9987 2.625 19.9999H16.625C16.6844 19.9999 16.7397 19.9852 16.7926 19.9661C16.9032 19.9786 17.0111 19.9998 17.125 19.9999C18.7811 19.9981 20.1232 18.6561 20.125 16.9999V10.4999C20.125 10.4998 20.125 10.4996 20.125 10.4993C20.1248 10.2234 19.901 9.99975 19.625 9.99994ZM2.625 18.9999C1.79694 18.999 1.12592 18.328 1.125 17.4999V1.36224L3.86621 2.93353C4.02753 3.02142 4.22247 3.02142 4.38379 2.93353L7.625 1.07611L10.8662 2.93353C11.0275 3.02142 11.2225 3.02142 11.3838 2.93353L14.125 1.36224V10.4999V16.9999C14.1259 17.7718 14.4261 18.4684 14.9053 18.9999H2.625ZM19.125 16.9999C19.125 18.1045 18.2296 18.9999 17.125 18.9999C16.0204 18.9999 15.125 18.1045 15.125 16.9999V10.9999H19.125V16.9999ZM11.625 9.99994C11.3489 9.99994 11.125 10.2238 11.125 10.4999C11.125 10.7761 11.3489 10.9999 11.625 10.9999C11.9011 10.9999 12.125 10.7761 12.125 10.4999C12.125 10.2238 11.9011 9.99994 11.625 9.99994ZM11.625 13.9999C11.3489 13.9999 11.125 14.2238 11.125 14.4999C11.125 14.7761 11.3489 14.9999 11.625 14.9999C11.9011 14.9999 12.125 14.7761 12.125 14.4999C12.125 14.2238 11.9011 13.9999 11.625 13.9999Z" fill="#969CA9"/>
</svg>
