<svg width="27" height="28" viewBox="0 0 27 28" fill="none" xmlns="http://www.w3.org/2000/svg">
<path d="M13.3329 8.53317C10.2662 8.53317 7.99956 11.0665 7.99956 14.1332C7.99956 17.1998 10.5329 19.4665 13.5996 19.4665C16.5329 19.4665 18.9329 16.9332 18.9329 13.9998V13.8665C18.7996 10.9332 16.2662 8.53317 13.3329 8.53317ZM17.4662 14.1332C17.4662 16.3998 15.4662 18.1332 13.1996 18.1332C10.9329 18.1332 9.19956 16.1332 9.19956 13.8665C9.19956 11.5998 11.1996 9.8665 13.4662 9.8665C15.7329 9.8665 17.5996 11.7332 17.4662 14.1332C17.4662 14.1332 17.4662 13.9998 17.4662 14.1332ZM24.6662 15.4665C23.9996 14.6665 23.9996 13.4665 24.6662 12.6665L26.5329 10.6665C26.6662 10.3998 26.7996 10.1332 26.6662 9.8665L23.8662 4.93317C23.7329 4.6665 23.4662 4.53317 23.1996 4.6665L20.5329 5.19984C19.4662 5.4665 18.3996 4.79984 17.9996 3.73317L17.1996 1.19984C16.9329 0.799837 16.6662 0.666504 16.3996 0.666504H10.6662C10.3996 0.666504 10.1329 0.799837 9.99956 1.0665L9.19956 3.73317C8.79956 4.6665 7.73289 5.33317 6.66623 5.0665L3.99956 4.53317C3.73289 4.53317 3.46623 4.6665 3.33289 4.93317L0.532893 9.73317C0.39956 9.99984 0.39956 10.2665 0.666226 10.5332L2.53289 12.5332C3.19956 13.3332 3.19956 14.5332 2.53289 15.3332L0.666226 17.4665C0.532893 17.7332 0.39956 17.9998 0.532893 18.2665L3.33289 23.0665C3.46623 23.3332 3.73289 23.4665 3.99956 23.3332L6.66623 22.7998C7.73289 22.5332 8.79956 23.1998 9.19956 24.2665L9.99956 26.9332C10.1329 27.1998 10.3996 27.3332 10.6662 27.3332H16.2662C16.5329 27.3332 16.7996 27.1998 16.9329 26.9332L17.7329 24.3998C18.1329 23.3332 19.1996 22.7998 20.2662 22.9332L22.9329 23.4665C23.1996 23.4665 23.4662 23.3332 23.5996 23.1998L26.3996 18.2665C26.5329 17.9998 26.5329 17.7332 26.2662 17.4665L24.6662 15.4665ZM22.7996 21.9998L20.6662 21.5998C18.9329 21.1998 17.1996 22.2665 16.6662 23.8665L15.8662 25.9998H11.1996L10.5329 23.8665C9.99956 22.1332 8.26623 21.1998 6.53289 21.5998L4.26623 21.9998L1.86623 17.9998L3.33289 16.2665C4.53289 14.9332 4.53289 12.9332 3.33289 11.5998L1.86623 9.99984L4.26623 5.99984L6.39956 6.39984C8.13289 6.79984 9.86623 5.73317 10.3996 4.13317L11.1996 1.99984H15.8662L16.5329 4.13317C17.0662 5.8665 18.7996 6.79984 20.5329 6.39984L22.7996 5.99984L25.1996 9.99984L23.7329 11.7332C22.5329 13.0665 22.5329 15.0665 23.7329 16.3998L25.1996 18.1332L22.7996 21.9998Z" fill="#8890A0"/>
</svg>
