<svg width="32" height="32" viewBox="0 0 32 32" fill="none" xmlns="http://www.w3.org/2000/svg">
<g clip-path="url(#clip0_578_5437)">
<path fill-rule="evenodd" clip-rule="evenodd" d="M3.77465 7.22175H28.9577C30.631 7.22175 32 8.51917 32 10.1049V26.806C32 28.3917 30.631 29.6891 28.9577 29.6891H3.04225C1.36901 29.6891 0 28.3917 0 26.806V6.17526C0 5.42243 0.653521 4.90453 1.44225 4.80842L24.6648 2C25.4592 2 26.107 2.61401 26.107 3.36684V5.70007H2.33239C2.33239 6.68249 2.64225 7.21641 3.78592 7.21641L3.77465 7.22175ZM17.8986 25.5192C15.7803 25.9036 13.0592 25.2362 11.5775 23.7252C10.907 23.0472 11.9887 22.0167 12.6592 22.7054C13.6563 23.7199 15.431 24.1951 16.8789 24.1631C18.7268 24.1257 20.3718 22.5346 19.3183 20.7566C17.8648 18.2953 14.2873 18.984 12.4507 17.0512C10.9634 15.4922 11.6676 13.0361 13.4141 11.9469C15.2338 10.8097 18.3831 10.8524 19.8761 12.4809C20.5239 13.1803 19.4423 14.2054 18.7944 13.5007C17.5831 12.1872 14.7268 12.3634 13.6338 13.7196C12.0789 15.6524 14.4056 16.6935 16.0282 17.158C18.2592 17.7987 20.7324 18.968 21.138 21.392C21.4648 23.3462 19.8648 25.1615 17.893 25.5245L17.8986 25.5192Z" fill="#EE4E2C"/>
<path fill-rule="evenodd" clip-rule="evenodd" d="M17.8985 25.5253C15.7801 25.9097 13.059 25.2423 11.5773 23.7314C10.9069 23.0533 11.9886 22.0228 12.659 22.7116C13.6562 23.726 15.4309 24.2012 16.8787 24.1692C18.7266 24.1318 20.3661 22.5407 19.3182 20.7628C17.8647 18.3014 14.2872 18.9901 12.4506 17.0574C10.9632 15.4983 11.6675 13.0423 13.4139 11.9531C15.2337 10.8158 18.3773 10.8639 19.8759 12.487C20.5182 13.1864 19.4421 14.2116 18.7942 13.5068C17.583 12.1933 14.7266 12.3695 13.6337 13.7257C12.0787 15.6585 14.4055 16.6996 16.028 17.1641C18.259 17.8048 20.7323 18.9741 21.1435 21.3981C21.4703 23.3523 19.8703 25.1676 17.8985 25.5307V25.5253Z" fill="#FEFEFE"/>
</g>
<defs>
<clipPath id="clip0_578_5437">
<rect width="32" height="27.6891" fill="white" transform="translate(0 2)"/>
</clipPath>
</defs>
</svg>
