<svg width="24" height="24" viewBox="0 0 24 24" fill="none" xmlns="http://www.w3.org/2000/svg">
<path d="M21 8H11C10.7348 8 10.4804 7.89464 10.2929 7.70711C10.1054 7.51957 10 7.26522 10 7C10 6.73478 10.1054 6.48043 10.2929 6.29289C10.4804 6.10536 10.7348 6 11 6H21C21.2652 6 21.5196 6.10536 21.7071 6.29289C21.8946 6.48043 22 6.73478 22 7C22 7.26522 21.8946 7.51957 21.7071 7.70711C21.5196 7.89464 21.2652 8 21 8ZM21 13H11C10.7348 13 10.4804 12.8946 10.2929 12.7071C10.1054 12.5196 10 12.2652 10 12C10 11.7348 10.1054 11.4804 10.2929 11.2929C10.4804 11.1054 10.7348 11 11 11H21C21.2652 11 21.5196 11.1054 21.7071 11.2929C21.8946 11.4804 22 11.7348 22 12C22 12.2652 21.8946 12.5196 21.7071 12.7071C21.5196 12.8946 21.2652 13 21 13Z" fill="#7090CF"/>
<path d="M5 18C4.86866 18.0001 4.73859 17.9743 4.61723 17.924C4.49587 17.8738 4.3856 17.8001 4.29273 17.7073C4.19985 17.6144 4.1262 17.5041 4.07597 17.3828C4.02574 17.2614 3.99993 17.1313 4 17V7C4 6.73478 4.10536 6.48043 4.29289 6.29289C4.48043 6.10536 4.73478 6 5 6C5.26522 6 5.51957 6.10536 5.70711 6.29289C5.89464 6.48043 6 6.73478 6 7V17C6.00008 17.1313 5.97426 17.2614 5.92403 17.3828C5.8738 17.5041 5.80015 17.6144 5.70727 17.7073C5.6144 17.8001 5.50413 17.8738 5.38277 17.924C5.26141 17.9743 5.13134 18.0001 5 18Z" fill="#1247AF"/>
<path d="M21 18H11C10.7348 18 10.4804 17.8946 10.2929 17.7071C10.1054 17.5196 10 17.2652 10 17C10 16.7348 10.1054 16.4804 10.2929 16.2929C10.4804 16.1054 10.7348 16 11 16H21C21.2652 16 21.5196 16.1054 21.7071 16.2929C21.8946 16.4804 22 16.7348 22 17C22 17.2652 21.8946 17.5196 21.7071 17.7071C21.5196 17.8946 21.2652 18 21 18Z" fill="#7090CF"/>
<path d="M7.00032 9.99997C6.86898 10.0001 6.73891 9.97431 6.61758 9.92403C6.49625 9.87375 6.38605 9.79998 6.29332 9.70697L5.00032 8.41403L3.70732 9.70697C3.51924 9.89168 3.26581 9.99464 3.0022 9.99345C2.73858 9.99226 2.4861 9.88701 2.2997 9.7006C2.11329 9.51419 2.00804 9.26171 2.00685 8.9981C2.00565 8.73448 2.10861 8.48106 2.29332 8.29297L4.29332 6.29297C4.38615 6.20009 4.49637 6.12641 4.61769 6.07614C4.739 6.02587 4.86903 6 5.00035 6C5.13167 6 5.2617 6.02587 5.38302 6.07614C5.50433 6.12641 5.61455 6.20009 5.70738 6.29297L7.70738 8.29297C7.8472 8.43283 7.9424 8.611 7.98097 8.80496C8.01953 8.99892 7.99973 9.19995 7.92405 9.38266C7.84837 9.56536 7.72022 9.72152 7.5558 9.8314C7.39138 9.94128 7.19808 9.99994 7.00032 9.99997Z" fill="#1247AF"/>
</svg>
