<svg width="20" height="20" viewBox="0 0 20 20" fill="none" xmlns="http://www.w3.org/2000/svg">
<path d="M15.5626 19.5596C15.4005 19.5595 15.2408 19.5201 15.0973 19.4448L10.0001 16.7651L4.90296 19.4448C4.73778 19.5316 4.55161 19.5705 4.3655 19.5571C4.17938 19.5436 4.00074 19.4784 3.84977 19.3687C3.6988 19.259 3.58152 19.1093 3.51119 18.9365C3.44086 18.7636 3.42028 18.5745 3.45178 18.3906L4.42542 12.7148L0.301885 8.69584C0.168302 8.56556 0.0738231 8.40051 0.0291246 8.21934C-0.0155739 8.03818 -0.00870976 7.84812 0.0489412 7.67066C0.106592 7.49319 0.212732 7.33538 0.355365 7.21508C0.497998 7.09477 0.671438 7.01675 0.856085 6.98984L6.55482 6.16171L9.10312 0.998054C9.19523 0.842106 9.3264 0.712866 9.4837 0.623085C9.64099 0.533304 9.81898 0.486084 10.0001 0.486084C10.1812 0.486084 10.3592 0.533304 10.5165 0.623085C10.6738 0.712866 10.805 0.842106 10.8971 0.998054L13.4454 6.16162L19.1441 6.98975C19.3288 7.01666 19.5022 7.09468 19.6449 7.21499C19.7875 7.33529 19.8936 7.4931 19.9513 7.67057C20.0089 7.84804 20.0158 8.03809 19.9711 8.21925C19.9264 8.40042 19.8319 8.56547 19.6983 8.69575L15.5748 12.7148L16.5484 18.3905C16.573 18.5341 16.566 18.6813 16.5278 18.8218C16.4896 18.9624 16.4212 19.0929 16.3273 19.2042C16.2334 19.3156 16.1163 19.405 15.9842 19.4664C15.8521 19.5278 15.7082 19.5596 15.5626 19.5595L15.5626 19.5596Z" fill="#EC8D62"/>
</svg>
