<svg width="28" height="26" viewBox="0 0 28 26" fill="none" xmlns="http://www.w3.org/2000/svg">
<path d="M27.3264 10.2438C27.38 9.87932 27.1278 9.54045 26.7633 9.48698L18.357 8.26172L14.5979 0.6224C14.5382 0.520838 14.4535 0.436121 14.3519 0.376388C14.0218 0.182215 13.5968 0.292322 13.4026 0.6224L9.64349 8.26172L1.23724 9.48698C1.09287 9.50814 0.95941 9.57609 0.857359 9.68034C0.599628 9.94361 0.604185 10.366 0.86745 10.6237L6.95078 16.5716L5.51459 24.9714C5.49017 25.1156 5.51385 25.2639 5.58205 25.3934C5.7536 25.7195 6.15716 25.8448 6.48334 25.6732L14.0003 21.7096L21.5172 25.6732C21.6132 25.7234 21.72 25.7498 21.8284 25.75C21.8655 25.75 21.9024 25.7469 21.9391 25.7407C22.3025 25.6793 22.5474 25.3348 22.4859 24.9714L21.0497 16.5716L27.1331 10.6237C27.2373 10.5217 27.3053 10.3882 27.3264 10.2438ZM19.8675 15.8632C19.7112 16.0163 19.6397 16.2361 19.676 16.4517L20.943 23.8632L14.3115 20.3659C14.2154 20.3157 14.1087 20.2893 14.0003 20.2891C13.8919 20.2893 13.7852 20.3157 13.6891 20.366L7.05764 23.8633L8.32448 16.4518C8.36086 16.2362 8.28933 16.0164 8.13308 15.8633L2.76328 10.612L10.1826 9.53125C10.3996 9.49903 10.587 9.36223 10.6839 9.16537L14.0003 2.42709L17.3167 9.16537C17.4135 9.36231 17.6009 9.49911 17.818 9.53125L25.2372 10.612L19.8675 15.8632Z" fill="#8890A0"/>
</svg>
