<svg width="32" height="32" viewBox="0 0 32 32" fill="none" xmlns="http://www.w3.org/2000/svg">
<path d="M29.3264 13.2436C29.38 12.8791 29.1278 12.5402 28.7633 12.4867L20.357 11.2615L16.5979 3.62216C16.5382 3.52059 16.4535 3.43588 16.3519 3.37614C16.0218 3.18197 15.5968 3.29208 15.4026 3.62216L11.6435 11.2615L3.23724 12.4867C3.09287 12.5079 2.95941 12.5759 2.85736 12.6801C2.59963 12.9434 2.60418 13.3657 2.86745 13.6235L8.95078 19.5714L7.51459 27.9711C7.49017 28.1154 7.51385 28.2637 7.58205 28.3932C7.7536 28.7192 8.15716 28.8446 8.48334 28.6729L16.0003 24.7094L23.5172 28.6729C23.6132 28.7231 23.72 28.7495 23.8284 28.7498C23.8655 28.7498 23.9024 28.7467 23.9391 28.7405C24.3025 28.679 24.5474 28.3346 24.4859 27.9711L23.0497 19.5714L29.1331 13.6235C29.2373 13.5214 29.3053 13.3879 29.3264 13.2436ZM21.8675 18.863C21.7112 19.016 21.6397 19.2358 21.676 19.4515L22.943 26.863L16.3115 23.3656C16.2154 23.3154 16.1087 23.2891 16.0003 23.2888C15.8919 23.2891 15.7852 23.3154 15.6891 23.3657L9.05764 26.863L10.3245 19.4516C10.3609 19.2359 10.2893 19.0161 10.1331 18.863L4.76328 13.6117L12.1826 12.531C12.3996 12.4988 12.587 12.362 12.6839 12.1651L16.0003 5.42684L19.3167 12.1651C19.4135 12.3621 19.6009 12.4989 19.818 12.531L27.2372 13.6117L21.8675 18.863Z" fill="#8890A0"/>
</svg>
