<svg width="20" height="20" viewBox="0 0 20 20" fill="none" xmlns="http://www.w3.org/2000/svg">
<path d="M19.9946 7.93293C20.0347 7.65955 19.8456 7.4054 19.5722 7.3653L13.2675 6.44635L10.4482 0.716861C10.4034 0.640689 10.3399 0.577152 10.2637 0.532352C10.0161 0.386722 9.69734 0.469303 9.55171 0.716861L6.73237 6.44635L0.427687 7.3653C0.319411 7.38117 0.219313 7.43213 0.142775 7.51032C-0.0505234 7.70777 -0.0471055 8.02454 0.150343 8.21784L4.71284 12.6788L3.63569 18.9786C3.61738 19.0868 3.63515 19.198 3.68629 19.2951C3.81496 19.5397 4.11763 19.6337 4.36226 19.5049L9.99995 16.5323L15.6376 19.5049C15.7097 19.5426 15.7897 19.5624 15.871 19.5626C15.8989 19.5626 15.9266 19.5602 15.9541 19.5556C16.2266 19.5095 16.4103 19.2512 16.3642 18.9786L15.2871 12.6788L19.8496 8.21784C19.9277 8.1413 19.9787 8.0412 19.9946 7.93293ZM14.4003 12.1475C14.2832 12.2623 14.2295 12.4271 14.2568 12.5889L15.207 18.1475L10.2334 15.5245C10.1613 15.4868 10.0813 15.467 9.99995 15.4669C9.91865 15.467 9.83864 15.4868 9.76655 15.5245L4.79298 18.1475L5.74312 12.5889C5.7704 12.4272 5.71675 12.2623 5.59956 12.1475L1.57222 8.20905L7.13667 7.3985C7.29945 7.37433 7.44002 7.27173 7.51265 7.12409L9.99995 2.07038L12.4873 7.12409C12.5599 7.27179 12.7005 7.37439 12.8632 7.3985L18.4277 8.20905L14.4003 12.1475Z" fill="#1F1F25"/>
</svg>
