<svg width="25" height="24" viewBox="0 0 25 24" fill="none" xmlns="http://www.w3.org/2000/svg">
<path d="M0.936648 10.6841H13.7326H16.8126H24.2886C24.6806 10.6841 24.8486 10.2081 24.5686 9.95607L14.3486 0.352071C14.0686 0.100071 13.6206 0.296071 13.6206 0.660071L13.6766 6.45607H0.936648C0.572648 6.45607 0.264648 6.76407 0.264648 7.12807V10.0401C0.292648 10.3761 0.572648 10.6841 0.936648 10.6841ZM24.0646 13.3161H11.2686H8.18865H0.712648C0.320648 13.3161 0.152648 13.7921 0.432648 14.0441L10.6806 23.6481C10.9606 23.9001 11.4086 23.7041 11.4086 23.3401L11.3526 17.5441H24.0926C24.4566 17.5441 24.7646 17.2361 24.7646 16.8721V13.9881C24.7086 13.6241 24.4286 13.3161 24.0646 13.3161Z" fill="#1A1A1A"/>
</svg>
