<svg width="16" height="20" viewBox="0 0 16 20" fill="none" xmlns="http://www.w3.org/2000/svg">
<path d="M10.7098 19.7101L14.7098 15.7101C14.8031 15.6169 14.877 15.5062 14.9275 15.3844C14.9779 15.2626 15.0039 15.132 15.0039 15.0001C15.0039 14.7338 14.8981 14.4784 14.7098 14.2901C14.5215 14.1018 14.2661 13.996 13.9998 13.996C13.7335 13.996 13.4781 14.1018 13.2898 14.2901L10.9998 16.5901L10.9998 5.00014C10.9998 4.73492 10.8945 4.48057 10.7069 4.29303C10.5194 4.1055 10.265 4.00014 9.99981 4.00014C9.7346 4.00014 9.48024 4.1055 9.29271 4.29303C9.10517 4.48057 8.99981 4.73492 8.99981 5.00014L8.99981 19.0001C9.0008 19.1976 9.0602 19.3903 9.17053 19.554C9.28087 19.7177 9.43719 19.8451 9.61981 19.9201C9.80192 19.9967 10.0026 20.0176 10.1966 19.9803C10.3906 19.9429 10.5692 19.8489 10.7098 19.7101ZM6.99981 15.0001L6.99981 1.00014C6.99883 0.802714 6.93943 0.609998 6.82909 0.446277C6.71876 0.282557 6.56243 0.155159 6.37981 0.0801391C6.1977 0.00355964 5.99699 -0.017363 5.803 0.0200111C5.60901 0.0573852 5.43044 0.151381 5.28981 0.290139L1.28982 4.29014C1.19609 4.3831 1.12169 4.4937 1.07092 4.61556C1.02015 4.73742 0.994016 4.86813 0.994016 5.00014C0.994016 5.13215 1.02015 5.26286 1.07092 5.38472C1.12169 5.50657 1.19609 5.61718 1.28982 5.71014C1.38278 5.80387 1.49338 5.87826 1.61524 5.92903C1.7371 5.9798 1.8678 6.00594 1.99981 6.00594C2.13183 6.00594 2.26253 5.9798 2.38439 5.92903C2.50625 5.87826 2.61685 5.80387 2.70981 5.71014L4.99981 3.41014L4.99981 15.0001C4.99981 15.2654 5.10517 15.5197 5.29271 15.7072C5.48024 15.8948 5.7346 16.0001 5.99981 16.0001C6.26503 16.0001 6.51938 15.8948 6.70692 15.7072C6.89446 15.5197 6.99981 15.2654 6.99981 15.0001Z" fill="black"/>
</svg>
