<svg width="24" height="24" viewBox="0 0 24 24" fill="none" xmlns="http://www.w3.org/2000/svg">
<path d="M20.5 6H16V4.5C15.9987 3.11981 14.8802 2.00128 13.5 2H10.5C9.11981 2.00128 8.00128 3.11981 8 4.5V6H3.5C3.22388 6 3 6.22388 3 6.5C3 6.77612 3.22388 7 3.5 7H5V19.5C5.00128 20.8802 6.11981 21.9987 7.5 22H16.5C17.8802 21.9987 18.9987 20.8802 19 19.5V7H20.5C20.7761 7 21 6.77612 21 6.5C21 6.22388 20.7761 6 20.5 6ZM9 4.5C9.00092 3.67194 9.67194 3.00092 10.5 3H13.5C14.3281 3.00092 14.9991 3.67194 15 4.5V6H9V4.5ZM18 19.5C17.9991 20.3281 17.3281 20.9991 16.5 21H7.5C6.67194 20.9991 6.00092 20.3281 6 19.5V7H18V19.5ZM9.5 18H9.50061C9.77655 17.9998 10.0002 17.776 10 17.5V10.5C10 10.2239 9.77612 10 9.5 10C9.22388 10 9 10.2239 9 10.5V17.5005C9.00018 17.7766 9.224 18.0002 9.5 18ZM14.5 18H14.5006C14.7766 17.9998 15.0002 17.776 15 17.5V10.5C15 10.2239 14.7761 10 14.5 10C14.2239 10 14 10.2239 14 10.5V17.5005C14.0002 17.7766 14.224 18.0002 14.5 18Z" fill="#8890A0"/>
</svg>
