<svg width="24" height="24" viewBox="0 0 24 24" fill="none" xmlns="http://www.w3.org/2000/svg">
<path opacity="0.99" d="M10.3123 16.0936C10.181 16.0937 10.0509 16.0679 9.92959 16.0176C9.80826 15.9674 9.69807 15.8936 9.60534 15.8006L6.79284 12.9881C6.60727 12.8002 6.50357 12.5465 6.5044 12.2824C6.50522 12.0183 6.6105 11.7653 6.79724 11.5785C6.98398 11.3918 7.23702 11.2865 7.50112 11.2856C7.76521 11.2848 8.01891 11.3885 8.20683 11.5741L10.3123 13.6795L15.7928 8.19905C15.9808 8.01349 16.2345 7.90981 16.4986 7.91065C16.7626 7.91149 17.0157 8.01677 17.2024 8.20352C17.3892 8.39027 17.4944 8.64331 17.4953 8.90741C17.4961 9.17151 17.3924 9.4252 17.2068 9.61312L11.0193 15.8006C10.9266 15.8936 10.8164 15.9674 10.6951 16.0177C10.5737 16.0679 10.4437 16.0937 10.3123 16.0936Z" fill="#27AE60"/>
<path d="M12 2C10.0222 2 8.08879 2.58649 6.4443 3.6853C4.79981 4.78412 3.51809 6.3459 2.76121 8.17317C2.00433 10.0004 1.8063 12.0111 2.19215 13.9509C2.578 15.8907 3.53041 17.6725 4.92894 19.0711C6.32746 20.4696 8.10929 21.422 10.0491 21.8079C11.9889 22.1937 13.9996 21.9957 15.8268 21.2388C17.6541 20.4819 19.2159 19.2002 20.3147 17.5557C21.4135 15.9112 22 13.9778 22 12C21.997 9.34877 20.9424 6.80699 19.0677 4.93228C17.193 3.05758 14.6512 2.00303 12 2ZM17.207 9.61328L11.0195 15.8008C10.9267 15.8937 10.8165 15.9673 10.6951 16.0176C10.5738 16.0679 10.4438 16.0938 10.3125 16.0938C10.1812 16.0938 10.0511 16.0679 9.92981 16.0176C9.8085 15.9673 9.69828 15.8937 9.60544 15.8008L6.793 12.9883C6.60743 12.8004 6.50374 12.5467 6.50457 12.2826C6.50539 12.0185 6.61067 11.7654 6.79741 11.5787C6.98415 11.3919 7.23719 11.2867 7.50129 11.2858C7.76538 11.285 8.01908 11.3887 8.207 11.5742L10.3125 13.6797L15.793 8.19922C15.9809 8.01366 16.2346 7.90998 16.4987 7.91081C16.7628 7.91165 17.0159 8.01694 17.2026 8.20368C17.3893 8.39043 17.4946 8.64348 17.4954 8.90757C17.4963 9.17167 17.3926 9.42537 17.207 9.61328Z" fill="#B4EECD"/>
</svg>
