<svg width="32" height="32" viewBox="0 0 32 32" fill="none" xmlns="http://www.w3.org/2000/svg">
<path d="M28.8975 6.04167L16.2308 1.375C16.082 1.32031 15.9186 1.32031 15.7699 1.375L3.10319 6.04167C2.84106 6.13794 2.66691 6.38745 2.66699 6.66667V11.3333C2.66675 11.7013 2.96493 11.9998 3.33285 12C3.33317 12 3.33341 12 3.33366 12H5.33366V22.7341C3.78271 23.0525 2.66878 24.4167 2.66699 26V28.6667C2.66675 29.0347 2.96493 29.3331 3.33285 29.3333C3.33317 29.3333 3.33341 29.3333 3.33366 29.3333H28.667C29.035 29.3336 29.3334 29.0354 29.3337 28.6674C29.3337 28.6672 29.3337 28.6669 29.3337 28.6667V26C29.3319 24.4167 28.2179 23.0525 26.667 22.7341V12H28.667C29.035 12.0002 29.3334 11.7021 29.3337 11.3341C29.3337 11.3338 29.3337 11.3336 29.3337 11.3333V6.66667C29.3337 6.38745 29.1596 6.13794 28.8975 6.04167ZM28.0003 26V28H4.00033V26C4.00155 24.8959 4.89624 24.0012 6.00033 24H26.0003C27.1044 24.0012 27.9991 24.8959 28.0003 26ZM6.66699 22.6667V12H10.667V22.6667H6.66699ZM12.0003 22.6667V12H20.0003V22.6667H12.0003ZM21.3337 22.6667V12H25.3337V22.6667H21.3337ZM28.0003 10.6667H4.00033V7.13151L16.0003 2.71094L28.0003 7.13151V10.6667Z" fill="#8890A0"/>
</svg>
