<svg width="14" height="9" viewBox="0 0 14 9" fill="none" xmlns="http://www.w3.org/2000/svg">
<path d="M12.9997 1.08434e-07H9.66632C9.48951 1.08434e-07 9.31994 0.0702381 9.19492 0.195262C9.0699 0.320287 8.99966 0.489856 8.99966 0.666667C8.99966 0.843478 9.0699 1.01305 9.19492 1.13807C9.31994 1.2631 9.48951 1.33333 9.66632 1.33333H11.3903L7.66632 5.05729L5.47099 2.862C5.4091 2.80008 5.33562 2.75096 5.25475 2.71745C5.17387 2.68393 5.08718 2.66668 4.99964 2.66668C4.91209 2.66668 4.82541 2.68393 4.74453 2.71745C4.66365 2.75096 4.59017 2.80008 4.52828 2.862L0.528284 6.862C0.465747 6.92376 0.416041 6.99727 0.382025 7.07831C0.348009 7.15936 0.330356 7.24632 0.330081 7.33422C0.329807 7.42211 0.346916 7.50918 0.380424 7.59044C0.413933 7.67169 0.463179 7.74551 0.525329 7.80766C0.587479 7.86981 0.661305 7.91905 0.74256 7.95256C0.823814 7.98606 0.910892 8.00317 0.998783 8.00289C1.08667 8.00261 1.17364 7.98495 1.25468 7.95093C1.33572 7.91692 1.40924 7.86721 1.47099 7.80467L4.99966 4.27604L7.19499 6.47137C7.25688 6.53329 7.33036 6.58241 7.41124 6.61592C7.49211 6.64944 7.5788 6.66669 7.66634 6.66669C7.75389 6.66669 7.84058 6.64944 7.92145 6.61592C8.00233 6.58241 8.07581 6.53329 8.1377 6.47137L12.333 2.27604V4C12.333 4.17681 12.4032 4.34638 12.5283 4.4714C12.6533 4.59643 12.8228 4.66667 12.9997 4.66667C13.1765 4.66667 13.346 4.59643 13.4711 4.4714C13.5961 4.34638 13.6663 4.17681 13.6663 4V0.666667C13.6664 0.579105 13.6492 0.492392 13.6157 0.411485C13.5822 0.330579 13.5331 0.257066 13.4712 0.195151C13.4093 0.133235 13.3357 0.0841307 13.2548 0.0506453C13.1739 0.0171599 13.0872 -4.98446e-05 12.9997 1.08434e-07Z" fill="#27AE60"/>
</svg>
