<svg width="32" height="32" viewBox="0 0 32 32" fill="none" xmlns="http://www.w3.org/2000/svg">
<path d="M26.0003 9.33333H24.0003V8C23.9979 5.79183 22.2085 4.00244 20.0003 4H6.00033C4.16007 4.00171 2.6687 5.49308 2.66699 7.33333V24C2.66943 26.2082 4.45882 27.9976 6.66699 28H26.0003C27.8406 27.9983 29.332 26.5069 29.3337 24.6667V12.6667C29.332 10.8264 27.8406 9.33504 26.0003 9.33333ZM6.00033 5.33333H20.0003C21.4723 5.33521 22.6651 6.52799 22.667 8V9.33333H6.00033C4.89575 9.33333 4.00033 8.43791 4.00033 7.33333C4.00033 6.22876 4.89575 5.33333 6.00033 5.33333ZM28.0003 21.3333H25.3337C23.8609 21.3333 22.667 20.1394 22.667 18.6667C22.667 17.1939 23.8609 16 25.3337 16H28.0003V21.3333ZM28.0003 14.6667H25.3337C23.1245 14.6667 21.3337 16.4575 21.3337 18.6667C21.3337 20.8758 23.1245 22.6667 25.3337 22.6667H28.0003V24.6667C27.9991 25.7708 27.1044 26.6654 26.0003 26.6667H6.66699C5.19499 26.6648 4.0022 25.472 4.00033 24V9.9987C4.57658 10.433 5.27873 10.6676 6.00033 10.6667H26.0003C27.1044 10.6679 27.9991 11.5626 28.0003 12.6667V14.6667Z" fill="#8890A0"/>
</svg>
