<svg width="22" height="20" viewBox="0 0 22 20" fill="none" xmlns="http://www.w3.org/2000/svg">
<path d="M11 10.5C9.61926 10.5 8.5 11.6193 8.5 13C8.5 14.3807 9.61926 15.5 11 15.5C12.3801 15.4985 13.4985 14.3801 13.5 13C13.5 11.6193 12.3807 10.5 11 10.5ZM11 14.5C10.1716 14.5 9.5 13.8284 9.5 13C9.5 12.1716 10.1716 11.5 11 11.5C11.8281 11.5009 12.4991 12.1719 12.5 13C12.5 13.8284 11.8284 14.5 11 14.5ZM8.60352 3.60352L10.5 1.70697V7.5C10.5 7.50018 10.5 7.50037 10.5 7.50055C10.5002 7.77655 10.724 8.00018 11 8C11.0002 8 11.0004 8 11.0006 8C11.2766 7.99982 11.5002 7.776 11.5 7.5V1.70697L13.3965 3.60352C13.4901 3.69745 13.6174 3.75018 13.75 3.75C13.8825 3.75 14.0096 3.69733 14.1034 3.60364C14.2987 3.40839 14.2988 3.0918 14.1035 2.89655L11.3539 0.146973C11.3077 0.100647 11.2523 0.0639648 11.1909 0.0385742C11.1329 0.0146484 11.0715 0.00317382 11.0097 0.00195312C11.0063 0.00189213 11.0034 0 11 0C10.9976 0 10.9956 0.00128167 10.9932 0.00134277C10.9305 0.00219727 10.8679 0.0142212 10.809 0.0385742C10.7476 0.0639648 10.6923 0.100647 10.6461 0.146973L7.89655 2.89655C7.70935 3.09027 7.70935 3.39746 7.89655 3.59125C8.08838 3.78986 8.40491 3.79535 8.60352 3.60352ZM3.5 13C3.5 13.8284 4.17157 14.5 5 14.5C5.82806 14.4991 6.49908 13.8281 6.5 13C6.5 12.1716 5.82843 11.5 5 11.5C4.17157 11.5 3.5 12.1716 3.5 13ZM5.5 13C5.5 13.2761 5.27612 13.5 5 13.5C4.72388 13.5 4.5 13.2761 4.5 13C4.5 12.7239 4.72388 12.5 5 12.5C5.276 12.5004 5.49963 12.724 5.5 13ZM18.5 13C18.5 12.1716 17.8284 11.5 17 11.5C16.1716 11.5 15.5 12.1716 15.5 13C15.5 13.8284 16.1716 14.5 17 14.5C17.8281 14.4991 18.4991 13.8281 18.5 13ZM16.5 13C16.5 12.7239 16.7239 12.5 17 12.5C17.2759 12.5005 17.4995 12.7241 17.5 13C17.5 13.2761 17.2761 13.5 17 13.5C16.7239 13.5 16.5 13.2761 16.5 13ZM19 6H14C13.7239 6 13.5 6.22388 13.5 6.5C13.5 6.77612 13.7239 7 14 7H19C20.104 7.0014 20.9986 7.896 21 9V17C20.9986 18.104 20.104 18.9986 19 19H3C1.89594 18.9987 1.00128 18.1041 1 17V9C1.00128 7.89594 1.89594 7.00128 3 7H8C8.27612 7 8.5 6.77612 8.5 6.5C8.5 6.22388 8.27612 6 8 6H3C1.34387 6.00183 0.0018311 7.34387 0 9V17C0.0018311 18.6561 1.34387 19.9982 3 20H19C20.6561 19.9982 21.9982 18.6561 22 17V9C21.9982 7.34387 20.6561 6.00183 19 6Z" fill="#EB5757"/>
</svg>
