<svg width="24" height="24" viewBox="0 0 24 24" fill="none" xmlns="http://www.w3.org/2000/svg">
<path d="M16.5 17C16.2 17 16 17.2 16 17.5V19.5C16 20.3 15.3 21 14.5 21H5.5C4.7 21 4 20.3 4 19.5V4.5C4 3.7 4.7 3 5.5 3H14.5C15.3 3 16 3.7 16 4.5V6.5C16 6.8 16.2 7 16.5 7C16.8 7 17 6.8 17 6.5V4.5C17 3.1 15.9 2 14.5 2H5.5C4.1 2 3 3.1 3 4.5V19.5C3 20.9 4.1 22 5.5 22H14.5C15.9 22 17 20.9 17 19.5V17.5C17 17.2 16.8 17 16.5 17ZM22 12C22 11.9 22 11.9 22 11.8C22 11.7 21.9 11.7 21.9 11.6L18.9 8.6C18.7 8.4 18.4 8.4 18.2 8.6C18 8.8 18 9.1 18.2 9.3L20.3 11.4H12.5C12.2 11.4 12 11.6 12 11.9C12 12.2 12.2 12.4 12.5 12.4H20.3L18.2 14.5C18.1 14.7 18 14.9 18 15C18 15.3 18.2 15.5 18.5 15.5C18.6 15.5 18.8 15.4 18.9 15.4L21.9 12.4C21.9 12.4 22 12.3 22 12.2C22 12.1 22 12.1 22 12Z" fill="#6563FF"/>
</svg>
